<?xml version="1.0" encoding="utf-8"?>
<!-- Generator: Adobe Illustrator 19.0.0, SVG Export Plug-In . SVG Version: 6.00 Build 0)  -->
<svg version="1.1" id="Calque_1" xmlns="http://www.w3.org/2000/svg" xmlns:xlink="http://www.w3.org/1999/xlink" x="0px" y="0px"
	 viewBox="0 0 415.4 211.4" style="enable-background:new 0 0 415.4 211.4;" xml:space="preserve">
<style type="text/css">
	.st0{fill:#FDFEFF;}
	.st1{fill:#FFFFFF;}
</style>
<g id="XMLID_2_">
	<path id="XMLID_135_" class="st0" d="M352.2,168.7c-6.5,0-13-0.1-19.4,0c-4.3,0.1-4.3-2.3-4.4-5.5c-0.1-3.3,1.2-4.3,4.4-4.3
		c13,0.1,25.9,0.2,38.9,0c3.9-0.1,4.1,1.9,4.1,4.9c0,2.9-0.1,5.1-4.1,4.9C365.1,168.5,358.6,168.7,352.2,168.7z"/>
	<path id="XMLID_134_" class="st1" d="M301.5,100.4c-6.5,0-13-0.2-19.4,0.1c-4.4,0.2-3.9-2.6-4-5.4c-0.2-3.1,0.7-4.5,4.1-4.5
		c11.8,0.2,23.7,0,35.5,0.1c1.7,0,3.4,0.4,5.1,0.7c4,0.7,2.2,3.8,2.4,6c0.3,2.3-1.1,3-3.2,3C315.2,100.4,308.4,100.4,301.5,100.4z"
		/>
	<path id="XMLID_133_" class="st1" d="M301.8,146.2c-6.5,0-13,0-19.4,0c-2.1,0-4.3-0.1-4.2-3c0.1-2.6-1.4-6.1,3.2-6.4
		c1-0.1,2-0.3,3-0.3c12.2,0,24.4,0.1,36.7-0.1c3.2,0,4.5,0.9,4.4,4.2c-0.2,4.6-0.7,5.5-4.6,5.5C314.5,146.2,308.2,146.2,301.8,146.2
		z"/>
	<path id="XMLID_132_" class="st1" d="M100.9,136.5c6.5,0,13,0.1,19.4-0.1c3.3-0.1,4.1,1.5,4.1,4.3c0,2.8,0,5.4-3.8,5.4
		c-12.6,0-25.2,0.1-37.8-0.1c-2.4,0-6,0.6-5.7-4.2c0.3-5.3,0.1-5.3,5.5-5.3C88.6,136.5,94.7,136.5,100.9,136.5z"/>
	<path id="XMLID_131_" class="st1" d="M251.8,159c6.5,0,13,0,19.4,0c2.2,0,4.2,0.3,3.9,3.1c-0.3,2.3,1.7,5.9-3.1,6.1
		c-1.1,0-2.2,0.5-3.3,0.5c-11.7,0-23.4,0.1-35.1,0c-2.9,0-5.9-0.1-5.8-4.5c0.1-4.9,0.2-5.2,5.3-5.2C239.3,159,245.6,159,251.8,159z"
		/>
	<path id="XMLID_130_" class="st1" d="M201.6,100.4c-6.4,0-12.7,0.1-19.1,0c-4.4-0.1-4.8-0.7-4.9-5c-0.1-3.7,1.6-4.8,5-4.7
		c12.1,0.1,24.2,0,36.3,0.1c5.1,0,5.8,0.9,6,5.3c0.2,3.6-1.3,4.5-4.6,4.4C214.1,100.3,207.8,100.5,201.6,100.4z"/>
	<path id="XMLID_129_" class="st1" d="M201.6,159c6.2,0,12.5,0.2,18.7-0.1c3.9-0.2,4.4,2.1,4.5,4.8c0.1,2.9-1,5.1-4.5,5.1
		c-3.5-0.1-7,0-10.5,0c-9,0-18,0.1-26.9,0c-2.6,0-5.4,0.2-5.3-3.9c0.2-4.6,1.1-5.7,5.3-5.7C189.1,159,195.3,159,201.6,159z"/>
	<path id="XMLID_128_" class="st1" d="M76.9,147.7c6.4,0,12.7,0.1,19.1,0c3.6-0.1,4.3,1.8,4.4,4.9c0.1,3.4-1.4,4.2-4.5,4.2
		c-5.7-0.1-11.3,0.1-17,0.6c-2.9,0.2-5.9-0.6-8.9-0.7c-4.6-0.2-9.1,0.9-13.8,0.9c-2.4,0-4-0.4-4.1-3.4c-0.1-5.1,0.3-6.2,4-6.3
		C63.2,147.6,70.1,147.8,76.9,147.7C76.9,147.7,76.9,147.7,76.9,147.7z"/>
	<path id="XMLID_127_" class="st1" d="M277.3,89.2c-6.4,0-12.7,0-19.1,0c-2.4,0-4.7-0.1-4.7-3.3c0-4.8,0.8-5.4,4.6-5.8
		c8.7-0.8,17.4-0.7,26.1-0.6c4.5,0,8.9,0.6,13.4,0.7c3.6,0.1,3,2.5,3.1,4.7c0.1,2.2,0.1,4.3-3.1,4.3C290.8,89.1,284,89.2,277.3,89.2
		z"/>
	<path id="XMLID_126_" class="st1" d="M226.9,147.7c6.4,0,12.7,0,19.1,0c4.5,0,6.9,4.3,4.8,8.4c-1,1.9-2.9,1.5-4.3,1.3
		c-6.2-1.2-12.5-0.9-18.6-0.6c-7.4,0.4-14.8,0.2-22.3,0.2c-1.1,0-1.5-0.3-1.9-1.2c-1.9-4.2,0.4-8.1,4.9-8.1
		C214.7,147.7,220.8,147.7,226.9,147.7z"/>
	<path id="XMLID_125_" class="st1" d="M76.1,57c6.1,0,12.2,0,18.4,0c5.3,0,6.3,1.2,6,6.5c-0.1,2-1,2.6-2.8,2.5c-4.5-0.1-9,0-13.5,0
		c-7.1-0.1-14.2,0-21.3,0.8c-2.9,0.3-5.7-0.4-8.5-0.9c-3.6-0.5-1.5-3.6-1.9-5.5C52,57.9,53.7,57,55.8,57c5.1-0.1,10.2,0,15.4,0
		C72.8,57,74.4,57,76.1,57z"/>
	<path id="XMLID_124_" class="st1" d="M213.1,79.5c6.2-0.3,12.4,1.3,18.6,0.7c5.3-0.5,10.6-1,16-0.8c1.6,0.1,3.6-0.2,3.3,2.3
		c-0.3,2.6,1.4,6-2.5,7.4c-0.2,0.1-0.5,0.1-0.7,0.1c-8-1.7-16,1-24.1-0.5c-4.9-1-9.9,1.1-14.9,0.6c-1.9-0.2-4.5,0.6-5.2-1.7
		c-0.7-2.3,0.2-4.9,1.2-7.1c0.4-1,1.4-0.8,2.3-0.8C209.1,79.5,211.1,79.5,213.1,79.5z"/>
	<path id="XMLID_123_" class="st1" d="M251,68.2c6,0.4,13.3-0.4,20.7,0.5c3.9,0.5,3.4,2.7,3.5,5.2c0.2,3-1.9,3.7-4.1,3.8
		c-6.2,0.2-12.4,0.4-18.6,0.1c-7.2-0.3-14.4-1.1-21.6-0.3c-2.5,0.3-3.2-1.9-3-4.2c0.3-2.2-0.4-5.1,3.3-5.1
		C237.3,68.2,243.4,68.2,251,68.2z"/>
	<path id="XMLID_122_" class="st1" d="M177.1,89.2c-6.5,0-13-0.2-19.5,0.1c-4,0.2-4-2.1-4.1-5c-0.1-2.9,0.5-4.4,3.8-4.2
		c8.8,0.7,17.6-1.1,26.5-0.7c4.6,0.2,9.2,0.5,13.8,0.7c1.7,0.1,2.6,0.7,2.5,2.4c0,1.1-0.1,2.3,0,3.4c0.2,2.4-0.8,3.3-3.2,3.2
		C190.3,89.1,183.7,89.2,177.1,89.2z"/>
	<path id="XMLID_121_" class="st1" d="M327.4,57c6.5,0,13,0.1,19.5,0c3.5-0.1,4.7,1.6,4.7,4.7c0,2.9-1.1,4.7-4.5,4.4
		c-5-0.5-10,0.8-14.9,0.6c-8.3-0.4-16.7-0.7-25-0.6c-2.1,0-2.8-0.8-2.9-2.8c-0.2-6.2-0.3-6.2,5.9-6.2C315.9,57,321.7,57,327.4,57z"
		/>
	<path id="XMLID_120_" class="st1" d="M288.6,111.7c-10.2,0-20.4-0.1-30.6,0c-2.7,0-4.4-0.5-3.9-3.7c0.3-2.5-1.1-5.3,3.6-5.5
		c13.6-0.6,27.1,0.8,40.7,0.1c3.2-0.2,3.1,1.8,2.9,3.9c-0.1,2.2,0.9,5.1-3,5.1C295.1,111.7,291.9,111.7,288.6,111.7z"/>
	<path id="XMLID_119_" class="st1" d="M76.2,125.2c6.6,0,13.2,0.2,19.8-0.1c3.6-0.1,4.4,1.4,4.4,4.7c0,3.1-0.8,4.5-4.2,4.5
		c-12.9-0.2-25.7,0-38.6-0.1c-4.9,0-6.9-3.1-5.2-7.7c0.6-1.7,2-1.3,3.1-1.3C62.5,125.2,69.3,125.2,76.2,125.2z"/>
	<path id="XMLID_118_" class="st1" d="M150.9,114c6.5,0,13,0.1,19.5,0c3.6-0.1,4.3,1.8,4.3,4.9c0,3.1-1.1,4.1-4.2,4.1
		c-10-0.1-20,0.1-30-0.1c-3.2,0-6.2,0.8-9.3,0.8c-1.9,0-4,0.1-4.3-2.5c-0.5-5,0.7-7.1,4.1-7.2C137.7,113.9,144.3,114,150.9,114
		C150.9,114,150.9,114,150.9,114z"/>
	<path id="XMLID_117_" class="st1" d="M328.4,147.7c6.2,0,12.5,0,18.7,0c3.4,0,4.6,1.8,4.5,6.1c0,3-1.6,3.9-4.3,3.6
		c-13.2-1.1-26.4-0.8-39.5-0.7c-2.6,0-3.6-0.8-3.4-3.4c0.2-2.6-0.6-5.6,3.5-5.6C314.7,147.7,321.6,147.8,328.4,147.7
		C328.4,147.7,328.4,147.7,328.4,147.7z"/>
	<path id="XMLID_116_" class="st1" d="M251.2,122.9c-6.5,0-13-0.2-19.5,0.1c-3.8,0.1-3.8-2-3.9-4.8c-0.1-2.9,0.6-4.4,4-4.3
		c9.7,0.2,19.5,0,29.2,0.1c3.8,0,7.5-1,11.5-0.2c4.3,0.9,2.2,3.8,2.6,5.8c0.4,2.3-0.9,3.4-3.3,3.4
		C264.9,122.9,258.1,122.9,251.2,122.9z"/>
	<path id="XMLID_115_" class="st1" d="M377.5,147.7c6.5,0,13,0,19.5,0c2.8,0,5,0.5,4.9,4c-0.1,3.9-1.2,5-5.2,5
		c-12.8,0-25.7-0.1-38.5,0.1c-3.7,0.1-4.4-1.5-4.4-4.7c0-3.1,0.8-4.6,4.2-4.4C364.5,147.9,371,147.7,377.5,147.7z"/>
	<path id="XMLID_114_" class="st1" d="M177.3,147.7c6.4,0,12.7,0,19.1,0c3.8,0,3.8,0.6,3.8,6.6c0,3.4-2,3.3-4.2,3
		c-10.8-1.5-21.7-0.4-32.5-0.6c-2.4-0.1-4.8,0.7-7.4,0.1c-4.4-1-2.1-4.1-2.4-6.3c-0.4-2.3,1.3-2.9,3.3-2.9
		C163.8,147.8,170.5,147.7,177.3,147.7z"/>
	<path id="XMLID_113_" class="st0" d="M50.8,114c6.7,0,13.5,0.1,20.2,0c2.6-0.1,3.4,1.1,3.1,3.4c-0.3,2.2,1.3,5.6-2.9,5.6
		c-13.9,0.1-27.7,0-41.6,0.1c-3.7,0-2.5-2.6-2.7-4.5c-0.2-2.3-0.2-4.6,3.3-4.5C37,114.1,43.9,114,50.8,114z"/>
	<path id="XMLID_112_" class="st1" d="M301.8,54.7c-6.6,0-13.2-0.2-19.8,0.1c-4.1,0.1-3.8-2.4-3.9-5.1c-0.1-2.7,0.5-4,3.7-4
		c13.3,0.2,26.7,0.2,40,0c3.1,0,3.8,1.2,3.7,3.9c-0.1,2.7,0.3,5.3-3.8,5.2C315,54.6,308.4,54.7,301.8,54.7z"/>
	<path id="XMLID_111_" class="st1" d="M377.9,102.7c6.7,0,13.5,0.1,20.2,0c2.6-0.1,3.4,1.1,3.1,3.4c-0.3,2.2,1.3,5.6-2.9,5.6
		c-13.9,0.1-27.7,0.1-41.6,0c-3.6,0-2.7-2.8-2.8-4.9c-0.1-2.2,0-4.1,3-4C363.9,102.8,370.9,102.7,377.9,102.7
		C377.9,102.7,377.9,102.7,377.9,102.7z"/>
	<path id="XMLID_110_" class="st0" d="M100.6,122.9c-6.7,0-13.5-0.1-20.2,0.1c-3.2,0.1-3.5-1.5-3.3-3.9c0.2-2.4-0.7-5.2,3.4-5.1
		c13.5,0.1,26.9,0.1,40.4,0c3.7,0,3.4,2.3,3.4,4.8c0.1,2.6-0.3,4.4-3.6,4.3C114.1,122.8,107.4,122.9,100.6,122.9z"/>
	<path id="XMLID_109_" class="st0" d="M351.9,122.9c-6.6,0-13.2-0.1-19.8,0.1c-2.7,0.1-4-0.6-3.7-3.5c0.3-2.4-1-5.5,3.4-5.5
		c13.5,0.1,26.9,0.1,40.4,0c3.7,0,3.4,2.3,3.4,4.8c0.1,2.6-0.3,4.3-3.6,4.3C365.4,122.8,358.6,122.9,351.9,122.9z"/>
	<path id="XMLID_108_" class="st1" d="M251.4,145.5c-6.6,0-13.2-0.1-19.9,0.1c-3.5,0.1-3.7-1.9-3.7-4.6c0-2.7,0.2-4.6,3.7-4.5
		c13.4,0.1,26.7,0.1,40.1,0c3.7,0,3.5,2.3,3.5,4.7c0.1,2.5-0.2,4.4-3.5,4.3C264.9,145.4,258.1,145.5,251.4,145.5z"/>
	<path id="XMLID_107_" class="st1" d="M226.8,111.7c-6.6,0-13.2,0-19.8,0c-1.6,0-3.5,0.4-3.6-2.1c-0.3-4.1,1.1-6.9,3.8-6.9
		c13.6-0.1,27.2,0,40.7,0c3.4,0,3.2,2.4,3.3,4.7c0.1,2.7-0.8,4.4-3.8,4.3C240.5,111.7,233.6,111.7,226.8,111.7z"/>
	<path id="XMLID_106_" class="st1" d="M277.4,125.2c6.6,0,13.2,0.1,19.8-0.1c3-0.1,3.7,1.2,3.4,3.8c-0.2,2.3,0.9,5.3-3.3,5.3
		c-13.1-0.1-26.2,0-39.3-0.1c-4.2,0-6.3-3.9-4.5-7.8c0.7-1.5,2.1-1.1,3.3-1.1C263.7,125.2,270.5,125.2,277.4,125.2z"/>
	<path id="XMLID_105_" class="st1" d="M151.4,91.5c6.6,0,13.2,0.1,19.9-0.1c3.1-0.1,3.6,1.3,3.4,3.9c-0.2,2.3,0.8,5.3-3.3,5.2
		c-13.5-0.1-27-0.1-40.5,0c-3,0-3.7-1.5-3.5-4c0.2-2.4-0.1-5.2,3.8-5.1C137.9,91.5,144.6,91.5,151.4,91.5z"/>
	<path id="XMLID_104_" class="st1" d="M251.9,91.5c6.5,0,13,0.1,19.4,0c3.4-0.1,3.8,1.6,3.8,4.4c0,2.9-0.3,4.7-4,4.7
		c-13.2-0.2-26.4-0.1-39.6,0c-2.7,0-4.1-0.9-3.7-3.7c0.3-2.5-0.3-5.5,3.8-5.4C238.4,91.5,245.2,91.5,251.9,91.5z"/>
	<path id="XMLID_103_" class="st1" d="M277,156.7c-6.7,0-13.5,0-20.2,0c-1.6,0-3.6,0.3-3.3-2.2c0.2-2.2-1.5-5.3,2.4-6.1
		c1.6-0.3,3.1-0.7,4.8-0.7c11.8,0,23.7,0,35.5,0c1.5,0,3.6-0.5,4.2,1.5c0.6,2.1,0.7,4.5-0.1,6.6c-0.4,1.2-2,0.8-3,0.8
		C290.5,156.7,283.7,156.7,277,156.7z"/>
	<path id="XMLID_102_" class="st1" d="M150.7,145.5c-6.5,0-13,0-19.5,0c-1.8,0-3.8,0.1-3.8-2.5c0-2.3-0.4-4.8,2.5-6
		c1.3-0.5,2.7-0.5,4.1-0.5c12.1,0,24.2,0.1,36.2-0.1c3.5-0.1,4.5,1.2,4.5,4.6c0,3.4-1,4.7-4.5,4.6
		C163.7,145.3,157.2,145.5,150.7,145.5z"/>
	<path id="XMLID_101_" class="st1" d="M100.8,91.5c6.6,0,13.2,0.1,19.8-0.1c3.4-0.1,3.9,1.6,3.9,4.4c0,2.8-0.2,4.8-3.9,4.7
		c-12.6-0.2-25.2-0.1-37.7-0.1c-2.4,0-4.6-0.6-5.5-3.1c-1.5-4,0-5.9,4.4-5.9C88,91.4,94.4,91.5,100.8,91.5z"/>
	<path id="XMLID_100_" class="st1" d="M125.4,102.7c6-0.4,13.2,0.6,20.4-0.7c2.2-0.4,4.6-0.3,4.8,3.1c0.2,4-1.3,6.4-4.4,6.5
		c-5.2,0.1-10.5-0.7-15.6-0.4c-6.3,0.3-12.7,0.2-19,0.5c-1,0-2,0-3,0c-4.8-0.3-6.4-2.6-5.2-7.4c0.5-2,2-1.6,3.3-1.6
		C112.5,102.7,118.4,102.7,125.4,102.7z"/>
	<path id="XMLID_99_" class="st1" d="M251.5,32.2c-6.6,0-13.2-0.1-19.8,0.1c-3.8,0.1-3.8-2.1-3.8-4.8c-0.1-2.9,0.6-4.5,3.9-4.3
		c8.1,0.5,16.1-0.1,24.2,0.5c4.8,0.4,9.9-0.3,14.9-0.5c3.7-0.2,4.4,1.5,4.4,4.7c0,3.2-0.9,4.5-4.3,4.4
		C264.5,32.1,258,32.2,251.5,32.2z"/>
	<path id="XMLID_98_" class="st1" d="M177.3,125.2c6.5,0,13,0.2,19.5-0.1c3.9-0.2,3.4,2.2,3.4,4.6c0,2.4,0.4,4.6-3.4,4.6
		c-13.2-0.2-26.5-0.2-39.7,0c-3.9,0.1-3.4-2.2-3.4-4.6c0-2.4-0.4-4.7,3.4-4.6C163.8,125.4,170.5,125.2,177.3,125.2z"/>
	<path id="XMLID_97_" class="st1" d="M176.9,34.5c6.5,0,13,0.2,19.4-0.1c4.2-0.1,3.7,2.5,3.8,5.1c0.1,2.7-0.4,4-3.6,4
		c-13.1-0.2-26.2-0.2-39.2,0c-4.3,0.1-3.5-2.5-3.7-5.1c-0.2-3,0.6-4.2,3.9-4.1C163.9,34.6,170.4,34.5,176.9,34.5z"/>
	<path id="XMLID_96_" class="st1" d="M227.1,34.5c6.6,0,13.2,0.1,19.8-0.1c2.9-0.1,3.8,1.1,3.5,3.7c-0.3,2.3,1,5.3-3.2,5.3
		c-13.6,0-27.2,0-40.7,0c-2,0-2.5-0.8-2.6-2.7c-0.3-6.4-0.4-6.4,6.1-6.4C215.6,34.5,221.4,34.4,227.1,34.5
		C227.1,34.5,227.1,34.5,227.1,34.5z"/>
	<path id="XMLID_95_" class="st1" d="M126.6,66c-6.6,0-13.3-0.1-19.9,0.1c-3.1,0.1-3.5-1.4-3.3-3.9c0.2-2.4-0.7-5.2,3.4-5.2
		c13.4,0.1,26.7,0.1,40.1,0c3.8,0,3,2.5,3,4.6c0,2.1,0.7,4.6-3.1,4.5C140.1,65.8,133.3,66,126.6,66z"/>
	<path id="XMLID_94_" class="st1" d="M176.8,111.7c-6.5,0-13-0.2-19.5,0.1c-3.5,0.1-3.9-1.5-3.7-4.3c0.2-2.4-0.6-4.9,3.5-4.9
		c13.2,0.2,26.5,0.1,39.7,0c2.7,0,3.6,1.1,3.3,3.6c-0.3,2.4,1,5.6-3.4,5.5C190.1,111.6,183.5,111.7,176.8,111.7z"/>
	<path id="XMLID_93_" class="st1" d="M126.8,125.2c6.6,0,13.3,0.2,19.9-0.1c4.1-0.1,3.1,2.6,3.2,4.8c0.1,2.3,0.4,4.4-3.3,4.3
		c-13.2-0.2-26.5-0.1-39.7,0c-4.4,0-3.2-3-3.5-5.4c-0.3-2.8,0.8-3.7,3.6-3.6C113.6,125.3,120.2,125.2,126.8,125.2z"/>
	<path id="XMLID_92_" class="st0" d="M200.9,114c6.7,0,13.5,0.1,20.2-0.1c3.8-0.1,3.1,2.3,3.1,4.5c0,2.1,0.8,4.6-3,4.6
		c-13.3-0.1-26.7-0.1-40,0c-3.3,0-3.6-1.8-3.5-4.3c0.1-2.4-0.3-4.8,3.4-4.8C187.7,114.1,194.3,114,200.9,114z"/>
	<path id="XMLID_91_" class="st1" d="M327.6,102.7c6.7,0,13.5,0.1,20.2,0c2.6-0.1,3.4,1.1,3,3.4c-0.3,2.2,1.3,5.6-2.8,5.6
		c-13.6,0.1-27.2,0.1-40.8,0c-4.2,0-2.5-3.4-2.9-5.6c-0.3-2.3,0.4-3.4,3-3.4C314.1,102.8,320.9,102.7,327.6,102.7z"/>
	<path id="XMLID_90_" class="st1" d="M201,32.2c-6.5,0-13-0.1-19.5,0.1c-3.3,0.1-4-1.5-3.9-4.3c0.1-2.7,0-4.8,3.8-4.8
		c13.1,0.2,26.2,0.2,39.3,0c3.8-0.1,3.5,2.1,3.5,4.5c0,2.3,0.5,4.8-3.4,4.6C214.2,32,207.6,32.2,201,32.2z"/>
	<path id="XMLID_89_" class="st1" d="M277.2,43.5c-6.6,0-13.2-0.2-19.8,0.1c-3.6,0.1-3.4-2-3.3-4.3c0.1-2.2-0.9-4.9,3.1-4.8
		c13.2,0.2,26.4,0.2,39.7,0c3.9,0,3.7,2.2,3.8,4.9c0.1,3-0.7,4.3-4,4.3C290.2,43.3,283.7,43.5,277.2,43.5z"/>
	<path id="XMLID_88_" class="st1" d="M226.9,66c-6.6,0-13.2-0.1-19.8,0.1c-2.9,0.1-3.4-1.3-3.2-3.7c0.2-2.3-1.1-5.4,3.1-5.4
		c13.4,0,26.9,0,40.3,0c4.2,0,2.8,3.3,3,5.5c0.3,2.5-0.5,3.6-3.3,3.6C240.4,65.9,233.6,66,226.9,66z"/>
	<path id="XMLID_87_" class="st1" d="M52.4,106.4c-0.7-3.1,1-3.8,4.1-3.8c13.2,0.1,26.5,0.2,39.7,0c3.7,0,4.1,2.1,4.1,4.8
		c0,2.7-1.2,4.7-4.3,4.3c-9.9-1.3-19.9,0.8-29.8,0c-3.8-0.3-7.7-0.5-11.5-0.8C52.4,110.7,52.4,110.7,52.4,106.4z"/>
	<path id="XMLID_86_" class="st0" d="M352.4,136.5c6.5,0,13,0.1,19.4,0c3-0.1,4,1.2,3.8,4c-0.1,2.7,0.6,5.7-3.8,5.8
		c-7.6,0-15.1-0.2-22.7-1.2c-4.9-0.7-10-0.2-14.9-0.3c-2.1,0-3.9-0.3-4.9-2.6c-1.9-4.2-1.1-5.6,3.6-5.6
		C339.4,136.5,345.9,136.5,352.4,136.5z"/>
	<path id="XMLID_85_" class="st1" d="M327.2,43.5c-6.5,0-13-0.1-19.5,0c-2.7,0-4.6-0.3-3.5-3.7c0.3-1,0.1-2.2,0.1-3.4
		c0-1.5,0.9-2.1,2.2-1.8c8.8,1.9,17.6-0.2,26.4-0.2c5,0,10,0.6,14.9-0.5c1.6-0.4,2.5,0.4,3.1,2c1.7,4.6-0.2,7.6-5.1,7.6
		C339.7,43.5,333.4,43.5,327.2,43.5z"/>
	<path id="XMLID_84_" class="st1" d="M26.2,134.2c-6.4,0-12.7,0-19.1,0c-2,0-4.2,0.3-4.2-2.8c-0.1-3.1,2-6.1,4.5-6.2
		c3.7-0.1,7.5,0,11.2,0c9.1,0,18.2,0.2,27.3-0.1c3.8-0.1,3.5,2.1,3.4,4.5c0,2.3,0.5,4.8-3.4,4.6C39.4,134,32.8,134.2,26.2,134.2z"/>
	<path id="XMLID_83_" class="st1" d="M301.4,123c-6.7,0-13.5,0-20.2,0c-1.8,0-3.6,0.2-3.8-2.4c-0.3-3.3,1.3-6.1,3.7-6.6
		c5.2-1.1,10.4,0.1,15.5,0.2c7.2,0.1,14.5,2.2,21.7-0.1c0.8-0.2,1.7-0.1,2.6-0.1c1.4,0.1,3.3-0.6,4,1.1c0.9,2.2,0.7,4.7,0.1,7
		c-0.4,1.3-1.9,0.8-3,0.8C315.2,123,308.3,123,301.4,123z"/>
	<path id="XMLID_82_" class="st1" d="M26.6,57c6.5,0,13,0.2,19.4-0.1c3.9-0.2,3.3,2.3,3.4,4.6c0.1,2.4,0.3,4.6-3.4,4.5
		c-11.8-0.2-23.7,0-35.5-0.1c-4.4,0-7.3-2.1-7.5-5.1c-0.2-2.6,0.6-4,3.5-3.9C13.1,57,19.8,57,26.6,57z"/>
	<path id="XMLID_81_" class="st1" d="M163.3,9.7c-10.8,0-21.6,0-32.4,0c-1.5,0-3.8,0.6-3.4-2c0.3-1.8-0.3-4.3,2.9-4.7
		c12.9-1.8,25.9-3,39-2.9c4.6,0,7,4.1,4.9,8.3c-0.6,1.2-1.7,1.4-2.8,1.4C168.8,9.7,166.1,9.7,163.3,9.7
		C163.3,9.7,163.3,9.7,163.3,9.7z"/>
	<path id="XMLID_80_" class="st1" d="M277.1,66c-6.6,0-13.2-0.1-19.8,0.1c-3.3,0.1-4-1.4-4-4.3c0-2.8,0.8-3.9,3.8-4.1
		c9-0.7,17.9-0.6,26.9-0.7c4.6-0.1,9.1,1.2,13.8,0.8c3.6-0.3,2.7,2.4,2.8,4.3c0.1,2,0.3,4-2.9,3.9C290.9,65.9,284,66,277.1,66z"/>
	<path id="XMLID_79_" class="st1" d="M352,100.4c-6.7,0-13.5-0.2-20.2,0.1c-3.9,0.2-3.3-2.3-3.4-4.6c-0.1-2.5-0.3-4.8,3.5-4.5
		c5.6,0.5,11.3-0.6,16.9,2c3.2,1.5,7.2,0.2,10.5-1.3c4.5-2,9.1-1.5,13.7-1.2c4.1,0.3,2.4,3.9,2.7,6.2c0.3,2.4-1,3.3-3.4,3.3
		C365.5,100.4,358.8,100.4,352,100.4z"/>
	<path id="XMLID_78_" class="st1" d="M308.5,168.7c-6,0.5-13.5-0.4-20.9-1.4c-1.7-0.2-2.7-1-3.6-2.3c-0.7-1.1-1.6-2-3-1.6
		c-0.8,0.2-1.6,1.3-2.1-0.2c-0.3-1-0.2-2,0.6-2.8c1.1-1,2.4-1.3,3.8-1.3c13,0,26,0,39,0c2.3,0,3.2,0.9,3,3.1c-0.1,1.1-0.1,2.3,0,3.4
		c0.1,2.4-1,3.4-3.4,3.3C318,168.6,314,168.7,308.5,168.7z"/>
	<path id="XMLID_77_" class="st1" d="M100.6,168c-6.7,0-13.5-0.1-20.2,0.1c-2.8,0.1-3.6-1.1-3.2-3.6c0.3-2.2-1.2-5.5,3-5.5
		c12.1,0,24.2,0,36.3,0c1.3,0,2.5,0.1,2.7,1.8c0.2,1.3,1,1.9,2.4,1.5c2.4-0.8,2.7,0.6,2.8,2.5c0.1,2.1-0.4,3.3-2.9,3.2
		C114.6,167.9,107.6,168,100.6,168z"/>
	<path id="XMLID_76_" class="st1" d="M126.5,34.5c6.7,0,13.5,0.2,20.2-0.1c4.1-0.1,3,2.6,3.1,4.8c0.1,2.3,0.4,4.4-3.3,4.3
		c-12-0.2-24,0-35.9-0.1c-4.2,0-6.6-2.5-7.2-6.7c-0.3-2.4,1.2-2.3,2.8-2.3C113,34.5,119.8,34.5,126.5,34.5z"/>
	<path id="XMLID_75_" class="st1" d="M137.5,156.7c-8.6-1.1-17.4,0.5-26-0.7c-0.8-0.1-1.7,0.3-2.5,0.5c-3.6,0.7-7.2-3.3-6.2-6.8
		c0.3-0.9,0.9-1.1,1.7-1.2c1.8-0.2,3.7-0.7,5.5-0.7c11.6-0.1,23.2,0,34.9-0.1c3.1,0,5.2,0.4,5.2,4.4c0,3.9-1.8,4.7-5,4.6
		C142.5,156.6,140,156.7,137.5,156.7z"/>
	<path id="XMLID_74_" class="st1" d="M176.5,66c-6.6,0-13.2-0.1-19.8,0.1c-3.4,0.1-3.1-1.9-3.1-4.1c0-2.1-0.5-4.1,3-4.3
		c11.2-0.6,22.4-0.7,33.6-0.6c2.7,0,5.5,0.2,8.1,0.8c3.4,0.7,1.4,3.7,1.8,5.6c0.4,1.9-0.8,2.6-2.6,2.6C190.5,65.9,183.5,66,176.5,66
		z"/>
	<path id="XMLID_73_" class="st1" d="M126.3,21c-6.7,0-13.5,0-20.2,0c-1.2,0-2.7,0.5-3.3-1c-0.5-1.4,0.3-2.8,1.3-3.7
		c2.6-2.4,5.6-4.2,9.3-4.2c11.1,0,22.2,0.1,33.3-0.1c4.1-0.1,3,2.7,3.1,4.9c0.2,2.4,0.2,4.4-3.3,4.3C139.8,20.8,133.1,21,126.3,21z"
		/>
	<path id="XMLID_72_" class="st1" d="M176.9,21c-6.6,0-13.2-0.1-19.8,0c-2.6,0.1-3.5-0.7-3.5-3.4c0-6.4-0.1-6.3,6.3-6.4
		c8.9-0.2,17.7,0.8,26.5,1c4.1,0.1,8.1,2.2,12.1,3.5c1.8,0.6,1.8,2.2,1.6,3.8c-0.3,1.8-1.7,1.5-2.9,1.5C190.4,21,183.6,21,176.9,21z
		"/>
	<path id="XMLID_71_" class="st1" d="M200.6,54.7c-6.4,0-12.7-0.1-19.1,0.1c-3.4,0.1-3.9-1.5-3.9-4.4c0-2.8,0.2-4.7,3.9-4.8
		c10-0.3,19.9,1,29.9,0.8c2.6,0,5.2,0.1,7.8-0.6c3.2-0.8,5.4,0.8,5.6,3.3c0.3,3.6-1.3,5.5-4.7,5.5C213.6,54.7,207.1,54.7,200.6,54.7
		z"/>
	<path id="XMLID_70_" class="st1" d="M227.5,125.2c6.6,0,13.2,0.1,19.8,0c3-0.1,3.9,1.2,3.9,4c-0.1,2.8-0.4,5-3.9,5
		c-12.8,0-25.6,0.3-38.4-0.8c-2.6-0.2-4.4-2.9-4.2-6c0.2-3.2,2.6-2.1,4.2-2.2C215,125.2,221.3,125.2,227.5,125.2z"/>
	<path id="XMLID_69_" class="st1" d="M151,159c6.6,0,13.2,0,19.8,0c2,0,3.6,0.1,3.8,2.9c0.2,2.8-1.4,3.2-3.5,3.8
		c-13,4-26.4,1.7-39.7,2.3c-3.6,0.2-4.2-1.8-4.2-5c0-3.1,1.2-4.1,4.2-4.1C138,159.1,144.5,159,151,159z"/>
	<path id="XMLID_68_" class="st1" d="M302,68.9c6.7,0,13.5,0.2,20.2-0.1c3.7-0.1,3.1,2.2,3.2,4.4c0.1,2.4-0.1,3.8-3.3,4
		c-10,0.8-19.9-0.3-29.9-0.2c-3.4,0-6.7,0.8-10,0.8c-4.1,0.1-4-2.4-4.2-5.4c-0.2-3.2,1.3-3.7,4-3.7C288.7,69,295.3,68.9,302,68.9z"
		/>
	<path id="XMLID_67_" class="st1" d="M328.1,125.2c6.6,0,13.2,0.1,19.8,0c2.7-0.1,3.1,1.3,3,3.5c-0.1,1.9,0.5,3.9-2.7,4.1
		c-13.4,1.1-26.7,1.8-40.2,1.5c-2.4-0.1-4.5,0-4.4-3.4c0.1-4.1,1.2-5.6,4.7-5.6C314.9,125.2,321.5,125.2,328.1,125.2z"/>
	<path id="XMLID_66_" class="st1" d="M126.5,171c6.7,0,13.5,0,20.2,0c1.5,0,3.4-0.1,3.1,2.1c-0.3,2.1,1.8,5.2-2,6.2
		c-1.6,0.5-3.2,0.8-4.8,0.6c-7.4-1.1-14.9-1-22.3,0c-5,0.6-9.9-0.7-14.9-0.9c-2.8-0.1-3.4-2.3-3.2-4.9c0.3-2.6,1.7-3.2,4.1-3.2
		C113.3,171,119.9,171,126.5,171z"/>
	<path id="XMLID_65_" class="st1" d="M217.1,78c-7.9-1.4-15.9-0.5-23.9-0.7c-3.6-0.1-7.1,1-10.8,0.7c-4.2-0.3-6.4-3.8-4.5-7.6
		c0.6-1.2,1.7-1.4,2.8-1.4c13.6,0,27.2,0,40.8,0c1.3,0,2.8,0.2,2.5,1.9c-0.3,2.1,1.6,4.9-1.5,6.3C220.9,77.9,219,78.2,217.1,78z"/>
	<path id="XMLID_64_" class="st1" d="M126.2,80.2c6.7,0,13.5,0.1,20.2,0c2.5,0,3.8,0.6,3.5,3.3c-0.2,2.5,0.7,5.6-3.4,5.7
		c-2.6,0-5.3,0.3-7.8,0c-10.4-1.3-20.9-0.4-31.3-0.7c-2.9-0.1-5.8-4.9-4.4-7.4c0.7-1.2,2-0.8,3-0.8
		C112.8,80.2,119.5,80.2,126.2,80.2z"/>
	<path id="XMLID_63_" class="st1" d="M151.9,54.7c-6.4,0-12.7,0-19.1,0c-1.5,0-3.3,0.2-1.8-2.2c0.1-0.1,0.1-0.2,0.1-0.4
		c0.4-1.9-0.8-4.4,0.7-5.7c1.8-1.6,4.6-0.6,6.9-0.6c10.6-0.1,21.2,0.1,31.8-0.1c4.3-0.1,4.1,2.3,4.2,5.2c0.2,3.3-1.1,4-4.1,3.9
		C164.3,54.6,158.1,54.7,151.9,54.7z"/>
	<path id="XMLID_62_" class="st1" d="M327.5,179.2c-6.6,0-13.2-0.1-19.9,0.1c-3.1,0.1-3.5-1.5-3.3-3.9c0.1-2.2-0.5-4.5,3.2-4.5
		c9.6,0.2,19.1,0,28.7,0.1c3.4,0,6.7-0.5,10-0.7c2.3-0.1,5.1-0.1,5.3,3.3c0.3,4.1-1.3,5.7-5.3,5.7
		C340,179.2,333.8,179.2,327.5,179.2z"/>
	<path id="XMLID_61_" class="st1" d="M100.8,69c6.4,0,12.7,0,19.1,0c3.5,0,4.5,1.2,4.5,5.1c0,3.2-1.9,4.2-4.6,3.9
		c-10.9-1.4-21.9-0.4-32.9-0.7c-1.5,0-3,0.1-4.5,0.4c-3.5,0.6-5.1-0.4-5.3-3.3c-0.3-4.2,0.6-5.3,4.5-5.3C88,68.9,94.4,69,100.8,69z"
		/>
	<path id="XMLID_60_" class="st1" d="M62.1,80.2c8.3-0.1,16.6-1.2,25-0.7c3.6,0.2,7.2,0.5,10.8,0.7c1.7,0.1,2.5,1,2.5,2.6
		c0,1.8,0.4,4.1-2,4.7c-2.4,0.6-4.9,0.7-7.4,0.9c-1.5,0.1-3.2,0.5-3-2.3c0.1-1.6-1.7-1.4-2.9-1.4c-1.2,0-2.6,0.2-2.4,1.7
		c0.3,2-0.7,2-2.1,2c-8.1,0-16.2-0.3-24.2,0.7c-4,0.5-4-1.9-4.1-4.9c-0.1-2.9,0.5-4.5,3.8-4.2C58.1,80.4,60.1,80.2,62.1,80.2z"/>
	<path id="XMLID_59_" class="st1" d="M50.2,68.9c6.7,0,13.5,0.1,20.2,0c3.2-0.1,3.7,1.5,3.7,4.2c0,2.6-0.5,4.2-3.7,4.2
		c-13.4-0.1-26.7-0.1-40.1,0c-3.6,0-3.5-2.1-3.6-4.7c-0.1-2.7,0.7-3.8,3.6-3.7C37,69.1,43.6,68.9,50.2,68.9z"/>
	<path id="XMLID_58_" class="st1" d="M151,69c6.6,0,13.2,0.1,19.8-0.1c3.4-0.1,3.8,1.6,3.9,4.4c0,2.9-1,4-3.9,3.9
		c-13.2-0.1-26.4-0.1-39.7,0c-2.8,0-3.8-1-3.7-3.7c0.1-2.6,0.3-4.7,3.8-4.6C137.8,69.1,144.4,68.9,151,69C151,69,151,69,151,69z"/>
	<path id="XMLID_57_" class="st1" d="M277.5,171c6.6,0,13.2,0.1,19.9-0.1c3.2-0.1,3.4,1.6,3.3,4c-0.1,2.2,0.5,4.5-3.2,4.4
		c-5.7-0.1-12,1.6-16.9,0.2c-8-2.4-15.4,0.8-23.1-0.1c-3.1-0.4-3.4-1.6-3.3-4c0.1-2.2-0.5-4.5,3.2-4.4
		C264,171.1,270.8,171,277.5,171z"/>
	<path id="XMLID_56_" class="st1" d="M244.2,177.6c1.3,0.7,2,1.1,3.2,1.7c-2.9,1.4-5.2-0.2-7.6-0.2c-10.6,0.2-21.2,0-31.8,0.2
		c-3.3,0.1-4.3-0.9-4.3-4.2c0-3.3,1-4.2,4.3-4.2c6.8,0,13.7-0.1,20.5-0.4c6.5-0.3,13.2,0.6,19.8,0.5c1.1,0,2,0.4,2,1.7
		c0.1,1.4,0.2,2.8-1.5,3.4C247.5,176.5,246.2,176.9,244.2,177.6z"/>
	<path id="XMLID_55_" class="st1" d="M201.2,145.5c-6.6,0-13.2-0.1-19.8,0c-3.8,0.1-3.1-2.4-3-4.5c0-2.1-0.8-4.8,3-4.5
		c11.3,0.8,22.6,0.7,33.9,0.8c2.6,0,5.1,0.9,7.3,2.5c1.3,1,1.8,2.3,1.4,4c-0.5,1.7-2,1.7-3.3,1.7
		C214.2,145.5,207.7,145.5,201.2,145.5C201.2,145.5,201.2,145.5,201.2,145.5z"/>
	<path id="XMLID_54_" class="st1" d="M227.9,50.4c-0.2-2.9,0.5-4.5,3.8-3.4c1.3,0.4,2.6,0.1,4-0.5c2.8-1.1,5.7-2.1,7,2.2
		c0.3,1.1,1.6,1.6,2.8,1.4c1.3-0.3,1.9-1.1,1.6-2.4c-0.6-2.6,1.5-2.2,2.5-1.8c6.6,2.6,13.3-0.1,19.9,0.6c1.4,0.1,2.7,0.4,3.9,1.1
		c2.1,1.3,1.9,3.4,1.6,5.4c-0.4,2-2.1,1.8-3.6,1.8c-13,0-26,0-38.9,0C229.3,54.7,227.6,53.6,227.9,50.4z"/>
	<path id="XMLID_53_" class="st1" d="M150.3,23.2c6.6,0,13.2,0,19.9,0c2.8,0,4.9,0.8,4.5,4.4c-0.2,2.2-1,3.2-3.2,3.1
		c-6-0.4-12.1,1.8-18.2-0.5c-2.1-0.8-4.9,0.1-7.3,0.6c-4.8,1.1-9.7,0.4-14.5,0.6c-3.5,0.2-3.9-2-4.1-4.9c-0.2-3.1,1.4-3.4,3.9-3.4
		C137.6,23.3,143.9,23.2,150.3,23.2C150.3,23.2,150.3,23.2,150.3,23.2z"/>
	<path id="XMLID_52_" class="st1" d="M205,181.5c4.7,0,9.5,0,14.2,0c4.8,0,5.6,0.8,5.3,5.5c-0.2,2.8-0.9,4.4-4.5,4.3
		c-9.5-0.3-19-0.1-28.4-0.1c-3.2,0-6.9-6.1-5.4-8.9c0.6-1.1,1.7-0.8,2.7-0.8C194.3,181.5,199.6,181.5,205,181.5z"/>
	<path id="XMLID_51_" class="st1" d="M50.3,54.7c-6.5,0-13-0.2-19.4,0.1c-3.6,0.1-3.9-1.8-4-4.6c-0.1-3.1,1.1-3.6,3.9-3.7
		C43.8,46,56.8,47.3,69.8,48c2.2,0.1,4.5,0.4,4.3,3.7c-0.2,3.3-2.3,3-4.5,3C63.2,54.7,56.7,54.7,50.3,54.7z"/>
	<path id="XMLID_50_" class="st1" d="M51,159c6.5,0,13,0.1,19.5-0.1c2.7-0.1,4,0.7,3.7,3.6c-0.1,1,0,2,0.2,3
		c0.5,2.3-0.6,3.2-2.8,3.2c-6.7,0-13.5,0-20.2,0c-1.6,0-3.3-0.4-4.6-1.5c-4.8-4-10.2-5.3-16.4-3.9c-1.5,0.3-2.8,0.2-2.9-1.8
		c-0.1-1.7,0.7-2.5,2.4-2.5C37,159,44,159,51,159z"/>
	<path id="XMLID_49_" class="st1" d="M27.2,144.7c-0.1-0.9-0.3-1.6-0.3-2.3c-0.2-5.8-0.1-5.9,5.6-5.9c12.4,0,24.7,0,37.1,0
		c4,0,6,3.6,4.2,7.2c-0.5,1-1.4,1.9-2.7,1.6c-5.2-1.1-10.5-0.6-15.7-0.5c-5.4,0.1-10.6-1.1-16-1.2c-0.3,0-0.7-0.1-1-0.2
		C33.1,140.3,30.9,140.5,27.2,144.7z"/>
	<path id="XMLID_48_" class="st1" d="M397.8,100.5c-4.6,0-9.2,0.1-13.8,0c-2.1-0.1-4.7,0-4.5-3.4c0.2-4.6,1.4-6.2,5-6.2
		c8.8,0,17.7,0,26.5,0c2.9,0,4.5,0.9,4.5,4.1c0,4-1.2,5.6-4.5,5.7C406.5,100.5,402.1,100.4,397.8,100.5z"/>
	<path id="XMLID_47_" class="st1" d="M226.9,21c-6.6,0-13.2,0-19.8,0c-1.4,0-3.2,0.4-3.2-2c0-2.3,1.6-2.6,3.4-2.5
		c3.3,0.3,6.6-0.2,9.4-1.7c5.6-2.9,11.4-3.1,17.4-2.8c2.6,0.1,5.2,0,7.9,0c3.5,0.1,7.3,3.7,7.5,7c0.1,2.2-1.4,2-2.8,2
		C240.2,21,233.5,21,226.9,21z"/>
	<path id="XMLID_46_" class="st1" d="M49.4,153.2c0.7,3.2-1,4.7-4.6,4.2c-10.2-1.4-20.4-0.5-30.6-0.7c-2.4,0-3.2-0.4-2-3
		c2.8-6,2.6-6.1,9.3-6.1c7.6,0,15.1,0,22.7,0C49.1,147.8,49.4,148.1,49.4,153.2z"/>
	<path id="XMLID_45_" class="st1" d="M377,125.2c6.5,0,13,0.1,19.5-0.1c3-0.1,3.2,1.5,3.1,3.7c0,2.1,0.1,4-3,3.8
		c-8.8-0.5-17.7,0.8-26.5-0.7c-1.5-0.3-3,0.4-4.4,0.5c-2,0.1-4.4,1.4-5.4-2.2c-0.6-2.1-2.9-1.8-4.1,0.4c-0.3,0.6-0.1,1.7-1.2,1.5
		c-0.8-0.2-1-1-1.1-1.8c-0.7-4,0.3-5.2,4.4-5.2C364.5,125.2,370.8,125.2,377,125.2z"/>
	<path id="XMLID_44_" class="st1" d="M323,80.2c5.1,0,10.2,0.1,15.4,0c5.3-0.1,3.2,4.2,3.6,6.6c0.6,2.9-2.2,1.6-3.4,1.6
		c-10,0.1-19.9-0.1-29.9,0.8c-1.9,0.2-3.9,0.3-4.8-1.9c-0.9-2.1,0-4.2,0.7-6.2c0.5-1.3,1.9-0.8,3-0.8
		C312.8,80.2,317.9,80.2,323,80.2z"/>
	<path id="XMLID_43_" class="st1" d="M69.6,179.2c-3,0-5-0.2-7,0.1c-4.3,0.7-6.4-1.4-7.9-5.1c-1.1-2.7-0.4-3.1,2.2-3.3
		c9.4-0.7,18.9,0.2,28.3,0c4.1-0.1,8.1-1.2,12.2-0.1c1.8,0.5,3,0.9,3,3c0,2-0.7,3.4-2.8,3.8c-5.6,0.9-11.2,2.2-17,1.5
		c-2.4-0.3-4.8,0.1-6.1-3.4c-0.7-1.9-4.4-2.7-6.8-3.9c-0.6-0.3-1.5,0.5-1.6,1.3c-0.2,1.5-0.9,3.3,0.7,4.5
		C67.4,178.1,68.1,178.4,69.6,179.2z"/>
	<path id="XMLID_42_" class="st1" d="M347.5,181.5c5,0,10,0,15,0c2.1,0,2.7,0.5,1.7,2.6c-2.7,6.4-2.7,6.4-9.5,6.4
		c-7.6,0-15.2-0.1-22.9,0c-2.5,0-3.8-0.6-3.5-3.3c0.2-2.5-0.7-5.6,3.4-5.7C337,181.5,342.3,181.5,347.5,181.5
		C347.5,181.5,347.5,181.5,347.5,181.5z"/>
	<path id="XMLID_41_" class="st1" d="M100.9,54.7c-6.2,0-12.5,0-18.7,0c-1.2,0-2.5,0.1-3.7-0.5c-1.6-0.8-1.6-2.2-1.2-3.6
		c0.4-1.6,1.7-1.2,2.8-0.8c5.3,2,10,1.1,14.1-2.7c0.5-0.5,1.3-1,1.9-1.1c5-0.5,10.2-1.4,14.8,0.5c3.2,1.3,6.1,2.3,9.5,2.2
		c2.4,0,3.6,1.9,3.7,4c0,2.4-2.2,1.9-3.7,1.9C113.9,54.7,107.4,54.7,100.9,54.7z"/>
	<path id="XMLID_40_" class="st1" d="M392.5,175.5c-2.9,0.3-5.7-0.4-8.4-1.3c-4-1.4-7.8-1.1-10.8,1.8c-4.3,4.1-9.4,3.2-14.4,3.3
		c-5.1,0-5.3-0.2-4.9-5.3c0.1-1.7,0.7-2.7,2.5-3.1c2.2-0.5,4.5-0.9,6.7-0.6c11.3,1.5,22.7,0.3,34,0.7c1.3,0,3.4-1,3.7,1.2
		c0.2,1.8-1.9,2-3.2,2.7C396,175.8,394.2,175.4,392.5,175.5z"/>
	<path id="XMLID_39_" class="st1" d="M340.9,54.7c-3.1,0-6.2,0-9.3,0c-4.2,0.1-3-3-3.2-5.3c-0.2-2.3,0.1-3.8,3.1-3.7
		c7.7,0.2,15.4,0.1,23.2,0c3.3,0,3,1.2,1.9,3.6c-1.9,4.3-4.9,6.2-9.7,5.4C345,54.5,342.9,54.7,340.9,54.7z"/>
	<path id="XMLID_38_" class="st1" d="M60.6,90.7c3.4,0,6.7,0.1,10.1,0c2.3-0.1,3.3,0.9,3.4,3.3c0.3,6.3,0.2,6.4-6.2,6.4
		c-4.1,0-8.2-0.2-12.3,0.1c-3.2,0.2-4.9-0.9-6.1-4c-2.2-5.8-2.4-5.7,4-5.7C55.9,90.7,58.3,90.7,60.6,90.7z"/>
	<path id="XMLID_37_" class="st1" d="M110.7,32.2c-3.2,0-6.5,0-9.7,0c-2,0-4,0.1-3.6-2.8c0.3-2.5-0.4-5.9,3.3-6.1
		c6.9-0.3,13.7-0.3,20.6,0c3.7,0.1,3,3.3,3.1,5.7c0.1,2.5-1.2,3.2-3.5,3.2C117.5,32.2,114.1,32.2,110.7,32.2z"/>
	<path id="XMLID_36_" class="st1" d="M391.3,122.9c-2.9,0-5.7,0.1-8.6,0c-3.8-0.1-3.2-2.9-3.3-5.4c-0.1-2.5,0.9-3.7,3.5-3.5
		c5.7,0.4,11.4-0.5,17.1-0.7c2.1-0.1,4.8-0.1,5.9,1.5c1.1,1.6-1.3,3.2-2,4.8c-1.1,2.8-3.2,3.8-6.3,3.5
		C395.5,122.8,393.4,123,391.3,122.9C391.3,122.9,391.3,122.9,391.3,122.9z"/>
	<path id="XMLID_35_" class="st1" d="M392.1,159c2.9,0,5.7,0,8.6,0c2.2,0,4.4,0.6,4,3.2c-0.4,2.2,0.7,6-3.8,5.9
		c-5.8-0.1-11.7-0.1-17.5,0c-3.5,0-3.9-2.2-3.9-5c-0.1-2.8,0.8-4.2,3.8-4C386.1,159.1,389.1,159,392.1,159z"/>
	<path id="XMLID_34_" class="st0" d="M284.6,182.9c5.7-2,10.7-1.4,15.6-1.4c6.2-0.1,12.5,0,18.7,0c6,0,7,1.2,6.4,7
		c-0.2,2.6-1.6,3.3-3.4,1.7c-2.8-2.8-5.6-3.4-9-1.5c-1.1,0.6-2.2,0.2-3.2-0.4c-3.8-2.4-8-2.5-12.3-2.3
		C293.1,186.2,289.2,185,284.6,182.9z"/>
	<path id="XMLID_33_" class="st1" d="M391.7,145.5c-3,0-6,0-9,0c-3.7,0-3.2-2.6-3.4-5c-0.1-2.4,0.3-4.1,3.4-4.1
		c5.7,0.1,11.5,0,17.2,0.1c2.9,0,4.2,2.2,4.2,6.1c-0.1,3-2.1,2.9-4.2,2.9C397.2,145.5,394.5,145.5,391.7,145.5z"/>
	<path id="XMLID_32_" class="st1" d="M11.5,54.7c-2.7,0-5.5,0-8.2,0c-2.8,0-3.9-0.9-3.1-3.9c1-3.6,2.8-5.5,6.9-5.2
		c4.5,0.3,9,0.2,13.4,0c3.1-0.1,3.5,1.4,3.3,3.9c-0.2,2.4,0.7,5.3-3.4,5.2C17.5,54.6,14.5,54.7,11.5,54.7z"/>
	<path id="XMLID_31_" class="st1" d="M339.4,193.5c3,0,6,0.1,8.9,0c2.8-0.1,3.2,1.7,3.3,3.9c0.1,2.3,0.1,4.8-3,5
		c-3.8,0.2-7.8,0.5-11.5-0.1c-4.1-0.6-6.1-4.5-8.7-7.2c-1.2-1.3,0.3-1.6,1.3-1.6C332.9,193.4,336.1,193.5,339.4,193.5z"/>
	<path id="XMLID_30_" class="st1" d="M192.7,170.2c1.7,0,2.7,0,3.7,0c4.3-0.1,3.6,3,3.8,5.7c0.2,3.2-1.6,3.3-4,3.3
		c-2.6,0-5.2,0.6-7.8,0.6c-5.1,0.1-7.4-1.9-8.2-6.8c-0.3-1.5,0.2-2.1,1.6-2.1C185.7,170.7,189.5,170.5,192.7,170.2z"/>
	<path id="XMLID_29_" class="st0" d="M15,145.7c-3.1-1-5.3-0.9-7.5-0.3c-3,0.7-5.3,0-6.4-3.4c-1.1-3.4,0-5.4,3.6-5.4
		c5.1-0.1,10.2,0,15.3,0c1.3,0,3.1-0.3,3.5,1.4c0.5,2.2,0.7,4.5-0.2,6.6c-0.4,0.8-1.3,0.9-1.6-0.2c-1.1-4.4-4.8-3-7.5-3.2
		C12.2,141,12.2,142.5,15,145.7z"/>
	<path id="XMLID_28_" class="st1" d="M150.9,182.5c-6.6,5.7-13.4,8.1-21.1,8c-2,0-2.4-1.6-2.4-3.2c0-2-0.2-5.3,2-5.4
		C136.3,181.4,143.2,180.7,150.9,182.5z"/>
	<path id="XMLID_27_" class="st0" d="M14.9,122.9c-1.7,0-3.5,0.1-5.2,0c-1.1-0.1-2.8,0.7-3.3-0.8C6,121,7,119.8,7.7,118.8
		c2.9-4.4,9-6.7,14.1-5.5c1.5,0.3,2.1,1.2,2.1,2.6c0,1.4-0.1,2.7,0,4.1c0.2,2.3-0.8,3.1-3.1,3C18.9,122.9,16.9,122.9,14.9,122.9z"/>
	<path id="XMLID_26_" class="st1" d="M288.4,32.2c-1.5,0-3,0-4.5,0c-5.4,0-5.2,0-5.9-5.4c-0.2-2,0.1-2.3,2.1-3.1
		c8-3.2,12,3.1,17.2,6.6c1.4,0.9,0.5,1.7-0.8,1.8C293.9,32.2,291.1,32.2,288.4,32.2C288.4,32.2,288.4,32.2,288.4,32.2z"/>
	<path id="XMLID_25_" class="st1" d="M347.9,68.9c-2.5,2.9-4.5,5.1-6.4,7.4c-0.7,0.9-1.7,0.9-2.7,0.9c-2,0-4-0.1-6,0
		c-3.1,0.2-4.5-0.7-4.5-4.1c0-3.3,1.2-4.4,4.4-4.2C337.5,69.1,342.3,68.9,347.9,68.9z"/>
	<path id="XMLID_24_" class="st1" d="M49.4,84.4c0,4.5-4.3,6.7-8.3,4.1c-3-1.9-5.7-4.4-8.4-6.8c-0.4-0.4-0.9-1.1-0.9-1.5
		c0.1-0.9,1.1-0.8,1.8-0.8c4.6-0.1,9.1,0.9,13.8,0.8C50.5,80.3,48.9,83.1,49.4,84.4z"/>
	<path id="XMLID_23_" class="st0" d="M236.8,181.5c1.4,0,2.7-0.1,4.1,0c1.1,0.1,2.5-0.5,3.1,0.7c0.7,1.5-0.8,2.2-1.6,3
		c-1.4,1.4-3.2,2.4-4.5,3.9c-2.3,2.6-5.5,2-7.9,1.6c-3.2-0.6-1.9-4-2.1-6.4c-0.2-2,1-2.9,3-2.9C232.9,181.5,234.9,181.5,236.8,181.5
		z"/>
	<path id="XMLID_22_" class="st0" d="M124.3,186.3c0.3,2.6,0,5-3.4,4.8c-2.7-0.1-6.1,0.6-6.4-3.8c0-0.1,0-0.2,0-0.4
		c0-1.9-3-4.3-1.1-5.1c2.9-1.2,6.6-1,9.8,0C125.1,182.6,124.1,184.8,124.3,186.3z"/>
	<path id="XMLID_21_" class="st0" d="M21,111.7c2.2-2.1,4.9-1.4,7.3-1.7c6.1-0.7,11.9-2.3,17.8-3.5c1.1-0.2,3.1-1.6,3.2,1.3
		c0,2,0.1,3.9-2.7,3.9C38.1,111.7,29.6,111.7,21,111.7z"/>
	<path id="XMLID_20_" class="st1" d="M340.2,204.7c4.7,0,9.4,0,14.1,0c1.2,0,2.2,0.7,1.7,1.8c-0.8,1.8-1.1,3.9-3.6,4.6
		c-5.7,1.5-8.6-2.7-12.3-5.3C340.1,205.4,340.1,205.1,340.2,204.7z"/>
	<path id="XMLID_19_" class="st0" d="M16.7,159c1.6,0,3.2-0.1,4.8,0c1.7,0.1,2.3,1.2,2.3,2.8c0,1.7-0.4,3-2.4,3.1
		c-2.6,0.1-5.2,0.2-7.8,0c-2.4-0.2-4-1.6-4-4.1c0.1-2.9,2.5-1.6,4-1.8C14.7,158.9,15.7,159,16.7,159C16.7,159,16.7,159,16.7,159z"/>
	<path id="XMLID_18_" class="st1" d="M381.1,87.6c6.3-0.5,12.2-2.7,18.6-2.8c1.4,0,2.9-0.2,2.9,1.9c0,2.1-1.6,1.9-2.9,1.9
		c-6.2,0-12.4,0-18.6,0C381,88.2,381.1,87.9,381.1,87.6z"/>
	<path id="XMLID_17_" class="st1" d="M194.1,193.5c1.4,0,2.7,0,4.1,0c1.2,0,1.8,0.6,1.9,1.8c0,1,0.1,1.9-1,2.6
		c-2.4,1.5-7.4,1-9.4-1.1c-0.7-0.7-1.6-1.4-1.2-2.5c0.4-1,1.5-0.8,2.3-0.8C191.9,193.4,193,193.5,194.1,193.5
		C194.1,193.5,194.1,193.5,194.1,193.5z"/>
	<path id="XMLID_16_" class="st1" d="M353.9,197.9c-0.3-2.9,0.4-4.6,3.8-4.5c2.3,0.1,3.3,1,2.9,3.1c-0.4,2.5-0.4,5.6-4,5.8
		C353.2,202.6,354.1,199.8,353.9,197.9z"/>
	<path id="XMLID_15_" class="st0" d="M353.9,38.1c-0.2-1.8,0.1-3.8,3.4-3.7c2.4,0,3.2,1.5,2.9,3.3c-0.4,2.5,0.2,6.2-3.7,6.3
		C353.4,43.9,353.9,40.9,353.9,38.1z"/>
	<path id="XMLID_14_" class="st1" d="M221.9,193.5c-1.4,2.2-2.8,2.8-4.2,2.8c-4,0.2-7.9,0.1-11.9,0.1c-0.9,0-1.7-0.3-1.8-1.4
		c0-1.1,0.8-1.5,1.7-1.5C210.9,193.5,216.1,193.5,221.9,193.5z"/>
	<path id="XMLID_13_" class="st1" d="M270.1,20.6c3.6-3.4,9.7-4.5,13.2-2.6c0.9,0.5,2,1,1.9,2.1c-0.2,1.4-1.6,0.9-2.4,0.9
		C278.6,20.8,274.5,21.3,270.1,20.6z"/>
	<path id="XMLID_12_" class="st0" d="M409.6,102c3.8,0,4,0.4,2.3,3.8c-0.8,1.6-1.6,3.1-2.3,4.6c-0.4,0.9-1.1,1.3-2.1,1.2
		c-0.8-0.1-1.4-0.5-1.6-1.3c-0.3-1.2,0.6-1.4,1.4-1.8c1.4-0.7,1.7-1.7,0.6-3c-0.7-0.8-2.8-0.6-1.9-2.5
		C406.8,101.6,408.4,102.1,409.6,102z"/>
	<path id="XMLID_11_" class="st1" d="M118.3,9c-1.1-0.6-3.7,1.2-3.8-1.3c-0.1-2.2,2.2-3,4.3-3.2c0.9-0.1,1.7,0,2.6,0
		c1.5,0,2.3,0.5,2.3,2.2c0,1.8-0.8,2.4-2.5,2.4C120.3,8.9,119.4,9,118.3,9z"/>
	<path id="XMLID_10_" class="st0" d="M100.4,39.9c0,0.2,0,1.2-0.3,2.2c-0.4,1.3-1.6,1.5-2.7,1.3c-1.4-0.2-1.3-1.1-1.1-2.2
		c0.2-1.2,0.3-2.5,0.4-3.7c0.1-1.3,0.1-2.7,1.7-2.8c1.9-0.1,1.9,1.5,2,2.9C100.4,38.1,100.4,38.6,100.4,39.9z"/>
	<path id="XMLID_9_" class="st0" d="M241.1,9.7c-3.7,0-6.4,0-9,0c-0.6,0-1.3,0-1.5-0.8c-0.1-0.7,0.5-1.1,1-1.4
		C234.8,5.6,237.6,6,241.1,9.7z"/>
	<path id="XMLID_8_" class="st1" d="M154.4,178.6c-1.2-2.3-0.6-4-0.7-5.7c-0.1-1.2,0.6-1.9,1.8-1.9c1,0,2.1-0.4,2.9,0.4
		c0.9,1,0,1.8-0.6,2.6C156.8,175.4,155.7,176.8,154.4,178.6z"/>
	<path id="XMLID_7_" class="st0" d="M16.2,43.4c-3.6,0-6.1,0-8.7,0c-0.5,0-1.1,0-1.2-0.7c-0.2-0.8,0.4-1.1,0.9-1.4
		C10.2,39.8,12.8,40.4,16.2,43.4z"/>
	<path id="XMLID_6_" class="st1" d="M409.1,88.5c-1.4-0.2-3.3,0.6-3.4-1.8c-0.1-1.2,0.4-2.1,1.7-1.7c1.7,0.6,4.3,0.2,4.5,2.6
		C412,89,410.1,88.2,409.1,88.5z"/>
	<path id="XMLID_5_" class="st1" d="M17.3,69c1.6,0,3.1,0,4.7,0c1,0,1.7,0.4,1.8,1.4c0.1,0.9,0.4,1.9-0.3,2.5
		c-0.9,0.7-1.5-0.3-2.2-0.7c-1.4-0.8-2.7-1.6-4.1-2.4C17.2,69.5,17.2,69.2,17.3,69z"/>
	<path id="XMLID_4_" class="st0" d="M256,182.4c2.5-1.5,5-0.7,7.4-0.7c0.3,0,0.9,0.5,1,0.9c0.2,0.7-0.5,1.2-1.1,1.1
		C260.9,183.6,258.3,184.4,256,182.4z"/>
	<path id="XMLID_3_" class="st0" d="M283,166.7c0,1.3-0.8,1.3-1.5,1.3c-0.9,0-2.1,0.3-2.4-1c-0.2-1,0.5-1.6,1.4-1.8
		C281.8,164.9,282.4,165.9,283,166.7z"/>
</g>
</svg>
