<?xml version="1.0" encoding="utf-8"?>
<!-- Generator: Adobe Illustrator 19.0.0, SVG Export Plug-In . SVG Version: 6.00 Build 0)  -->
<svg version="1.1" id="Calque_1" xmlns="http://www.w3.org/2000/svg" xmlns:xlink="http://www.w3.org/1999/xlink" x="0px" y="0px"
	 viewBox="-2373.1 -1480.1 5107.7 3267" enable-background="new -2373.1 -1480.1 5107.7 3267" xml:space="preserve">
<path d="M1735.8-848.3c0,602.1-2.4,639.9-62.8,842.4c-270.7,934.2-1041.7,1625.4-1907,1711.8c-132.9,13.5-669.5,24.3-1189.2,27
	c-616.3,0-949.9,10.8-949.9,27c0,18.9,865.3,27,2549.9,27c1619.4,0,2549.9-10.8,2549.9-27c0-13.5-106.3-29.7-234.4-32.4l-236.9-8.1
	l-7.3-1601.1l-4.8-1598.4h-253.8h-253.8V-848.3z"/>
<g>
	<g>
		<path d="M2181,1259.8c0.2-1,0.7-2,0.7-3c1-18.8,3.8-37.4,7.7-55.8c3.5-16.8,8.3-33.3,14.2-49.4c2.4-6.7,5.7-13.2,8.8-19.7
			c4.7-9.8,9.6-19.4,14.4-29.1c0.9-1.7,1.8-3.5,2.7-5.3c-1.9-2.3-3.8-4.4-5.6-6.6c-8.6-11.2-12.4-23.9-11.6-37.9
			c0.9-16.7,6.8-31.6,15.8-45.5c5.3-8.3,11.2-16.1,18.6-22.6c5.6-4.9,11.6-9.5,17.8-13.7c9.4-6.4,18.9-13,28.9-18.3
			c13.1-7,26.7-13,41.9-14.4c14.9-1.4,29.4,0,43.7,4.1c5.5,1.6,11,3.1,16.5,4.5c5,1.2,9.1,3.7,12.8,7.2c2.5,2.4,5.1,4.7,7.9,6.8
			c7.3,5.3,10.4,13,12.6,21.3c0.1,0.6,0.2,1.2,0.4,2.2c3.5,0.6,7.2,1.3,10.8,1.9c12.2,1.9,23.4,6.5,34.7,11c2.9,1.1,5.2,3.4,7.9,5.1
			c2.1,1.4,4.4,2.6,6.5,4c1.6,1.1,3.2,2.3,4.7,3.5c0.7,0.5,1.3,1.5,2.1,1.7c6,2,10,6.6,14.5,10.5c8.2,7.1,16.3,14.2,23.8,22
			c14.3,14.8,26.3,31.3,37.5,48.5c6,9.2,11.7,18.6,16.3,28.5c10.4,22.1,18.9,45,24.4,68.8c2.9,12.4,4.8,25.1,8.2,37.4
			c3.1,11,3.8,22.1,5,33.2c1.6,15.1,2,30.3-0.5,45.5c-0.9,5.5-1.4,11.1-2.9,16.4c-4.2,14.1-7.5,28.5-13.7,41.9
			c-6.8,14.9-15.7,28.5-28.1,39.4c-4,3.5-8.9,6.2-13.4,9.2c-1.2,0.8-2.4,1.7-3.3,2.3c3.4,6.7,6.2,13.2,9.9,19.2
			c7.3,11.9,13.5,24.4,20.7,36.3c8.5,13.9,16.7,27.9,25.1,41.8c1.5,2.5,3.9,4.5,5.6,7c5.2,7.7,10.1,15.6,15.4,23.3
			c7.6,11.2,15.2,22.4,23.2,33.3c6,8.3,12.5,16.1,18.7,24.3c3.5,4.5,6.7,9.2,10.2,13.8c5.4,7,11,13.9,16.3,21
			c5,6.7,10.9,12.7,15,20.2c7.7,13.9,12.2,28.6,10.4,44.6c-1,9.4-4.2,18.2-9.9,25.9c-2.5,3.4-4.9,7-8.1,9.7
			c-5.7,4.7-11.6,9-17.9,12.8c-10.7,6.3-22.5,9.7-34.8,11.5c-12.3,1.8-24.5,2-36.8,0.2c-11.3-1.6-22.1-4.6-32.4-9.2
			c-17.1-7.6-32.4-17.8-44.1-32.7c-4-5.1-8.2-9.9-12.7-15.4c0,1.6,0,2.7,0,3.8c0.5,9.8,0.1,19.6-2.9,29
			c-3.3,10.3-9.7,18.6-17.4,25.9c-7.6,7.2-17,11.5-26.9,14.1c-11.8,3-23.8,3.6-35.8,1.1c-7.8-1.6-15.6-3.5-23-6.3
			c-14.7-5.6-27.3-14.6-38.2-25.8c-2.9-3-6.1-5.7-8.8-8.9c-8.6-10.2-14.8-21.8-19.7-34.2c-5.7-14.4-8.3-29.4-10-44.7
			c-1.6-14.2-3.5-28.3-5-42.5c-0.9-8.8-1.5-17.7-2.1-26.5c-1.2-15.9-2.3-31.8-3.4-47.7c-0.1-1.8-0.2-3.6-0.2-5.4
			c-0.1-2.5,0.3-5.1-1.4-7.4c-0.4-0.5-0.3-1.5-0.3-2.2c-1-12.9-1.8-25.8-3-38.6c-0.9-9.9-2.3-19.7-3.6-30c-4-0.7-7.9-1.5-11.9-2
			c-14.5-1.9-28.9-4.7-42.7-9.5c-9.8-3.4-19-8.3-28-13.6c-13.6-7.9-24.6-18.6-34.4-30.8c-4-5-6.9-10.5-10.7-15.6
			c-6.9-9.4-11.6-19.9-15.5-30.8c-3.8-10.8-6.4-21.9-7.8-33.3c-1.1-8.9-1.9-17.9-2.9-26.9c-0.1-0.6-0.4-1.1-0.6-1.6
			C2181,1281.5,2181,1270.7,2181,1259.8z M2513.8,1058.4c-1-1.3-1.7-2.9-2.9-4c-7.1-6.5-14.2-13-21.5-19.2c-4.3-3.7-9-7.1-13.8-10.1
			c-5.9-3.6-11.7-7.6-18.2-9.9c-8-2.8-16.2-5.4-24.8-6.3c-9.1-1-18.1-2.6-27.2-3.8c-1.4-0.2-3,0.1-4.4,0.6
			c-5.2,1.6-10.4,3.1-15.4,5.1c-12.5,5.1-24.9,10.5-37.4,15.8c-12.9,5.5-25.2,12.2-36.9,19.9c-8.8,5.8-17.7,11.4-25.4,18.6
			c-14.9,13.7-26.6,29.9-37.1,47c-15.1,24.6-25,51.7-32.2,79.6c-3.8,14.6-6.9,29.2-8.3,44.2c-1,10.2-2.2,20.3-2.5,30.5
			c-0.5,15.9,0.2,31.8,2.3,47.7c2.5,18.6,7.6,36.2,16.5,52.6c7.5,13.8,16.2,26.5,29.2,36.2c9,6.7,18.1,12.9,28.4,17.3
			c14.2,6,29.4,8.5,44.5,11.1c1.3,0.2,2.6,0,4.4,0c-0.1-1.9,0-3.4-0.4-4.7c-1.5-6.6-3-13.2-4.9-19.7c-7.6-26.2-19.4-50.1-37.9-70.5
			c-10.9-12-22-23.9-33.1-35.8c-1-1.1-2.1-2.3-3.2-3.4c2.1,0.6,3.6,1.8,5.1,2.9c10.3,7.1,20.5,14.3,30.8,21.4
			c4.7,3.3,9.6,6.2,14,9.9c4.8,4,9.2,8.7,13.6,13.2c14,14.2,21.9,32.2,29.7,50.1c3.7,8.3,5.6,17.5,8.1,26.3
			c4.8,16.8,7,34.1,8.9,51.4c1.7,15.2,2.7,30.5,4,45.8c0.4,4.3,0.5,8.7,0.9,13c0.8,10.9,1.7,21.9,2.5,32.8
			c0.4,6.3,0.7,12.6,1.1,18.9c0.2,3.9,0.6,7.8,1,11.7c0.8,9.4,1.7,18.9,2.6,28.3c0.4,3.9,0.6,7.8,1.1,11.7
			c1.4,10.1,2.8,20.2,4.3,30.3c2,13.6,4.9,26.8,12.4,38.7c4.1,6.6,8,13.4,13.1,19.4c9.4,10.9,20.3,19.5,33.8,24.9
			c13.8,5.6,28,8.2,42.8,5.5c14-2.6,24.3-9.9,29.4-23.7c2.4-6.7,2.7-13.6,2.1-20.5c-0.7-8.2-2.1-16.4-3.1-24.6
			c-1.2-9.4-2.3-18.8-3.3-28.2c-1-9.3-1.9-18.5-2.6-27.8c-0.8-10.3-1.3-20.7-1.8-31.1c-0.5-9.6-0.7-19.2-1-28.9
			c-0.5-12.8-1.2-25.5-1.7-38.3c-0.4-11.4-0.7-22.9-1.2-34.3c-0.2-4.6-0.7-9.3-1.1-13.9c-0.4-4.9-1.2-9.9-1.3-14.8
			c-0.3-14.4-0.5-28.9-0.1-43.3c0-1.4,0.1-2.7,0.3-4.1c1.1-8.9,2-17.9,3.3-26.8c1.4-9.2,3.2-18.3,4.9-27.5c0.1-0.7,0.6-1.3,1.3-2.7
			c1.3,14.9,2.5,28.9,3.7,42.9c1.1,0.1,1.7,0.3,2.2,0.2c10.3-1.4,20.5-3,30.3-6.7c9.3-3.4,17.7-8.2,24.8-15.3
			c7.9-7.9,14.9-16.3,19.6-26.7c3.7-8.1,6.5-16.4,9.1-24.9c3-9.8,5-19.8,6.3-29.9c1.7-12.8,1.6-25.8,0.3-38.7
			c-1.3-13.2-2.7-26.3-5.4-39.3c-2.1-9.9-4-19.8-6.5-29.5c-2.9-11.2-6.1-22.4-9.9-33.3c-2.9-8.3-7-16.2-10.7-24.2
			c-5.4-11.8-11.6-23.1-18.3-34.2c-8.9-14.6-19.5-27.7-31.4-39.9c-0.6-0.6-1.4-1.1-2.1-1.7C2516.1,1060.6,2515,1059.5,2513.8,1058.4
			z M2511.2,1430.4c2.3,14.2,4.4,28.2,6.8,42.1c0.5,2.9,1.9,5.7,2.2,8.7c0.8,8.8,1.3,17.7,1.8,26.5c0.4,8,0.8,15.9,1,23.9
			c0.2,4.3,0.1,8.6,0.3,13c0.3,7.1,0.9,14.1,1.2,21.1c0.4,9.5,0.5,18.9,1,28.4c0.7,12.9,1.6,25.8,2.6,38.7
			c0.4,5.8,1.6,11.5,1.9,17.3c0.2,5,2.2,8.8,5.3,12.5c9.4,11.2,18.7,22.4,27.9,33.8c4.5,5.6,9.1,11.2,14.6,15.8
			c8.1,6.8,16.6,12.9,26.5,17c19.1,7.9,38.9,9.9,59.3,6.1c10.7-2,20.6-5.7,29.3-12.2c7.6-5.6,13.4-12.5,15.5-22
			c1.5-6.9,0.9-13.7-1-20.5c-2.6-8.9-7.7-16.3-13.1-23.5c-9.8-12.9-20.2-25.4-29.9-38.3c-9.4-12.5-18.3-25.3-27.5-38
			c-6.2-8.6-12.7-17.1-18.7-25.9c-8.8-13.1-17.4-26.4-25.9-39.7c-6.7-10.5-13.4-21-19.7-31.7c-5.7-9.7-11-19.7-16.3-29.7
			c-4.6-8.6-8.9-17.4-13.1-26.2c-1-2.1-2.4-2.5-4.3-2.1c-2.2,0.5-4.3,1.2-6.6,1.6C2525.6,1428.2,2518.8,1429.2,2511.2,1430.4z
			 M2243,1076.7c4-4.4,7.7-8.5,11.4-12.6c3.4-3.8,6.7-7.7,10.4-11.3c11.7-11.6,24.7-21.5,39.1-29.5c13.8-7.7,27.5-15.4,42.1-21.7
			c14.7-6.3,29.3-12.4,44.6-17.1c3.9-1.2,7.7-3,11.5-4.5c-0.1-0.6-0.1-0.9-0.3-1.1c-0.2-0.4-0.5-0.7-0.8-1.1
			c-3.7-4.4-8.5-7-13.8-9.1c-17.7-6.9-36-9.5-54.9-6.9c-3.1,0.4-6.3,1.1-9,2.5c-9.9,5.1-19.8,10.2-29.3,15.9
			c-7.7,4.6-15.1,10-22.3,15.4c-10.3,7.8-18.8,17.3-25.6,28.2c-6.7,10.8-10.8,22.5-9.8,35.5
			C2236.7,1065.7,2238.9,1071.4,2243,1076.7z"/>
	</g>
	<g>
		<path fill="#FFFFFF" d="M2517.3,1061.7c0.7,0.6,1.5,1.1,2.1,1.7c11.9,12.2,22.5,25.4,31.4,39.9c6.7,11.1,12.9,22.4,18.3,34.2
			c3.7,8,7.7,15.9,10.7,24.2c3.8,10.9,7,22.1,9.9,33.3c2.5,9.7,4.4,19.6,6.5,29.5c2.7,13,4.1,26.1,5.4,39.3
			c1.3,12.9,1.4,25.8-0.3,38.7c-1.3,10.1-3.3,20.1-6.3,29.9c-2.6,8.5-5.4,16.8-9.1,24.9c-4.7,10.4-11.6,18.8-19.6,26.7
			c-7.1,7-15.4,11.8-24.8,15.3c-9.8,3.6-20,5.3-30.3,6.7c-0.6,0.1-1.2-0.1-2.2-0.2c-1.2-14-2.4-28-3.7-42.9
			c-0.7,1.5-1.2,2.1-1.3,2.7c-1.7,9.1-3.5,18.3-4.9,27.5c-1.3,8.9-2.3,17.9-3.3,26.8c-0.2,1.3-0.2,2.7-0.3,4.1
			c-0.4,14.4-0.3,28.9,0.1,43.3c0.1,4.9,0.9,9.9,1.3,14.8c0.4,4.6,0.9,9.3,1.1,13.9c0.5,11.4,0.7,22.9,1.2,34.3
			c0.5,12.8,1.1,25.5,1.7,38.3c0.4,9.6,0.6,19.2,1,28.9c0.5,10.4,1,20.7,1.8,31.1c0.7,9.3,1.6,18.5,2.6,27.8
			c1,9.4,2.1,18.8,3.3,28.2c1,8.2,2.4,16.4,3.1,24.6c0.6,6.9,0.4,13.8-2.1,20.5c-5,13.8-15.4,21.1-29.4,23.7
			c-14.8,2.8-28.9,0.2-42.8-5.5c-13.4-5.5-24.4-14-33.8-24.9c-5.1-6-9-12.8-13.1-19.4c-7.4-11.9-10.4-25.1-12.4-38.7
			c-1.5-10.1-2.9-20.2-4.3-30.3c-0.5-3.9-0.8-7.8-1.1-11.7c-0.9-9.4-1.7-18.8-2.6-28.3c-0.4-3.9-0.7-7.8-1-11.7
			c-0.4-6.3-0.6-12.6-1.1-18.9c-0.8-10.9-1.7-21.9-2.5-32.8c-0.3-4.3-0.5-8.7-0.9-13c-1.3-15.3-2.3-30.6-4-45.8
			c-2-17.3-4.2-34.6-8.9-51.4c-2.5-8.8-4.4-17.9-8.1-26.3c-7.9-17.8-15.7-35.8-29.7-50.1c-4.4-4.5-8.8-9.1-13.6-13.2
			c-4.4-3.7-9.3-6.6-14-9.9c-10.3-7.1-20.5-14.3-30.8-21.4c-1.6-1.1-3-2.3-5.1-2.9c1.1,1.1,2.1,2.3,3.2,3.4
			c11,11.9,22.2,23.8,33.1,35.8c18.4,20.4,30.3,44.3,37.9,70.5c1.9,6.5,3.3,13.1,4.9,19.7c0.3,1.4,0.2,2.9,0.4,4.7
			c-1.8,0-3.1,0.2-4.4,0c-15.1-2.6-30.2-5.1-44.5-11.1c-10.3-4.4-19.4-10.6-28.4-17.3c-13-9.6-21.7-22.4-29.2-36.2
			c-8.9-16.4-13.9-34.1-16.5-52.6c-2.2-15.9-2.9-31.8-2.3-47.7c0.3-10.2,1.6-20.4,2.5-30.5c1.4-15,4.5-29.7,8.3-44.2
			c7.2-28,17.1-55,32.2-79.6c10.5-17,22.2-33.3,37.1-47c7.8-7.2,16.7-12.8,25.4-18.6c11.7-7.7,24-14.4,36.9-19.9
			c12.4-5.3,24.9-10.7,37.4-15.8c5-2,10.2-3.5,15.4-5.1c1.4-0.4,3-0.8,4.4-0.6c9.1,1.2,18.1,2.8,27.2,3.8c8.6,1,16.8,3.5,24.8,6.3
			c6.4,2.3,12.3,6.2,18.2,9.9c4.8,3,9.5,6.4,13.8,10.1c7.3,6.2,14.4,12.7,21.5,19.2c1.2,1.1,1.9,2.6,2.9,4c-1.7-1.2-3.4-2.4-5.2-3.5
			c-5.2-3-10.1-6.5-16.5-6.3c-3.9,0.1-5.6,2.3-5.8,6.1c-0.2,5.1,2.4,8.9,4.8,12.8c6.1,10,12.7,19.7,18.8,29.8
			c7.4,12.3,14.9,24.7,21.6,37.4c8.2,15.4,14.3,31.8,20.1,48.3c4.8,13.5,8.9,27.1,12,41.1c1.2,5.2,3.4,10.2,5.4,15.3
			c1.9,4.7,5.2,8,10.5,9.3c3.9-2.2,5-6.4,5.4-10.3c0.4-4.4-0.4-9-1-13.4c-1.2-8.2-2.6-16.3-4.1-24.4c-0.9-4.9-1.7-9.9-3.7-14.4
			c-1.7-3.6-2.5-7.3-3.4-11.1c-0.3-1.3-0.6-2.6-1-3.9c-3.9-12.8-8.9-25.2-14.1-37.6c-7.6-18.1-16.7-35.3-26.9-52.1c-0.6-1-1.3-2-2-3
			C2524.8,1072.9,2521,1067.3,2517.3,1061.7z M2471.9,1092.4c0.1,0.8,0.3,2.6,0.8,4.3c1.8,5.6,3.7,11.1,5.7,16.6
			c2.1,5.7,4.6,11.4,6.7,17.1c1.4,3.8,2.4,7.8,3.4,11.7c3.3,14.2,6.6,28.4,9.8,42.6c1.6,7.5,2.7,15.1,4.4,22.5
			c1.1,4.6,3.6,8.6,7.8,11.2c4.2,2.6,6.9,1.9,9.3-2.5c0.3-0.5,0.4-1.1,0.7-1.7c2.2-5.1,2.1-10.4,1.8-15.9
			c-0.7-13.2-2.4-26.3-4.7-39.3c-2.3-12.9-6.1-25.4-10.5-37.7c-3.1-8.5-6.8-16.7-9.8-25.2c-2.3-6.6-6.5-11.3-13-13.4
			c-8.3-2.7-11.9-1.1-12.3,7.7C2471.9,1090.7,2471.9,1091,2471.9,1092.4z"/>
	</g>
	<path fill="#FFFFFF" d="M2511.2,1430.4c7.7-1.2,14.4-2.3,21.2-3.4c2.2-0.4,4.4-1.2,6.6-1.6c1.9-0.4,3.3,0,4.3,2.1
		c4.3,8.8,8.6,17.6,13.1,26.2c5.3,10,10.5,19.9,16.3,29.7c6.3,10.7,13,21.2,19.7,31.7c8.5,13.3,17,26.6,25.9,39.7
		c6,8.8,12.5,17.3,18.7,25.9c9.1,12.7,18,25.5,27.5,38c9.7,12.9,20.1,25.4,29.9,38.3c5.5,7.2,10.6,14.6,13.1,23.5
		c2,6.8,2.5,13.6,1,20.5c-2,9.5-7.9,16.4-15.5,22c-8.8,6.5-18.7,10.2-29.3,12.2c-20.4,3.8-40.1,1.8-59.3-6.1
		c-9.8-4.1-18.4-10.2-26.5-17c-5.6-4.7-10.1-10.2-14.6-15.8c-9.1-11.4-18.5-22.6-27.9-33.8c-3.1-3.7-5.1-7.5-5.3-12.5
		c-0.2-5.8-1.4-11.5-1.9-17.3c-1-12.9-1.9-25.8-2.6-38.7c-0.5-9.4-0.6-18.9-1-28.4c-0.3-7.1-0.9-14.1-1.2-21.1
		c-0.2-4.3-0.1-8.6-0.3-13c-0.3-8-0.6-15.9-1-23.9c-0.5-8.9-1-17.7-1.8-26.5c-0.3-2.9-1.7-5.7-2.2-8.7
		C2515.6,1458.6,2513.4,1444.6,2511.2,1430.4z"/>
	<g>
		<path fill="#FFFFFF" d="M2243,1076.7c-4.1-5.3-6.3-10.9-6.8-17.3c-1-13,3.1-24.7,9.8-35.5c6.8-10.9,15.3-20.5,25.6-28.2
			c7.2-5.4,14.5-10.8,22.3-15.4c9.5-5.7,19.4-10.8,29.3-15.9c2.7-1.4,6-2.1,9-2.5c18.9-2.5,37.2,0,54.9,6.9
			c5.3,2.1,10.1,4.7,13.8,9.1c0.3,0.3,0.6,0.7,0.8,1.1c0.1,0.2,0.1,0.6,0.3,1.1c-3.8,1.5-7.6,3.2-11.5,4.5
			c-15.2,4.7-29.9,10.9-44.6,17.1c-14.6,6.2-28.3,14-42.1,21.7c-14.4,8-27.4,17.9-39.1,29.5c-3.6,3.6-6.9,7.5-10.4,11.3
			C2250.7,1068.2,2247,1072.3,2243,1076.7z"/>
	</g>
	<path d="M2517.3,1061.7c3.7,5.6,7.5,11.2,11.2,16.7c0.7,1,1.4,2,2,3c10.2,16.7,19.3,34,26.9,52.1c5.2,12.4,10.2,24.8,14.1,37.6
		c0.4,1.3,0.7,2.6,1,3.9c0.9,3.8,1.7,7.4,3.4,11.1c2,4.4,2.8,9.5,3.7,14.4c1.5,8.1,2.9,16.3,4.1,24.4c0.7,4.4,1.4,9,1,13.4
		c-0.4,3.9-1.5,8-5.4,10.3c-5.3-1.2-8.6-4.5-10.5-9.3c-2-5-4.2-10-5.4-15.3c-3.1-14-7.3-27.6-12-41.1c-5.8-16.5-12-32.8-20.1-48.3
		c-6.7-12.7-14.2-25.1-21.6-37.4c-6-10-12.7-19.7-18.8-29.8c-2.3-3.9-5-7.8-4.8-12.8c0.2-3.8,1.9-6,5.8-6.1
		c6.4-0.2,11.4,3.4,16.5,6.3c1.8,1,3.5,2.3,5.2,3.5C2515,1059.5,2516.1,1060.6,2517.3,1061.7z"/>
	<path d="M2471.9,1092.4c0-1.3,0-1.6,0-1.9c0.4-8.8,4-10.4,12.3-7.7c6.5,2.1,10.6,6.9,13,13.4c3,8.5,6.7,16.7,9.8,25.2
		c4.5,12.3,8.2,24.8,10.5,37.7c2.3,13,3.9,26.1,4.7,39.3c0.3,5.5,0.4,10.8-1.8,15.9c-0.2,0.6-0.4,1.2-0.7,1.7
		c-2.4,4.3-5.1,5.1-9.3,2.5c-4.2-2.6-6.7-6.6-7.8-11.2c-1.7-7.4-2.8-15.1-4.4-22.5c-3.1-14.2-6.4-28.4-9.8-42.6
		c-0.9-3.9-2-7.9-3.4-11.7c-2.1-5.8-4.5-11.4-6.7-17.1c-2-5.5-3.9-11.1-5.7-16.6C2472.1,1095,2472,1093.1,2471.9,1092.4z"/>
</g>
<g id="XMLID_1_">
	<path id="XMLID_17_" fill="#FFFFFF" d="M1956.4,265.6c0-14,13.3-23.2,39.9-27.7c24.9-7.4,41.5-15.3,49.8-23.7c0-2,3-3.3,9.1-4
		c9.8,0,15.4,7.6,16.6,22.7c0,5.4-5.3,13-15.8,22.7c-28.8,39.2-43.2,61.9-43.2,68.2l-0.8,9.9v8.9c0,10.1,1.7,16.6,5,19.8h1.7
		c10.5-8.1,18-21.9,22.4-41.5c15.5-47.5,30.7-80.4,45.7-98.9c11.8-9.9,23.7-14.8,35.7-14.8c10.9,2,20.1,6.3,27.4,12.9
		c19.4,28.3,29.1,54.7,29.1,79.1c0,28-14.4,53.4-43.2,76.1c-22,13.2-41.1,19.8-57.3,19.8c-7.1,0-12-6.6-14.9-19.8
		c0-12.5,8.9-19.8,26.6-21.7c22-6.6,37.5-16.8,46.5-30.6c5-8.9,7.5-15.8,7.5-20.8v-8.9c-6.6-29.7-13.8-44.5-21.6-44.5h-4.2
		c-13,0-30.4,36.2-52.3,108.7c-14.9,31-32.9,46.5-54,46.5c-10.4-3-19-10.2-25.7-21.7c-5.7-14.7-8.7-29.2-9.1-43.5
		c0-19.3,5.5-38.7,16.6-58.3h-0.8l-17.4,5.9c-12.2-2.5-18.3-9.4-18.3-20.8H1956.4z"/>
	<path id="XMLID_19_" fill="#FFFFFF" d="M2006.6,36c0-17.1,6.4-25.7,19.1-25.7c10,3.3,14.9,9.9,14.9,19.8c0,26.2,3.6,54.2,10.8,84
		c6,0,44.4-11.2,115.4-33.6h0.8c9.1,0,14.4,6.9,15.8,20.8c0,12.7-13.6,21.9-40.7,27.7c-49.1,16.5-77.9,24.7-86.4,24.7l8.3,71.2
		c0,10.5-5.8,17.1-17.4,19.8c-12.7,0-19.1-13.8-19.1-41.5l-21.6-154.2V36z"/>
	<path id="XMLID_21_" fill="#FFFFFF" d="M1990.9-91c0-41.7,11.4-66.1,34-73.2c2.2-1.3,5.3-2,9.1-2h2.5c19.1,0,44,19.4,74.7,58.3h0.8
		l0.8-4l-1.7-41.5c0-10.4,6.1-16.6,18.3-18.8c11.1,0,16.6,11.5,16.6,34.6l0.8,35.6v18.8c0.1,4.6,0.7,6.9,1.7,6.9
		c8.2-8.6,14.3-12.9,18.3-12.9c11.1,2.8,16.6,9.4,16.6,19.8v2c0,9.1-10,21.6-29.9,37.6c-2.2,5.3-8.6,9.2-19.1,11.9
		c-20.5,13.3-52.9,29.8-97.2,49.4c0,2-3,3.3-9.1,4c-6.4,0-13.8-5.9-22.4-17.8C1995.9-33.7,1990.9-69.9,1990.9-91z M2036.5-10.9
		c43.3-19.9,67.4-32.5,72.2-37.6v-1c-32.4-47.6-56.2-72.7-71.4-75.1h-3.3c-6.1,0-9.1,11.5-9.1,34.6
		C2029.3-37.3,2033.2-10.9,2036.5-10.9z"/>
	<path id="XMLID_24_" fill="#FFFFFF" d="M2003.3-246.2c0-20.9,10.5-42.3,31.6-64.3c12.7-10.5,23.8-15.8,33.2-15.8
		c9.4,1.2,18.8,5.8,28.2,13.8c10.5,13.2,15.8,38.2,15.8,75.1c0,12-2.2,26.2-6.6,42.5h2.5c18.4,0,31.7-9.9,39.9-29.7l1.7-13.8v-4.9
		c-1.5-26.2-15.4-57.2-41.5-92.9l-0.8-8.9c0-9.9,5.5-15.8,16.6-17.8c11.6,0,27.1,21.7,46.5,65.2c8.9,19.9,13.3,39.4,13.3,58.3
		c0,41.4-19.9,69-59.8,83c-8.6,2-16.6,3-24.1,3c-35,0-63.8-17.8-86.4-53.4C2006.6-219,2003.3-232.2,2003.3-246.2z M2068.9-202.7
		c6.1-6.9,9.1-19.1,9.1-36.6c0-30.3-2.8-45.5-8.3-45.5h-2.5c-9.7,0-19.4,10.9-29.1,32.6l-0.8,7.9
		C2037.4-227.7,2047.9-213.9,2068.9-202.7z"/>
	<path id="XMLID_27_" fill="#FFFFFF" d="M2003.3-407.3c0-20.9,10.5-42.3,31.6-64.3c12.7-10.5,23.8-15.8,33.2-15.8
		c9.4,1.2,18.8,5.8,28.2,13.8c10.5,13.2,15.8,38.2,15.8,75.1c0,12-2.2,26.2-6.6,42.5h2.5c18.4,0,31.7-9.9,39.9-29.7l1.7-13.8v-4.9
		c-1.5-26.2-15.4-57.2-41.5-92.9l-0.8-8.9c0-9.9,5.5-15.8,16.6-17.8c11.6,0,27.1,21.7,46.5,65.2c8.9,19.9,13.3,39.4,13.3,58.3
		c0,41.4-19.9,69-59.8,83c-8.6,2-16.6,3-24.1,3c-35,0-63.8-17.8-86.4-53.4C2006.6-380.1,2003.3-393.3,2003.3-407.3z M2068.9-363.8
		c6.1-6.9,9.1-19.1,9.1-36.6c0-30.3-2.8-45.5-8.3-45.5h-2.5c-9.7,0-19.4,10.9-29.1,32.6l-0.8,7.9
		C2037.4-388.9,2047.9-375,2068.9-363.8z"/>
	<path id="XMLID_30_" fill="#FFFFFF" d="M2006.6-686.1c0-17.1,6.4-25.7,19.1-25.7c10,3.3,14.9,9.9,14.9,19.8
		c0,26.2,3.6,54.2,10.8,84c6,0,44.4-11.2,115.4-33.6h0.8c9.1,0,14.4,6.9,15.8,20.8c0,12.7-13.6,21.9-40.7,27.7
		c-49.1,16.5-77.9,24.7-86.4,24.7l8.3,71.2c0,10.5-5.8,17.1-17.4,19.8c-12.7,0-19.1-13.8-19.1-41.5l-21.6-154.2V-686.1z"/>
	<path id="XMLID_32_" fill="#FFFFFF" d="M1982.6-889.2c0-11.9,8.3-18.8,24.9-20.8h11.6c29.8,0,68.5,8.2,116.3,24.7
		c-6.2-22.4-12.3-51.1-18.3-86l-25.7,7.9c-9.8,0-15.4-7.2-16.6-21.7c0-14.2,17.4-24.1,52.3-29.7c5.4,0,12,6.6,19.9,19.8
		c8.4,47.6,15.9,80.6,22.4,98.9c0,2.8,4.4,13,13.3,30.6l0.8,9.9c0,11.5-4.7,19.1-14.1,22.7h-3.3l-84.7-27.7
		c-26.4-5.9-48.9-8.9-67.3-8.9h-12.5C1988.9-870.8,1982.6-877.4,1982.6-889.2z"/>
	<path id="XMLID_34_" fill="#FFFFFF" d="M1991.7-1034.6c2.8-13.2,8.3-19.8,16.6-19.8c24.4,2.8,36.5,7.4,36.5,13.8
		c0.8,0,1.9,3.3,3.3,9.9c-2.3,13.2-7.9,19.8-16.6,19.8v1c-19.8-2.8-31.1-6.8-34-11.9C1995.9-1021.7,1993.9-1026,1991.7-1034.6z
		 M2054.8-1022.7c0-9.4,5.3-16,15.8-19.8c11.5,2.6,22,4,31.6,4h8.3c13.3,0,32.1-2.3,56.5-6.9c9,0,14.3,6.6,15.8,19.8h0.8
		c0,14-11.1,21.9-33.2,23.7l-34.9,4.9c-2.1,13.2-7.3,19.8-15.8,19.8h-0.8c-5.9,0-12.6-6.3-19.9-18.8c-15.4-7.6-23.1-14.2-23.3-19.8
		L2054.8-1022.7z"/>
	<path id="XMLID_37_" fill="#FFFFFF" d="M1984.2-1108.2c1.7-18.3,9.4-39.4,23.3-63.3c9.1-14.5,17.4-21.7,24.9-21.7h0.8
		c7.1,0,12,6.6,14.9,19.8c0,5.6-5.8,16.2-17.4,31.6c-8.3,16.6-12.5,29.5-12.5,38.6v3c0,13.8,9.1,21.7,27.4,23.7
		c20.2-2.3,31.3-5.3,33.2-8.9l-14.9-54.4v-2c2.1-13.2,7.6-19.8,16.6-19.8c10.1,0,17.6,12.5,22.4,37.6c1.5,2.1,4,9.7,7.5,22.7l2.5,2
		l50.7-30.6h3.3c11.1,2.6,16.6,9.2,16.6,19.8v1c0,11.7-14.4,24.6-43.2,38.6c-11.5,6.1-17.3,9.7-17.4,10.9l0.8,16.8
		c-2.8,10.5-7.7,15.8-14.9,15.8h-0.8c-6.8,0-12.3-5.6-16.6-16.8l-0.8-1h-2.5c-18.4,5.9-33.6,8.9-45.7,8.9
		c-16.7,0-32.5-9.2-47.3-27.7C1987.8-1075.4,1984.2-1090.3,1984.2-1108.2z"/>
	<path id="XMLID_39_" fill="#FFFFFF" d="M2003.3-1251.6c0-20.9,10.5-42.3,31.6-64.3c12.7-10.5,23.8-15.8,33.2-15.8
		c9.4,1.2,18.8,5.8,28.2,13.8c10.5,13.2,15.8,38.2,15.8,75.1c0,12-2.2,26.2-6.6,42.5h2.5c18.4,0,31.7-9.9,39.9-29.7l1.7-13.8v-4.9
		c-1.5-26.2-15.4-57.2-41.5-92.9l-0.8-8.9c0-9.9,5.5-15.8,16.6-17.8c11.6,0,27.1,21.7,46.5,65.2c8.9,19.9,13.3,39.4,13.3,58.3
		c0,41.4-19.9,69-59.8,83c-8.6,2-16.6,3-24.1,3c-35,0-63.8-17.8-86.4-53.4C2006.6-1224.4,2003.3-1237.5,2003.3-1251.6z
		 M2068.9-1208.1c6.1-6.9,9.1-19.1,9.1-36.6c0-30.3-2.8-45.5-8.3-45.5h-2.5c-9.7,0-19.4,10.9-29.1,32.6l-0.8,7.9
		C2037.4-1233.1,2047.9-1219.3,2068.9-1208.1z"/>
</g>
</svg>
