<?xml version="1.0" standalone="no"?>
<!DOCTYPE svg PUBLIC "-//W3C//DTD SVG 20010904//EN"
 "http://www.w3.org/TR/2001/REC-SVG-20010904/DTD/svg10.dtd">
<svg version="1.0" xmlns="http://www.w3.org/2000/svg"
 width="212.000000pt" height="122.000000pt" viewBox="0 0 212.000000 122.000000"
 preserveAspectRatio="xMidYMid meet">

<g transform="translate(0.000000,122.000000) scale(0.100000,-0.100000)"
fill="#000000" stroke="none">
<path d="M1710 976 c0 -223 -1 -237 -26 -312 -112 -346 -431 -602 -789 -634
-55 -5 -277 -9 -492 -10 -255 0 -393 -4 -393 -10 0 -7 358 -10 1055 -10 670 0
1055 4 1055 10 0 5 -44 11 -97 12 l-98 3 -3 593 -2 592 -105 0 -105 0 0 -234z"/>
</g>
</svg>
