<?xml version="1.0" encoding="utf-8"?>
<!-- Generator: Adobe Illustrator 19.0.0, SVG Export Plug-In . SVG Version: 6.00 Build 0)  -->
<svg version="1.1" id="Calque_1" xmlns="http://www.w3.org/2000/svg" xmlns:xlink="http://www.w3.org/1999/xlink" x="0px" y="0px"
	 viewBox="0 0 140.8 140.6" enable-background="new 0 0 140.8 140.6" xml:space="preserve">
<g>
	<path d="M70.5,0c39.4,0,70.3,31.2,70.3,71c0,38.3-31.6,69.4-70.2,69.7C30.7,140.9-0.7,107.1,0,69.2C0.7,30.9,31.5,0,70.5,0z
		 M70.5,1.6C33,1.5,1.8,32.2,1.8,69.2c0,38.8,30.5,69.8,68.7,69.7c37.3-0.1,68.6-31,68.6-67.9C139.1,32.6,108.5,1.6,70.5,1.6z"/>
	<path d="M70.7,99.8c-16.7,0-29.9-13-30-29.6C40.5,53.7,54,40.3,70.5,40.2c16.5,0,30,13.4,30.1,29.8C100.6,86.4,87.3,99.7,70.7,99.8
		z M79.3,68.9c6.9,0,7.5-0.1,6.8-3.4c-0.7-3.4,1.2-9.2-4.3-9.6c-9.1-0.7-10,0.5-10,7C71.8,68.9,71.8,68.9,79.3,68.9z M61.2,68.9
		c4.3-0.2,8.9,1.5,8.2-5.8c-0.7-8.2,0.3-6.3-10.1-6.7c-5.6-0.3-3.8,6.1-4.3,9.4C54.4,71.2,59.4,67.7,61.2,68.9z M61.6,71.7
		c-1.7,1.3-7.1-3.1-6.6,3.2c0.2,3.1-1,8.4,3.9,8.8c8.8,0.7,9.9-0.7,10.5-6.3C70.1,71,66.6,71,61.6,71.7z M79.5,71.5
		c-7.8,0-7.8,0-7.8,5.6c0,6.1,0,6.2,9.8,6.3c6,0.1,4.1-5.2,4.5-8.1C87,68.9,81.6,72.6,79.5,71.5z M91,68.5c5.6,1,7.3-0.7,6.1-4.4
		c-0.9-3-2-6.1-3.7-8.6c-0.7-1-3.3-1-5-0.9c-0.4,0-1,2.2-0.9,3.4c0.2,2.5,0.5,5,1.3,7.3C89.4,66.9,90.8,68.2,91,68.5z M50.2,68.5
		c0.2-0.3,1.5-1.6,2.1-3.3c0.8-2.3,1.2-4.8,1.4-7.3c0.1-1.1-0.7-3.1-1.4-3.2c-1.5-0.3-3.9-0.1-4.5,0.8C46,58.1,44.9,61,43.9,64
		C42.8,67.5,44,69.5,50.2,68.5z M54,85.9c-0.8-5-1.1-8.4-1.9-11.7c-0.2-1-1.4-2.4-2.2-2.5c-2-0.1-4.1,0.5-6.1,0.8
		c1.2,4,1.9,8.2,3.7,12C48.1,85.5,51.3,85.3,54,85.9z M93.3,71.5c-3.3-0.6-4.6,0.7-4.6,4c0,2-0.9,3.9-0.8,5.9c0,1.3,0.9,3.5,1.6,3.6
		c1.6,0.1,3.9-0.3,4.7-1.4c1.5-2.1,2.3-4.8,3-7.3C98.2,73,97.7,70.6,93.3,71.5z M83.2,87.7c-0.3-0.7-0.7-1.4-1-2.1
		c-3.3,0.2-7.8-0.8-9.6,0.9c-1.6,1.6-0.3,6.2-0.3,9.4c0.4,0.3,0.9,0.5,1.3,0.8C76.8,93.7,80,90.7,83.2,87.7z M67.5,96.7
		c0.7-0.3,1.3-0.7,2-1c-0.4-3.3,0.4-7.8-1.4-9.5c-1.7-1.5-6.2,0-9.5,0.1c-0.2,0.6-0.3,1.2-0.5,1.8C61.2,90.9,64.4,93.8,67.5,96.7z
		 M67.7,43c-3.1,3-6.2,5.9-9.7,9.3C68.7,56.2,70.1,54.9,67.7,43z M73.5,43.1c-0.7,0.3-1.3,0.6-2,1c0.4,3.3-0.3,7.5,1.5,9.5
		c1.3,1.4,5.9-0.1,9-0.4c0.2-0.6,0.3-1.1,0.5-1.7C79.5,48.7,76.5,45.9,73.5,43.1z"/>
	<path d="M38.3,40.8c-0.3-3.3-0.5-6.6-0.8-9.9c0.4,0,0.9,0,1.3,0c0.8,3,0.8,7.1,2.8,8.6c2,1.5,6,0.3,9.1,0.3
		c0.2,0.6,0.4,1.1,0.6,1.7c-2.7,1.4-5.5,2.9-8.3,4.3c0.4,0.2,1.2,0.7,2.6,1.4c-1.3,1.6-2.6,3.3-3.4,4.2c-2.3-1.7-4.3-3.2-6.4-4.7
		c-2.1-1.5-4.2-2.9-6.6-4.6c1.1-1.3,2.4-2.9,4.2-5.2c1.1,1.9,2.1,3.6,3.2,5.3C37.2,41.8,37.7,41.3,38.3,40.8z"/>
	<path d="M55.9,102.6c-7,1.7-7,1.7-7.4,12.6c-1.8-2.2-3.6-4.4-5.3-6.6c-0.1,0.2-0.5,1.2-1,2.6c-1.9-1.1-3.7-2.1-5-2.9
		c2.6-4.5,4.9-8.6,7.5-13.2c1.2,0.7,2.9,1.6,4.6,2.6c-1.1,1.7-2.1,3.1-3.7,5.5c4.1-0.9,7.3-1.6,10.4-2.2
		C56,101.5,55.9,102,55.9,102.6z"/>
	<path d="M73.6,35.7c-4.6,0-8.2-3.5-8.3-8.1c-0.1-4.7,3.7-8.6,8.5-8.5c4.5,0.1,8,3.8,8,8.4C81.7,32.2,78.2,35.7,73.6,35.7z M69.2,28
		c1.4,2.5,2.1,5.5,3.4,5.8c3.4,0.6,3.6-2.4,3.7-5c0-0.2,0.1-0.3,0-0.5c-0.8-2.4,2.5-6.8-2.5-6.9C72.4,21.4,70.9,25.4,69.2,28z"/>
	<path d="M54.7,39c-4.4,0.1-8.3-3.6-8.4-8.1c-0.1-4.6,3.8-8.8,8.3-8.7c4.5,0.1,8.1,3.8,8.1,8.3C62.8,35.1,59.1,39,54.7,39z
		 M60.4,35.6c-0.5-0.6-0.9-1.2-1.4-1.7c-1-2.4-1.9-5-3.2-7.2c-0.6-1-2.2-1.4-3.3-2c-0.6,1.3-2,2.8-1.8,4c0.5,2.4,1.6,4.7,2.8,6.8
		c0.5,0.8,2,1.4,3.1,1.4C57.9,36.8,59.2,36,60.4,35.6z"/>
	<path d="M87.5,110c0.1,4.1-3.8,8.1-7.9,8.1c-4.1,0-8-3.9-8-8c0-3.9,3.8-7.7,7.7-7.8C83.3,102.1,87.4,105.9,87.5,110z M83.2,112.5
		c-1.2-3-2.1-5.5-3.3-7.9c-0.1-0.2-2.5,0.2-2.6,0.4c-0.2,2.5-0.2,5.1-0.2,7.6c0,0.2,0,0.4,0.1,0.5c1,1,2,2,3,2.9
		C81.2,115,82.1,113.8,83.2,112.5z"/>
	<path d="M69.8,110.4c0,4.3-3.7,8-7.9,7.9c-4.2-0.1-7.7-3.9-7.6-8.3c0.2-4.1,3.6-7.5,7.7-7.6C66.2,102.3,69.9,106.1,69.8,110.4z
		 M66.7,108c-1.8-1.7-3-3.5-3.8-3.3c-5,0.8-2.9,5.5-4,8.4c-0.3,0.7,1.3,2,2.1,3.1C62.8,113.6,64.5,111.1,66.7,108z"/>
	<path d="M86.2,38c3.1,1.4,5.2,2.4,7.2,3.3c-1.8,2.1-6.8,0-13.1-6.1c4.6-2.3,8.9-4.5,14.3-7.3c-2.7-1.3-4.5-2.1-6.3-3
		c2.4-1.8,6.1-0.2,12.3,5.5C96.1,32.8,91.6,35.2,86.2,38z"/>
	<path d="M104.8,33.4c3.6,3.6,6.1,6.9,1,11c3.3,0.7,5.9,1.2,8.5,1.7c0,0.6-0.1,1.2-0.1,1.8c-5.8-0.8-12-3.1-15.5,4.8
		c-1.6-2.4-2.9-4.3-4.2-6.3C100.6,44.9,102.5,42.6,104.8,33.4z"/>
	<path d="M104.4,107.7c-3.7,2.3-7.4,4.5-11.9,7.2c0-5.4,0-9.9,0-15.5c-2.3,1.4-3.8,2.3-5.4,3.3c1.4-4.7,5.9-5.3,10-7.8
		c0,5.4,0,10,0,15.4c2.4-1.5,4.4-2.8,6.3-4C103.8,106.7,104.1,107.2,104.4,107.7z"/>
</g>
</svg>
