<?xml version="1.0" encoding="utf-8"?>
<!-- Generator: Adobe Illustrator 19.0.0, SVG Export Plug-In . SVG Version: 6.00 Build 0)  -->
<svg version="1.1" id="Calque_1" xmlns="http://www.w3.org/2000/svg" xmlns:xlink="http://www.w3.org/1999/xlink" x="0px" y="0px"
	 viewBox="0 0 391.4 68.9" enable-background="new 0 0 391.4 68.9" xml:space="preserve">
<g id="XMLID_2_">
	<path id="XMLID_17_" d="M33.3,6.6c0,0.4-0.1,0.8-0.2,1.1c-0.3,0.5-0.7,0.9-1.3,1.2c-0.2,0.1-0.5,0.2-0.7,0.2l-0.7,0.2
		c-0.4,0-0.8,0.1-1.3,0.2c-1.3,0.2-2.5,0.4-3.8,0.4c-0.6,0-5.3,0.1-8.6,0.2c-1.8,0.1-3.2,0.1-3.2,0.1c-0.1,0-0.2,1.4-0.4,3.2
		c-0.4,3.2-0.7,7.7-0.7,8.8c0.3,0,1-0.2,1.7-0.5c1.9-0.7,4.7-1.6,7.7-1.6c2.5,0,5,0.7,7.3,2.5c0.1,0.1,0.3,0.2,0.4,0.4
		s0.2,0.4,0.3,0.5c0.2,0.4,0.4,0.7,0.4,1c0,0.2-0.1,0.3-0.1,0.5c-0.2,0.4-0.7,0.7-1.4,0.9c-1,0.3-2,0.4-3,0.4c-0.5,0-1.1,0-1.6,0.1
		c-2.6,0.3-5,1.2-7.4,2.1l-0.5,0.2c-1,0.3-2.5,1.3-3.7,2.4c-1,0.9-1.9,1.9-2.1,2.7c-0.3,0.9-0.6,1.9-0.8,2.8c-0.3,1-0.5,1.9-0.6,2.9
		l-0.1,0.1c-0.4,3-0.8,5.9-0.9,8.9c0,0.5-0.1,1-0.1,1.4c-0.1,0.8-0.1,1.7-0.1,2.5c0,0.6,0,1.2,0.1,1.9c0,0.2,0.1,0.4,0.1,0.5
		c0,0.7-0.2,1.1-0.6,1.4c-0.2,0.2-0.5,0.3-0.9,0.3c-0.3,0-0.7-0.1-1.1-0.2c-0.9-0.2-1.6-0.6-2.2-1.1c-0.7-0.5-1.2-1.1-1.6-2
		c-1.2-2.1-1.3-4.4-1.3-6.3c-0.1-0.4-0.1-0.9-0.1-1.3v-0.1c0-4.3,0.6-7.9,1.1-11.4l0.1-0.4c0,0,2.5-23.3,2.8-27.2V6.4
		c0-3.1,3-4.3,6.8-4.6c0.9-0.1,1.9-0.1,2.8-0.1c2.3,0,4.8,0.2,6.9,0.4c1.6,0.1,3.1,0.2,4.1,0.2h0.8c0.9-0.1,1.8-0.1,2.6-0.1
		c2.6,0,4.6,0.7,5.3,3.8C33.3,6.2,33.3,6.4,33.3,6.6z"/>
	<path id="XMLID_19_" d="M40.4,21.2c0,0.2,0,0.5,0,0.8c-0.8,7.7-2.4,15.4-3.7,23c-0.4,2.5-0.8,4.5-2.2,4.6c-0.7,0.1-1.7-0.4-3.2-1.7
		c-1.1-1-1.6-2.4-1.6-4c-0.1-1.4,0.1-3,0.2-4.3c0.4-4.8,3.8-18.7,3.7-21.2c-0.1-1.1,0.3-1.7,1.1-1.8c0.3-0.1,0.7,0.1,1.1,0.2
		C37.9,17.6,40.2,18.8,40.4,21.2z M41.2,9.8c0.1,0.2,0,0.5,0,0.7c-0.4,1.5-1,2.9-1.7,4.3c-0.4,0.7-0.8,0.8-1.4,0.9h-0.4
		c-2-0.2-2.7-1-2.9-3.8c0-1.4,0-3.2,0.1-5C35,6,35.4,5.6,36.1,5.6h0.2c1.5,0,4.1,1.9,4.7,3.4C41.2,9.2,41.2,9.5,41.2,9.8z"/>
	<path id="XMLID_22_" d="M68.1,24.7c0,0.1-0.1,0.2-0.1,0.4c-1.1,5.4-1.6,11.2-2.6,16.6c-0.3,1.5-0.7,2.9-1.6,4.6
		c-0.6,1.1-1.1,2-2.5,2.2h-0.3c-1.9-0.4-3.2-1.1-3.7-2.3c-0.4-0.8-0.5-1.6-0.5-2.4c0-0.4,0.1-0.9,0.1-1.4c0.7-3.2,1.2-6.4,1.8-9.6
		c0.1-0.8,0.2-1.6,0.4-2.4c-0.2-0.1-0.3-0.1-0.4-0.1c-3.8,5.5-6.7,11-10.7,16.7c-0.2,0.3-0.6,0.4-1,0.4s-0.7-0.1-1-0.2
		c-2.6-0.4-4.4-1.5-4.4-3.7c0-0.5,0.1-1,0.2-1.5c1-3.4,3.7-17.8,4.2-21.6c0.1-0.9,0.6-1.1,1.4-1.1c3.2-0.1,5.7,1.1,5.7,4
		c0,0.4-0.1,0.7-0.1,1.1c-0.1,0.4-1.7,10.1-1.7,10.3c0.9,0,8.1-11,9.2-13.4c0.4-0.8,0.7-1.2,1.3-1.2c0.3,0,0.7,0.1,1.1,0.2
		C65.2,20.6,68.1,22.6,68.1,24.7z"/>
	<path id="XMLID_24_" d="M83.4,15.7c4.7,0,11,6.2,11,10.9v0.4c-0.8,9.2-4.6,21.5-6.9,30.7c-1.1,4.3-1.6,6.4-4.6,9.8
		c-0.7,0.8-2.3,1.4-4.3,1.4c-4.1,0-9.5-2.5-9.5-9.2c0-1.3,0.2-2.8,0.7-4.4c0.2-0.5,0.4-1.1,1.3-1.4c0.5,2.7,0.1,9.4,3.1,10
		c0.3,0.1,0.5,0.1,0.8,0.1c1.3,0,2.4-0.7,3.1-1.8c3.3-5.2,5.3-18.5,7-25c0.1-0.4,0.3-0.9,0.3-1.4c0-0.1-0.1-0.3-0.1-0.4
		c-2.4,2.2-5.6,8.8-9,8.8c-0.2,0-0.5-0.1-0.7-0.1c-3.1-0.9-5.5-3.7-5.8-7.1c-0.1-0.4-0.1-0.7-0.1-1.1c0-5,2.9-11.2,5.7-14.9
		c1.7-2.2,3.8-3.8,6.2-4.9C82.1,15.8,82.7,15.7,83.4,15.7z M88.6,22.8c0-0.7-0.5-1-1.4-1.1h-0.3c-1,0-1.7,0.4-2.5,1
		c-4.9,3.8-8,9.7-9.1,14.3C77,36.5,88,24.8,88.4,23.6C88.5,23.3,88.6,23,88.6,22.8z"/>
	<path id="XMLID_27_" d="M119.2,37.6c0.1,0,0.2,0.1,0.3,0.2c0.1,0.1,0.2,0.2,0.2,0.4c0,0.2-0.1,0.4-0.1,0.6
		c-0.5,2.4-3.4,8.4-8.1,10.3c-0.9,0.5-1.8,0.8-2.8,0.8c-0.8,0-1.6-0.1-2.3-0.4c-3.5-1-5.6-3.5-7-6.8c-1-2.3-1.4-4.6-1.4-6.8
		c0-3.8,1.3-7.4,3.1-11c1.4-2.6,3.4-4.6,5.8-6.4c2.3-1.7,4.4-2.5,6.3-2.5c4.4,0,7.3,4,7.3,8.2c0,4.4-3.3,8.9-11.6,8.9
		c-1.2,0-2.6-0.1-4.1-0.3c-0.8,3.1-1.1,4.4-1.1,6c0,0.7,0.1,1.6,0.2,2.6c0.2,2.6,1.4,3.6,2.9,3.6c3.8,0,10-5.8,11.9-7.1
		C118.7,37.8,119,37.6,119.2,37.6z M107.9,27.8c0,0.1,0,0.2,0.1,0.2c0.2,0.3,0.5,0.4,0.8,0.4c0.3,0,0.7-0.1,1-0.1
		c2.9-0.2,5.6-2.1,7.3-4.4c0.1-0.3,0.2-0.5,0.2-0.7c0-0.6-0.4-1-1.2-1c-0.2,0-0.5,0.1-0.7,0.1c-0.2,0.1-0.5,0.1-0.7,0.2
		C113.2,22.9,107.9,26.3,107.9,27.8z"/>
	<path id="XMLID_30_" d="M142.1,32.6c0,0.8-0.6,1.1-1.6,1.1c-2.7,0-4.5-2.2-5.4-4.4c-1.7,0.2-5.7,13.8-6,16.7
		c-0.1,1.2-0.3,1.4-1.4,1.6h-0.4c-2.2,0-5.4-2-5.4-4.3c0.7-8.9,2.2-17.6,2.4-23v-0.2c0-1,0.4-1.4,1.4-1.4c4.7,0,5.6,2.5,5.6,5.2
		c0,1.7-0.4,3.4-0.4,4.6v0.1c0.4-1.4,2.8-8.2,4.5-8.3h0.2c2.4,0,4.9,2.2,5.4,4.5c0.4,2.5,0.4,5,1,7.4
		C142.1,32.5,142.1,32.6,142.1,32.6z"/>
	<path id="XMLID_32_" d="M175.1,27.2c0,8.2-2.8,21-10.9,21.2h-0.7c-2.2,0-4.4-0.5-6.1-2c-0.5-0.5-1-0.9-1.1-1.6v-0.2
		c0-0.4,0.2-0.7,0.7-0.7h0.2c0.5,0.1,0.8,0.3,1.3,0.5c0.5,0.3,1,0.4,1.4,0.4c0.6,0,1.2-0.2,1.8-0.7c3.8-2.8,6.5-15.8,6.5-21.2
		c0-0.4,0-0.8-0.1-1.1v-0.6c0-0.4-0.1-0.7-0.4-1c-6.1,3.7-10.7,20.2-15.5,27.2c-0.6,0.8-1.3,1.2-2.2,1.2c-0.5,0-0.9-0.1-1.4-0.2
		c-2.2-0.8-4.4-2.5-4.6-4.9v-1c0-2.6,0.5-5,1.3-7.4c1.9-6.5,3.7-13.1,5.3-19.7c0.6-2.5,2.5-9.6,2.5-12.8c0-0.3,0-0.5-0.1-0.8
		c-0.1-0.2-0.1-0.4-0.1-0.5c0-0.8,0.5-1.1,1.4-1.1h0.3c3.4,0,6.1,2.8,6.1,6.1v0.1c0,6.3-4.1,19.1-6,26.1c-0.1,0.4-0.2,0.7-0.2,1.1
		v0.4c2.2-4.9,7-17.9,13.3-17.9c0.7,0,1.4,0.2,2.2,0.5c2.8,1.4,4.1,3.6,4.6,6.7C175,24.4,175.1,25.7,175.1,27.2z"/>
	<path id="XMLID_34_" d="M194.4,29.8c0,5.3-2.8,11.2-5.6,15.4c-1,1.3-2.4,2-4,2c-1.3,0-2.5-0.4-3.7-1.3c-3.3-2.5-4.1-5.8-4.3-9.6
		v-0.1c0-4.7,2.9-16.7,8.7-16.7c0.5,0,1,0.1,1.5,0.2C192.5,21.5,194.4,25.4,194.4,29.8z M188,35.2c-1.4,0.4-2.6,0.8-4,1
		c-0.8,0.1-1.1,1.3-1.1,2.5c0,1.6,0.5,3.2,1,3.4C185.6,40.7,187.1,37.8,188,35.2z M189.9,26.3c0-1.7-0.7-3.4-2-4.1
		c-2.5,2-3.4,8.3-3.4,10.2c1.6-0.8,2.8-1.7,3.9-2.6C189.4,29.1,189.9,27.7,189.9,26.3z"/>
	<path id="XMLID_38_" d="M223.1,27.7c0,0.2,0,0.5-0.1,0.7c-1.4,6.3-4,12.7-4.3,19.3c-0.1,0.8-0.2,1.9-1.1,2.2
		c-0.2,0.1-0.5,0.1-0.8,0.1c-0.7,0-1.3-0.3-1.9-0.8c-1.8-1.6-2.3-3.7-2.5-5.9v-3.5c-1.5,2.5-4.7,6.6-7.1,8.1c-0.7,0.4-1.4,0.6-2,0.6
		c-1,0-1.9-0.4-2.8-0.8c-3.2-1.9-4.8-4.7-4.8-8.5V39c0.1-6.1,2-11.5,5.9-16.1c0.9-1,2-1.9,3.1-2.6c1.4-1,2.7-1.3,4-1.3
		c1.9,0,3.8,0.8,5.6,1.8c2.4,1.3,6.2,3.2,7.9,4.9C222.9,26.3,223.1,26.9,223.1,27.7z M214.6,25.9c0-0.2-0.1-0.4-0.3-0.7
		c-0.5-0.6-1.1-0.8-1.6-0.8c-1.2,0-2.4,1.3-3.5,2.3c-3.1,3.1-5,7-6.2,11.2c-0.3,1-0.5,2-0.5,3.2v0.4c1-0.2,10-12.7,11.6-14.6
		C214.4,26.5,214.6,26.3,214.6,25.9z"/>
	<path id="XMLID_41_" d="M244.7,32.6c0,0.8-0.6,1.1-1.6,1.1c-2.7,0-4.5-2.2-5.4-4.4c-1.7,0.2-5.7,13.8-6,16.7
		c-0.1,1.2-0.3,1.4-1.4,1.6h-0.4c-2.2,0-5.4-2-5.4-4.3c0.7-8.9,2.2-17.6,2.4-23v-0.2c0-1,0.4-1.4,1.4-1.4c4.7,0,5.6,2.5,5.6,5.2
		c0,1.7-0.4,3.4-0.4,4.6v0.1c0.4-1.4,2.8-8.2,4.5-8.3h0.2c2.4,0,4.9,2.2,5.4,4.5c0.4,2.5,0.4,5,1,7.4
		C244.7,32.5,244.7,32.6,244.7,32.6z"/>
	<path id="XMLID_43_" d="M276.1,5.5c0,0.2,0,0.5-0.1,0.7c-0.7,3.7-2.2,11-6.5,36.1l-0.4,3.8c-0.1,1-0.7,1.5-1.7,1.5
		c-0.1,0-0.2,0-0.4-0.1c-2-0.3-3.3-1.7-3.7-3.9c-0.2-1-0.4-2.1-0.5-3.1c-1.9,2.9-3.8,8-7.6,8c-0.6,0-1.2-0.1-1.9-0.4
		c-3.2-1.3-5.6-3.6-6.3-7.2c-0.2-0.8-0.2-1.7-0.2-2.5c0-1.2,0.1-2.3,0.4-3.4c1.3-5.9,3.3-11.5,7.2-16.4c0.8-1,1.7-1.9,2.9-2.6
		c1.1-0.8,2.8-1.2,4.4-1.2c1.7,0,3.5,0.5,4.5,1.5l4-15.1c0.3-0.8,0.7-1.3,1.3-1.3c0.2,0,0.4,0,0.7,0.1
		C274.3,0.7,276.1,3.2,276.1,5.5z M264.9,21.2c0-0.5-0.5-1-1.1-1c-0.2,0-0.4,0.1-0.5,0.1c-2.2,1.3-4.6,6.1-5.7,8.3
		c-1.7,3.8-2.8,7.8-3.5,11.9c-0.1,0.2-0.1,0.5-0.1,0.8c0,0.3,0.1,0.6,0.2,1c4.7-5.6,9.2-13.7,10.7-20.9L264.9,21.2z"/>
	<path id="XMLID_46_" d="M321.6,37c0,0.1-0.1,0.2-0.1,0.4c-0.5,1.6-1.7,3.4-3.2,5.2c-1.5,1.8-3.4,3.5-5.3,4.6
		c-1.4,0.7-2.8,1.1-4.1,1.1c-0.6,0-1.2-0.1-1.7-0.3s-1.1-0.5-1.6-0.9c-1.7-1.4-2.8-3.1-3.6-4.9c-0.8-1.8-1.1-3.8-1.2-5.9V36
		c0-3.7,1.3-7.8,3.5-11.3c2.2-3.4,5.1-6.3,8.4-7.6c0.5-0.2,1.1-0.4,1.7-0.4c0.7,0,1.4,0.2,2,0.5c1.4,0.6,2.6,1.8,3.2,2.9
		c0.3,0.4,0.4,0.8,0.4,1.1c0,0.2-0.1,0.4-0.1,0.5c-0.2,0.4-0.6,0.8-1.3,1.1c-3.8,1.9-6.8,4.5-9,7.7c-2,3.2-3.2,6.9-3.2,11
		c0,0.4,0.1,0.6,0.1,0.8c0.2,0.4,0.7,0.5,1.3,0.5h0.4c0.8-0.1,1.9-0.5,3.1-1.1c3.5-1.7,7.7-4.7,8.3-5.3c0.1-0.1,0.1-0.1,0.2-0.2
		c0.1,0,0.1-0.1,0.2-0.1c0.2-0.1,0.4-0.2,0.5-0.2c0.2,0,0.4,0,0.7,0.2c0.2,0.1,0.3,0.3,0.3,0.5C321.5,36.8,321.6,36.9,321.6,37z"/>
	<path id="XMLID_48_" d="M336.2,6.3c-2,10.9-5.1,23.5-5.1,34.8c0,1.1,0.1,2.3,0.1,3.4v1.1c0,1-0.1,1.9-1.1,2.3
		c-0.2,0.1-0.4,0.1-0.7,0.1c-1,0-2.4-0.5-2.9-1.1c-0.8-1.1-1.5-2.4-1.8-3.8c-0.2-1.3-0.4-2.8-0.4-4.7c0-10.1,3.1-27.8,5.3-35.3
		c0.1-0.5,0.3-0.8,0.9-1h0.3C332.8,2,336.2,4.4,336.2,6.3L336.2,6.3z"/>
	<path id="XMLID_50_" d="M355.4,20.7c1.4,0,3.5,1.1,3.5,3.7v0.1c-0.2,3.5-1.9,8.8-3.1,16.2c-0.8,4.9-2,6.6-5.3,6.6
		c-0.4,0-0.9,0-1.4-0.1c-0.1,0-0.2-0.3-0.2-0.7c0-1,0.4-2.8,0.4-2.8c-2.3,2.1-4.4,3.5-6.6,3.5c-1.1,0-2.3-0.4-3.6-1.4
		c-2.4-1.9-3.2-4.6-3.2-7.7c0-2.8,0.7-5.9,1.4-9c0.9-3.6,2.4-7,3.1-10.7c0.2-0.8,0.5-1.1,1.2-1.1c0.1,0,0.3,0,0.4,0.1
		c1.7,0.2,3.6,2.5,4.4,3.9c0.2,0.3,0.2,0.5,0.2,0.8c0,0.4-0.1,0.7-0.2,1c-0.6,2-3.8,13.6-3.8,18.6c0,1.3,0.2,2.2,0.7,2.3
		c0.1,0,0.2,0.1,0.2,0.1c0.4,0,0.6-0.4,0.8-0.6c3.7-3.5,8.3-16.5,9.5-22C354.1,20.9,354.7,20.7,355.4,20.7z"/>
	<path id="XMLID_52_" d="M391.4,27.2c0,8.2-2.8,21-10.9,21.2h-0.7c-2.2,0-4.4-0.5-6.1-2c-0.5-0.5-1-0.9-1.1-1.6v-0.2
		c0-0.4,0.2-0.7,0.7-0.7h0.2c0.5,0.1,0.8,0.3,1.3,0.5c0.5,0.3,1,0.4,1.4,0.4c0.6,0,1.2-0.2,1.8-0.7c3.8-2.8,6.5-15.8,6.5-21.2
		c0-0.4,0-0.8-0.1-1.1v-0.6c0-0.4-0.1-0.7-0.4-1c-6.1,3.7-10.7,20.2-15.5,27.2c-0.6,0.8-1.3,1.2-2.2,1.2c-0.5,0-0.9-0.1-1.4-0.2
		c-2.2-0.8-4.4-2.5-4.6-4.9v-1c0-2.6,0.5-5,1.3-7.4c1.9-6.5,3.7-13.1,5.3-19.7c0.6-2.5,2.5-9.6,2.5-12.8c0-0.3,0-0.5-0.1-0.8
		c-0.1-0.2-0.1-0.4-0.1-0.5c0-0.8,0.5-1.1,1.4-1.1h0.3c3.4,0,6.1,2.8,6.1,6.1v0.1c0,6.3-4.1,19.1-6,26.1c-0.1,0.4-0.2,0.7-0.2,1.1
		v0.4c2.2-4.9,7-17.9,13.3-17.9c0.7,0,1.4,0.2,2.2,0.5c2.8,1.4,4.1,3.6,4.6,6.7C391.4,24.4,391.4,25.7,391.4,27.2z"/>
</g>
</svg>
