<?xml version="1.0" encoding="utf-8"?>
<!-- Generator: Adobe Illustrator 19.0.0, SVG Export Plug-In . SVG Version: 6.00 Build 0)  -->
<svg version="1.1" id="Calque_1" xmlns="http://www.w3.org/2000/svg" xmlns:xlink="http://www.w3.org/1999/xlink" x="0px" y="0px"
	 viewBox="0 0 330.3 122.6" enable-background="new 0 0 330.3 122.6" xml:space="preserve">
<path fill="#FFFFFF" d="M267.9-523.9c0-98.9,0-197.8,0-296.6c0-0.8,0.1-1.5,0-2.2c-0.1-0.9,0.1-1.3,1.1-1.2c0.7,0.1,1.5,0,2.2,0
	c197.8,0,395.5,0,593.3,0c0.8,0,1.5,0.1,2.2,0c0.9-0.1,1.3,0.1,1.2,1.1c-0.1,0.7,0,1.5,0,2.2c0,197.8,0,395.5,0,593.3
	c0,0.8-0.1,1.5,0,2.2c0.1,0.9-0.1,1.3-1.1,1.2c-0.7-0.1-1.5,0-2.2,0c-197.8,0-395.5,0-593.3,0c-0.8,0-1.5-0.1-2.2,0
	c-0.9,0.1-1.3-0.1-1.2-1.1c0.1-0.7,0-1.5,0-2.2C267.9-326.2,267.9-425,267.9-523.9z M559.7-488.7c0,0.1,0,0.3,0,0.4
	c4.4,0,8.7-0.1,13.1,0c13.9,0.3,27.7,0.7,41.6,1c0.5,0,1,0,1.5,0.1c2.1,0.3,2.5,0.7,2.6,2.9c0,2-0.1,4-0.1,6
	c-0.3,10.5,11.9,23.3,23.5,20.5c9.7-2.4,17.2-10.8,15.9-20.7c-0.2-1.6-0.8-3.1-1.2-4.7c-0.9-3.4-0.5-4,3-4.1
	c6.1-0.2,12.2-0.5,18.4-0.6c4.8-0.1,9.4-1.3,13.8-3.1c11.8-4.9,21.5-12.5,29.8-22.1c4-4.7,7.2-9.9,9.2-15.8
	c1.8-5.2,2.2-10.4,0.4-15.7c-3.9-11.2-11.5-19.1-21.9-24.5c-5-2.6-10.1-3.4-15.6-1.8c-3.6,1.1-7.2,2-10.8,3.1
	c-5.7,1.8-11.3,3.9-17.1,5.6c-8.5,2.4-17.2,3.1-26,2.9c-6.6-0.1-13.2-0.4-19.9-0.5c-4.4-0.1-8.7,0-13.1,0c-35.7,0-71.5,0.1-107.2,0
	c-4.1,0-8.3,0-12.3-0.6c-12.2-1.8-23.7-6-34.5-12.1c-7.4-4.2-15.5-6.3-23.8-7.5c-3.1-0.4-6.1,0.1-8.4,2.3c-2.7,2.6-5.5,5.1-7.7,8.1
	c-8.7,11.4-11.9,24.3-10.4,38.5c0.9,8.4,4.4,15.5,11.4,20.7c5.5,4.1,11.4,7.2,17.7,9.7c11.1,4.5,22.6,7.1,34.4,8.8
	c3.6,0.5,7.2,1,10.7,1.6c2.7,0.5,3.1,1.2,2.3,3.9c-0.3,1.1-0.7,2.1-1,3.2c-3.2,11.8,5.2,20.8,13.3,23c8.8,2.4,22.2-2.5,24.8-15.5
	c0.6-2.9,0.7-5.9,0.8-8.9c0.2-4.1,0.1-4.1,4.3-4.2c0.2,0,0.5,0,0.7,0C534.4-488.7,547.1-488.7,559.7-488.7z"/>
<path d="M157.7,91.3c-12.6,0-25.2,0-37.9,0c-0.2,0-0.5,0-0.7,0c-4.2,0.1-4.1,0.1-4.3,4.2c-0.1,3-0.3,6-0.8,8.9
	c-2.6,12.9-15.9,17.9-24.8,15.5c-8.1-2.2-16.6-11.2-13.3-23c0.3-1.1,0.7-2.1,1-3.2c0.8-2.7,0.4-3.4-2.3-3.9
	c-3.6-0.6-7.2-1.1-10.7-1.6c-11.8-1.8-23.3-4.4-34.4-8.8c-6.3-2.5-12.2-5.6-17.7-9.7C4.8,64.5,1.3,57.4,0.4,49
	c-1.5-14.1,1.7-27.1,10.4-38.5c2.3-3,5-5.5,7.7-8.1c2.3-2.2,5.3-2.7,8.4-2.3c8.3,1.2,16.3,3.3,23.8,7.5
	c10.7,6.1,22.2,10.3,34.5,12.1c4.1,0.6,8.2,0.6,12.3,0.6c35.7,0,71.5,0,107.2,0c4.4,0,8.7-0.1,13.1,0c6.6,0.1,13.2,0.4,19.9,0.5
	c8.8,0.1,17.5-0.5,26-2.9c5.8-1.7,11.4-3.8,17.1-5.6c3.6-1.1,7.2-2.1,10.8-3.1c5.5-1.6,10.6-0.8,15.6,1.8
	c10.4,5.4,18,13.3,21.9,24.5c1.9,5.4,1.5,10.5-0.4,15.7c-2.1,5.9-5.2,11.1-9.2,15.8c-8.3,9.6-18,17.3-29.8,22.1
	c-4.4,1.8-9,2.9-13.8,3.1c-6.1,0.2-12.2,0.4-18.4,0.6c-3.5,0.1-3.9,0.8-3,4.1c0.4,1.6,1,3.1,1.2,4.7c1.3,9.9-6.2,18.3-15.9,20.7
	c-11.6,2.8-23.8-10-23.5-20.5c0.1-2,0.1-4,0.1-6c0-2.2-0.4-2.6-2.6-2.9c-0.5-0.1-1-0.1-1.5-0.1c-13.9-0.3-27.7-0.7-41.6-1
	c-4.4-0.1-8.7,0-13.1,0C157.7,91.6,157.7,91.5,157.7,91.3z M95.1,118.5c2.9,0.2,5.7,0,8.3-1.5c6.7-3.8,10.2-11.6,8.2-19.1
	c-1.4-5.3-2.2-6.1-7.5-6.6c-5.6-0.6-11.1-1.1-16.7-1.5c-3-0.2-5.6,0.6-7.5,3.3c-3.5,4.9-3.7,11.7-0.6,16.9
	C83,115.9,88.1,119,95.1,118.5z M236.8,92.5C236.8,92.5,236.8,92.5,236.8,92.5c-3.5,0-7,0.1-10.5,0c-2,0-3.3,0.8-4.4,2.3
	c-2.4,3.6-3.4,7.4-2.6,11.7c1.9,9.6,10.7,15.3,20.7,13.6c11.7-2,17.6-14.1,11.7-24.9c-1.1-1.9-2.5-2.9-4.8-2.8
	C243.5,92.6,240.1,92.5,236.8,92.5z M95.4,60.8c1-0.1,1.3,0,1.5-0.1c0.6-0.3,1.2-0.8,1.7-1.1C98.3,59,98,58.2,97.5,58
	c-1.6-0.5-3.4-0.9-5.1-1.1c-0.5-0.1-1.3,0.6-1.6,1.2c-0.1,0.3,0.4,1.3,0.8,1.4C93.1,60.1,94.6,60.5,95.4,60.8z M236.1,60
	c1.6,0,3.6-1.4,3.1-2c-0.8-0.8-2-1.6-3.1-1.6c-1.3,0-3.2-0.4-3.9,1.5C231.9,58.8,234.2,60,236.1,60z M233,41.4
	c0.9-0.1,1.6-0.1,2.1-0.3c0.5-0.2,1.1-0.8,1.1-1.2c0-0.4-0.6-1.1-1.1-1.2c-1.4-0.4-2.9-0.6-4.3-0.7c-0.6,0-1.1,0.7-1.7,1.1
	c0.4,0.6,0.7,1.3,1.3,1.6C231.4,41.2,232.4,41.3,233,41.4z M97.4,41.6c1-0.3,1.9-0.6,2.8-1c0.2-0.1,0.1-1.4-0.1-1.5
	c-1.8-0.4-3.6-0.7-5.4-0.9c-0.3,0-0.9,0.6-1,1c-0.1,0.4,0.2,1.1,0.5,1.2C95.2,40.8,96.3,41.1,97.4,41.6z"/>
<path fill="#FFFFFF" d="M95.1,118.5c-7,0.5-12.2-2.7-15.8-8.6c-3.1-5.2-2.9-12,0.6-16.9c1.9-2.6,4.5-3.5,7.5-3.3
	c5.6,0.5,11.2,1,16.7,1.5c5.3,0.5,6.1,1.3,7.5,6.6c2,7.5-1.5,15.3-8.2,19.1C100.8,118.5,98,118.7,95.1,118.5z M102.9,103.4
	c0.5-4.5-2.7-8.6-8.5-8.8c-4.8-0.2-8.6,3.6-8.7,8.4c0,4.9,3.6,8.3,9,8.4C99.9,111.5,102.8,108.7,102.9,103.4z"/>
<path fill="#FFFFFF" d="M236.8,92.5c3.4,0,6.7,0.1,10.1,0c2.3-0.1,3.7,0.9,4.8,2.8c5.9,10.7,0.1,22.9-11.7,24.9
	c-10,1.7-18.8-4-20.7-13.6c-0.8-4.3,0.1-8.1,2.6-11.7c1.1-1.5,2.4-2.4,4.4-2.3C229.8,92.6,233.3,92.5,236.8,92.5
	C236.8,92.5,236.8,92.5,236.8,92.5z M228.1,104.6c0,5.1,2.6,8.6,6.9,9.3c4,0.6,6.6-1.8,8.6-4.8c2.2-3.1,2-6.4,0-9
	c-2.3-2.9-6.9-4.2-10.6-3C229.8,98.1,228.1,100.7,228.1,104.6z"/>
<path fill="#FFFFFF" d="M95.4,60.8c-0.8-0.3-2.4-0.7-3.8-1.3c-0.4-0.2-1-1.2-0.8-1.4c0.3-0.5,1.1-1.2,1.6-1.2
	c1.7,0.2,3.4,0.6,5.1,1.1c0.5,0.2,0.8,1,1.2,1.6c-0.6,0.4-1.1,0.8-1.7,1.1C96.8,60.8,96.5,60.8,95.4,60.8z"/>
<path fill="#FFFFFF" d="M236.1,60c-2,0-4.2-1.1-3.9-2.1c0.7-1.8,2.5-1.5,3.9-1.5c1.1,0,2.3,0.8,3.1,1.6
	C239.7,58.6,237.8,60,236.1,60z"/>
<path fill="#FFFFFF" d="M233,41.4c-0.6-0.1-1.7-0.2-2.5-0.6c-0.6-0.3-0.9-1.1-1.3-1.6c0.6-0.4,1.1-1.1,1.7-1.1
	c1.5,0,2.9,0.3,4.3,0.7c0.5,0.1,1.1,0.8,1.1,1.2c0,0.4-0.7,1-1.1,1.2C234.7,41.3,234,41.3,233,41.4z"/>
<path fill="#FFFFFF" d="M97.4,41.6c-1.1-0.4-2.2-0.7-3.2-1.2c-0.3-0.2-0.6-0.9-0.5-1.2c0.1-0.4,0.7-1,1-1c1.8,0.2,3.6,0.5,5.4,0.9
	c0.1,0,0.3,1.3,0.1,1.5C99.3,41,98.4,41.2,97.4,41.6z"/>
<path d="M102.9,103.4c-0.1,5.3-2.9,8.1-8.2,8c-5.4-0.1-9.1-3.5-9-8.4c0-4.8,3.8-8.5,8.7-8.4C100.1,94.8,103.4,98.9,102.9,103.4z"/>
<path d="M228.1,104.6c0-3.9,1.6-6.5,4.9-7.6c3.7-1.2,8.3,0.1,10.6,3c2.1,2.7,2.2,5.9,0,9c-2.1,2.9-4.6,5.4-8.6,4.8
	C230.7,113.2,228.2,109.7,228.1,104.6z"/>
</svg>
