<?xml version="1.0" standalone="no"?>
<!DOCTYPE svg PUBLIC "-//W3C//DTD SVG 20010904//EN"
 "http://www.w3.org/TR/2001/REC-SVG-20010904/DTD/svg10.dtd">
<svg version="1.0" xmlns="http://www.w3.org/2000/svg"
 width="400.000000pt" height="400.000000pt" viewBox="0 0 400.000000 400.000000"
 preserveAspectRatio="xMidYMid meet">

<g transform="translate(0.000000,400.000000) scale(0.100000,-0.100000)"
fill="#000000" stroke="none">
<path d="M1629 3655 c-3 -2 -111 -18 -239 -36 -129 -17 -244 -32 -255 -34 -11
-1 -43 -6 -70 -9 -75 -10 -121 -24 -173 -53 -138 -76 -217 -189 -241 -344 -45
-293 -31 -463 58 -699 16 -41 50 -133 76 -205 87 -238 103 -271 143 -298 70
-48 74 -48 242 5 85 27 207 65 270 85 255 79 304 97 337 126 82 73 61 212 -41
262 -52 26 -66 24 -366 -66 l-65 -19 -24 24 c-22 23 -23 26 -9 48 15 22 131
65 315 114 l61 17 7 46 c4 25 15 61 25 81 22 43 80 102 117 119 16 8 36 17 45
22 24 12 130 11 162 -1 23 -8 28 -6 41 20 32 63 130 112 222 113 35 0 63 2 63
4 0 2 -55 113 -122 245 -107 211 -130 249 -181 299 -63 63 -151 111 -235 128
-53 11 -155 15 -163 6z"/>
<path d="M2207 2865 c-21 -7 -47 -21 -57 -30 -28 -26 -60 -96 -60 -133 0 -39
-5 -40 -36 -3 -46 55 -144 69 -214 30 -48 -27 -77 -66 -89 -118 -7 -33 -6 -43
8 -56 10 -8 22 -15 28 -15 6 0 31 -18 56 -40 112 -99 110 -290 -5 -383 -52
-42 -83 -55 -218 -97 -58 -17 -157 -47 -220 -67 -63 -19 -144 -45 -180 -57
-79 -28 -72 -3 -96 -306 -3 -36 -7 -78 -9 -95 -2 -16 -7 -72 -11 -122 -3 -51
-10 -93 -14 -93 -4 0 -27 7 -50 15 -23 8 -61 15 -83 15 -36 0 -47 -6 -88 -49
-88 -91 -137 -234 -125 -361 12 -120 65 -189 194 -254 76 -38 208 -79 317 -97
63 -11 81 -13 122 -18 9 -1 8 -11 -4 -38 -43 -104 35 -223 145 -223 100 0 175
83 175 192 l0 58 222 0 c122 0 309 -3 416 -6 l194 -7 -3 -51 c-5 -77 37 -152
103 -188 52 -27 95 -36 95 -18 0 6 10 10 21 10 30 0 95 68 107 112 9 35 5 78
-13 121 -7 16 2 17 97 17 122 0 178 14 266 67 151 91 267 250 267 363 -1 144
-164 311 -293 298 -26 -3 -96 -24 -157 -47 -139 -52 -193 -61 -392 -61 -159 0
-162 0 -168 23 -4 12 -85 178 -181 370 -96 191 -172 347 -168 347 3 0 27 -7
53 -16 65 -23 122 -7 177 51 63 65 68 149 13 243 -26 45 -25 46 19 18 102 -68
244 -14 272 105 7 27 9 62 5 77 -12 47 -214 443 -244 476 -40 46 -128 65 -194
41z m-412 -1302 c116 -230 211 -420 213 -423 1 -3 -113 -4 -254 -2 l-257 3 7
97 c4 53 11 135 16 182 5 47 12 119 15 160 7 96 25 287 30 320 2 14 4 37 4 53
1 15 4 27 9 27 4 0 102 -188 217 -417z m-240 -594 c4 -6 5 -13 1 -16 -8 -8
-56 6 -56 17 0 13 47 13 55 -1z m1138 -4 c-4 -15 -56 -12 -61 3 -3 10 5 13 29
10 19 -2 33 -7 32 -13z m-1135 -163 c3 -10 -5 -13 -29 -10 -18 2 -34 9 -37 16
-3 10 5 13 29 10 18 -2 34 -9 37 -16z m1160 6 c-3 -7 -17 -13 -33 -13 -16 0
-30 6 -32 13 -3 8 7 12 32 12 25 0 35 -4 33 -12z m-1079 -303 c7 -7 17 -31 21
-54 9 -53 -17 -113 -62 -141 -48 -31 -128 -24 -168 15 -53 50 -62 122 -24 179
15 25 18 25 117 19 62 -3 107 -11 116 -18z m1174 -26 c34 -61 12 -145 -49
-185 -35 -23 -113 -23 -148 0 -61 40 -84 127 -49 187 l17 29 106 0 105 0 18
-31z"/>
<path d="M1462 477 c-46 -49 -9 -127 61 -127 41 0 66 24 71 69 8 72 -82 112
-132 58z"/>
<path d="M2642 470 c-46 -43 -11 -140 49 -140 35 0 79 48 79 86 0 62 -82 97
-128 54z"/>
</g>
</svg>
