<?xml version="1.0" encoding="utf-8"?>
<!-- Generator: Adobe Illustrator 19.0.0, SVG Export Plug-In . SVG Version: 6.00 Build 0)  -->
<svg version="1.1" id="Calque_1" xmlns="http://www.w3.org/2000/svg" xmlns:xlink="http://www.w3.org/1999/xlink" x="0px" y="0px"
	 viewBox="58 -58.5 400 400" enable-background="new 58 -58.5 400 400" xml:space="preserve">
<g transform="translate(0.000000,400.000000) scale(0.100000,-0.100000)">
	<path d="M2879.1,4234.4c-84-17-172-65-235-128c-51-50-74-88-181-299c-67-132-122-243-122-245s28-4,63-4c92-1,190-50,222-113
		c13-26,18-28,41-20c32,12,138,13,162,1c9-5,29-14,45-22c37-17,95-76,117-119c10-20,21-56,25-81l7-46l61-17c184-49,300-92,315-114
		c14-22,13-25-9-48l-24-24l-65,19c-300,90-314,92-366,66c-102-50-123-189-41-262c33-29,82-47,337-126c63-20,185-58,270-85
		c168-53,172-53,242-5c40,27,56,60,143,298c26,72,60,164,76,205c89,236,103,406,58,699c-24,155-103,268-241,344c-52,29-98,43-173,53
		c-27,3-59,8-70,9c-11,2-126,17-255,34c-128,18-236,34-239,36C3034.1,4249.4,2932.1,4245.4,2879.1,4234.4z"/>
	<path d="M2270.1,3409.4c-30-33-232-429-244-476c-4-15-2-50,5-77c28-119,170-173,272-105c44,28,45,27,19-18c-55-94-50-178,13-243
		c55-58,112-74,177-51c26,9,50,16,53,16c4,0-72-156-168-347c-96-192-177-358-181-370c-6-23-9-23-168-23c-199,0-253,9-392,61
		c-61,23-131,44-157,47c-129,13-292-154-293-298c0-113,116-272,267-363c88-53,144-67,266-67c95,0,104-1,97-17c-18-43-22-86-13-121
		c12-44,77-112,107-112c11,0,21-4,21-10c0-18,43-9,95,18c66,36,108,111,103,188l-3,51l194,7c107,3,294,6,416,6h222v-58
		c0-109,75-192,175-192c110,0,188,119,145,223c-12,27-13,37-4,38c41,5,59,7,122,18c109,18,241,59,317,97c129,65,182,134,194,254
		c12,127-37,270-125,361c-41,43-52,49-88,49c-22,0-60-7-83-15s-46-15-50-15s-11,42-14,93c-4,50-9,106-11,122c-2,17-6,59-9,95
		c-24,303-17,278-96,306c-36,12-117,38-180,57c-63,20-162,50-220,67c-135,42-166,55-218,97c-115,93-117,284-5,383c25,22,50,40,56,40
		s18,7,28,15c14,13,15,23,8,56c-12,52-41,91-89,118c-70,39-168,25-214-30c-31-37-36-36-36,3c0,37-32,107-60,133c-10,9-36,23-57,30
		C2398.1,3474.4,2310.1,3455.4,2270.1,3409.4z M3093.1,2565.4c5,0,8-12,9-27c0-16,2-39,4-53c5-33,23-224,30-320c3-41,10-113,15-160
		c5-47,12-129,16-182l7-97l-257-3c-141-2-255-1-254,2c2,3,97,193,213,423C2991.1,2377.4,3089.1,2565.4,3093.1,2565.4z
		 M3171.1,1555.4c0-11-48-25-56-17c-4,3-3,10,1,16C3124.1,1568.4,3171.1,1568.4,3171.1,1555.4z M2010.1,1563.4c24,3,32,0,29-10
		c-5-15-57-18-61-3C1977.1,1556.4,1991.1,1561.4,2010.1,1563.4z M3150.1,1403.4c24,3,32,0,29-10c-3-7-19-14-37-16c-24-3-32,0-29,10
		C3116.1,1394.4,3132.1,1401.4,3150.1,1403.4z M1986.1,1405.4c25,0,35-4,32-12c-2-7-16-13-32-13s-30,6-33,13
		C1951.1,1401.4,1961.1,1405.4,1986.1,1405.4z M3148.1,1108.4c99,6,102,6,117-19c38-57,29-129-24-179c-40-39-120-46-168-15
		c-45,28-71,88-62,141c4,23,14,47,21,54C3041.1,1097.4,3086.1,1105.4,3148.1,1108.4z M1876.1,1095.4h105h106l17-29
		c35-60,12-147-49-187c-35-23-113-23-148,0c-61,40-83,124-49,185L1876.1,1095.4z"/>
	<path d="M3077.1,1004.4c5-45,30-69,71-69c70,0,107,78,61,127C3159.1,1116.4,3069.1,1076.4,3077.1,1004.4z"/>
	<path d="M1901.1,1001.4c0-38,44-86,79-86c60,0,95,97,49,140C1983.1,1098.4,1901.1,1063.4,1901.1,1001.4z"/>
</g>
</svg>
