<?xml version="1.0" encoding="utf-8"?>
<!-- Generator: Adobe Illustrator 19.0.0, SVG Export Plug-In . SVG Version: 6.00 Build 0)  -->
<svg version="1.1" id="Calque_1" xmlns="http://www.w3.org/2000/svg" xmlns:xlink="http://www.w3.org/1999/xlink" x="0px" y="0px"
	 viewBox="-120.4 419.3 360 25.6" enable-background="new -120.4 419.3 360 25.6" xml:space="preserve">
<g id="XMLID_2_">
	<path id="XMLID_17_" fill="#FFFFFF" stroke="#000000" stroke-miterlimit="10" d="M-116.9,424.5l7.7,0.4l7-0.2
		c1.8,0.2,2.7,0.9,2.7,2.1c-0.3,1.3-0.9,1.9-1.7,1.9l-0.9-0.1l-6,0.2h-2.3l-4.9-0.4v0.1l1,4.8h0.3c1,0,3.3-0.4,6.8-1.2
		c1.1,0,1.7,0.7,1.9,2.1c0,1.2-1.3,2-3.8,2.2c0,0.1-1.5,0.5-4.6,0.9v0.1l0.7,4.1c-0.2,1.2-0.8,1.8-1.8,1.8l0,0c-1.2,0-2-1.2-2.3-3.5
		c-1-6.7-1.9-11-2.7-12.8l-0.1-0.3C-119.9,425.5-118.9,424.8-116.9,424.5z"/>
	<path id="XMLID_19_" fill="#FFFFFF" stroke="#000000" stroke-miterlimit="10" d="M-90,421.5c4,0,6.3,1.3,6.9,3.8
		c0.2,0.3,0.2,0.6,0.2,1.1v0.3c0,2.2-1.8,5-5.5,8.4v0.1l0.4,0.1l3.9-0.2c1,0,1.6,0.7,1.8,2.1c0,1.3-1.1,1.9-3.3,1.9l-3.4,0.1h-1.8
		c-0.4,0-0.7,0.1-0.7,0.2c0.8,0.9,1.2,1.6,1.2,2.1c-0.3,1.3-0.9,1.9-1.9,1.9h-0.2c-0.9,0-2-1.1-3.6-3.4c-0.5-0.3-0.9-1-1.1-2.2
		c-1.3-2.3-2.8-6-4.7-11c-0.2,0-0.3-0.3-0.4-1c0-0.7,0.6-1.6,1.7-2.5C-95.4,422.1-92,421.5-90,421.5z M-97.6,426.6
		c1.9,4.9,3.1,7.6,3.6,8.2h0.1c4.5-3.7,6.9-6.3,7.1-8.1v-0.3c0-0.7-1.1-1-3.3-1C-95.1,425.8-97.6,426.3-97.6,426.6z"/>
	<path id="XMLID_22_" fill="#FFFFFF" stroke="#000000" stroke-miterlimit="10" d="M-75.3,422.9c2,0,4,1.2,6.1,3.6
		c1,1.4,1.5,2.7,1.5,3.8c-0.1,1.1-0.5,2.1-1.3,3.2c-1.3,1.2-3.6,1.8-7.1,1.8c-1.1,0-2.5-0.3-4-0.8v0.3c0,2.1,0.9,3.6,2.8,4.5
		l1.3,0.2h0.5c2.5-0.2,5.4-1.7,8.8-4.7l0.8-0.1c0.9,0,1.5,0.6,1.7,1.9c0,1.3-2.1,3.1-6.2,5.3c-1.9,1-3.7,1.5-5.5,1.5
		c-3.9,0-6.5-2.3-7.9-6.8c-0.2-1-0.3-1.9-0.3-2.7c0-4,1.7-7.2,5.1-9.8C-77.9,423.3-76.6,422.9-75.3,422.9z M-79.4,430.3
		c0.7,0.7,1.8,1,3.5,1c2.9,0,4.3-0.3,4.3-0.9v-0.3c0-1.1-1-2.2-3.1-3.3l-0.8-0.1C-77,426.7-78.3,427.9-79.4,430.3z"/>
	<path id="XMLID_25_" fill="#FFFFFF" stroke="#000000" stroke-miterlimit="10" d="M-52.3,423.7c1.1,0,1.7,0.7,1.9,2.2v5.8l0.2,9.8
		c0,0.8-0.6,1.4-1.9,1.7h-0.1c-0.7,0-1.6-0.7-2.5-2l-7.5-6.4h-0.2c0.3,1.3,0.4,2.8,0.6,4.5c-0.4,1.5-1.1,2.3-2.1,2.3H-64
		c-1,0-1.6-0.7-1.8-2.1l0.1-0.5c0-1.5-0.7-4.6-2.2-9.4l0-0.8c0.3-1.2,1-1.8,2-1.8c0.8,0,2.7,1.5,5.8,4.6l5.7,4.8h0.2v-10.5
		C-54.1,424.5-53.4,423.7-52.3,423.7z"/>
	<path id="XMLID_27_" fill="#FFFFFF" stroke="#000000" stroke-miterlimit="10" d="M-44.5,424.9c0.9,0,2.1,0.3,3.7,0.9
		c0.7-0.6,1.3-0.8,1.7-0.8c1,0,1.9,1.2,2.8,3.5c1.3,1.9,1.9,3,1.9,3.4c-0.3,1.3-1,2-2,2c-0.7,0-1.7-0.8-2.8-2.3
		c-2.3-1.9-3.8-2.8-4.7-2.8h-1.2c-1.9,0-3.5,1.1-5,3.4c-0.4,0.9-0.6,1.5-0.6,1.8v1.1c0,1.5,1.3,2.8,4,4.1l1.7,0.2h0.2
		c2.6,0,5-0.8,7.2-2.3l0.7-0.1c1,0,1.6,0.7,1.9,2c0,1.2-1.8,2.4-5.3,3.7c-1.7,0.4-3.2,0.7-4.6,0.7c-3.4,0-6.2-1.6-8.5-4.9
		c-0.6-0.9-0.9-2-1.1-3.5c0-3.5,1.7-6.4,5.2-8.6C-47.7,425.3-46,424.9-44.5,424.9z"/>
	<path id="XMLID_29_" fill="#FFFFFF" stroke="#000000" stroke-miterlimit="10" d="M-23.3,421.2c1.2,0,1.9,0.9,2.1,2.8l1.9,9.5
		c0.6,4.1,1.2,6.7,1.7,7.8v0.1c0,0.9-0.6,1.5-1.8,1.9h-0.1c-1.5,0-2.6-2.2-3.2-6.7h-0.2c-4.3,1.1-6.6,1.8-6.8,2v0.1l0.5,2.3
		c0,0.9-0.7,1.4-2,1.7c-1.2,0-2-1.1-2.3-3.2h-0.2l-3.4,0.8c-1.3-0.2-1.9-0.9-1.9-1.9c0-1.3,1.4-2.2,4.2-2.7v-0.3
		c-1.5-4.3-2.3-6.8-2.3-7.6l-0.1-0.1v-0.1c0.4-1.3,1-1.9,1.9-1.9c1.2,0,1.9,1,2.2,2.9c0.8,1.9,1.5,3.9,2.2,6.1h0.1
		c0.4,0,2.8-0.7,7.2-2l-1.7-9.7C-25.3,422-24.6,421.4-23.3,421.2z"/>
	<path id="XMLID_31_" fill="#FFFFFF" stroke="#000000" stroke-miterlimit="10" d="M-0.9,420.7c1.7,0.2,3.7,1.1,6,2.6
		c1.4,1,2.1,2,2.1,2.8v0.1c0,0.8-0.6,1.4-1.9,1.7c-0.5,0-1.5-0.7-3-2c-1.6-0.9-2.8-1.4-3.7-1.4h-0.3c-1.3,0-2.1,1-2.3,3.1
		c0.2,2.3,0.5,3.5,0.8,3.8l5.2-1.7h0.2c1.3,0.2,1.9,0.9,1.9,1.9c0,1.1-1.2,2-3.6,2.5c-0.2,0.2-0.9,0.5-2.2,0.8l-0.2,0.3l2.9,5.7v0.4
		c-0.3,1.3-0.9,1.9-1.9,1.9H-1c-1.1,0-2.3-1.6-3.7-4.9c-0.6-1.3-0.9-2-1-2l-1.6,0.1c-1-0.3-1.5-0.9-1.5-1.7v-0.1
		c0-0.8,0.5-1.4,1.6-1.9l0.1-0.1v-0.3c-0.6-2.1-0.8-3.8-0.8-5.2c0-1.9,0.9-3.7,2.6-5.3C-4,421.1-2.6,420.7-0.9,420.7z"/>
	<path id="XMLID_33_" fill="#FFFFFF" stroke="#000000" stroke-miterlimit="10" d="M9.1,428.7c0.9,0,1.5,0.6,1.9,1.8
		c-0.3,1.3-0.4,2.5-0.4,3.6v0.9c0,1.5,0.2,3.6,0.7,6.4c0,1-0.6,1.6-1.9,1.8v0.1c-1.3,0-2.1-1.3-2.3-3.8l-0.5-3.9
		c-1.3-0.2-1.9-0.8-1.9-1.8v-0.1c0-0.7,0.6-1.4,1.8-2.3c0.7-1.7,1.3-2.6,1.9-2.6L9.1,428.7z M10.2,421.6c1.3,0.3,1.9,0.9,1.9,1.9
		c-0.3,2.7-0.7,4.1-1.3,4.1c0,0.1-0.3,0.2-0.9,0.4c-1.3-0.3-1.9-0.9-1.9-1.9H7.9c0.3-2.2,0.6-3.5,1.1-3.8
		C9,422.1,9.4,421.8,10.2,421.6z"/>
	<path id="XMLID_36_" fill="#FFFFFF" stroke="#000000" stroke-miterlimit="10" d="M26.4,423.7c1.1,0,1.7,0.7,1.9,2.2v5.8l0.2,9.8
		c0,0.8-0.6,1.4-1.9,1.7h-0.1c-0.7,0-1.6-0.7-2.5-2l-7.5-6.4h-0.2c0.3,1.3,0.4,2.8,0.6,4.5c-0.4,1.5-1.1,2.3-2.1,2.3h-0.1
		c-1,0-1.6-0.7-1.8-2.1L13,439c0-1.5-0.7-4.6-2.2-9.4v-0.8c0.3-1.2,1-1.8,2-1.8c0.8,0,2.7,1.5,5.8,4.6l5.7,4.8h0.2v-10.5
		C24.6,424.5,25.2,423.7,26.4,423.7z"/>
	<path id="XMLID_38_" fill="#FFFFFF" stroke="#000000" stroke-miterlimit="10" d="M38.2,423.2c2.3,0,3.8,0.8,4.4,2.3v0.4
		c0,1-0.6,1.6-1.9,1.8c-0.2,0-0.7-0.2-1.5-0.6l-0.9-0.1c-3.3,0-6,1.5-8.1,4.6c-0.4,1-0.7,1.9-0.7,2.5c0,1.5,0.9,2.3,2.8,2.3h0.8
		c1.3,0,3.9-0.8,7.8-2.4v-0.2l-1.7,0.1c-0.9,0-1.5-0.6-1.7-1.8V432c0-1.4,1.7-2.2,5-2.2l2.6-0.1v-0.1l0.1,0.1H46
		c1.3,0.3,2,0.9,2,1.9l-1.4,8.3c0,2.2-0.7,3.3-2.1,3.3c-1.3-0.2-1.9-0.9-1.9-1.9h-0.1l0.1-0.1v-0.6l0.5-3.6h-0.2
		c-4.6,2.1-8.1,3.2-10.4,3.2c-3.5-0.2-5.8-1.7-6.7-4.4l-0.3-1.7v-0.3c0-2.8,1.5-5.5,4.6-8C32.9,424.1,35.5,423.2,38.2,423.2z"/>
	<path id="XMLID_40_" fill="#FFFFFF" stroke="#000000" stroke-miterlimit="10" d="M52.8,422.9c2,0,4,1.2,6.1,3.6
		c1,1.4,1.5,2.7,1.5,3.8c-0.1,1.1-0.5,2.1-1.3,3.2c-1.3,1.2-3.6,1.8-7.1,1.8c-1.1,0-2.5-0.3-4-0.8v0.3c0,2.1,0.9,3.6,2.8,4.5
		l1.3,0.2h0.5c2.5-0.2,5.4-1.7,8.8-4.7l0.8-0.1c0.9,0,1.5,0.6,1.7,1.9c0,1.3-2.1,3.1-6.2,5.3c-1.9,1-3.7,1.5-5.5,1.5
		c-3.9,0-6.5-2.3-7.9-6.8c-0.2-1-0.3-1.9-0.3-2.7c0-4,1.7-7.2,5.1-9.8C50.2,423.3,51.4,422.9,52.8,422.9z M48.6,430.3
		c0.7,0.7,1.8,1,3.5,1c2.9,0,4.3-0.3,4.3-0.9v-0.3c0-1.1-1-2.2-3.1-3.3l-0.8-0.1C51,426.7,49.7,427.9,48.6,430.3z"/>
	<path id="XMLID_43_" fill="#FFFFFF" stroke="#000000" stroke-miterlimit="10" d="M71.6,421.5c4,0,6.3,1.3,6.9,3.8
		c0.1,0.3,0.2,0.6,0.2,1v0.3c0,2.2-1.8,5-5.5,8.4v0.1l0.4,0.1l3.9-0.2c1,0,1.6,0.7,1.8,2.1c0,1.3-1.1,1.9-3.3,1.9l-3.4,0.1h-1.8
		c-0.4,0-0.7,0.1-0.7,0.2c0.8,0.9,1.2,1.6,1.2,2.1c-0.3,1.3-0.9,1.9-1.9,1.9h-0.2c-0.9,0-2-1.1-3.6-3.4c-0.5-0.3-0.9-1-1.1-2.2
		c-1.3-2.3-2.8-6-4.7-11c-0.2,0-0.3-0.3-0.4-1c0-0.7,0.6-1.6,1.7-2.5C66.1,422.1,69.6,421.5,71.6,421.5z M64,426.6
		c1.9,4.9,3.1,7.6,3.6,8.2h0.1c4.5-3.7,6.9-6.3,7.1-8.1v-0.3c0-0.7-1.1-1-3.3-1C66.5,425.8,64,426.3,64,426.6z"/>
	<path id="XMLID_46_" fill="#FFFFFF" stroke="#000000" stroke-miterlimit="10" d="M84.4,419.8c4.4,0.2,7.2,1.3,8.3,3.5
		c0.1,0.3,0.2,0.6,0.2,1v0.7c0,0.6-0.5,1.5-1.5,2.7v0.2h1.7c3.2,0,5.4,1.4,6.4,4.1v1c0,2-1.7,4.3-5.1,6.8c-3.8,2.3-7.6,3.4-11.5,3.4
		h-0.5c-1.8,0-3.1-0.6-3.9-1.8l-0.1-0.6c0-0.7,0.5-1.4,1.5-2v-0.2c0-1-0.8-5.3-2.5-12.9l-0.3-2.2c0-1.1,1.4-2.2,4.1-3.3
		C82.5,420,83.6,419.8,84.4,419.8z M80.9,424.7c0,0.9,0.4,2.8,1.2,5.6h0.1c3.1-2.3,5.3-4.1,6.5-5.3l0.1-0.5
		c-0.9-0.6-2.3-0.8-4.3-0.8h-0.3C82,423.8,80.9,424.1,80.9,424.7z M83,434.7l0.8,4.6c3.7,0,7.2-1.4,10.5-4.3
		c0.8-1.1,1.2-1.8,1.2-2.2c0-0.8-0.9-1.1-2.8-1.1h-0.6C88.2,431.7,85.1,432.7,83,434.7z"/>
	<path id="XMLID_50_" fill="#FFFFFF" stroke="#000000" stroke-miterlimit="10" d="M104.7,423.4h1c2.2,0,4.2,1.3,6,3.8
		c0.7,1.1,1,2.5,1,4.4c0,2.4-1.3,4.8-3.8,7c-2.5,1.8-4.8,2.6-7,2.6c-3.3,0-5.3-2.2-6.2-6.5v-0.9l-0.1-0.1l0.1-0.1V433l0.3-1.5
		l-0.1-1.3C97.7,425.7,100.6,423.4,104.7,423.4z M99.7,434.2c0.3,2.1,0.9,3.2,1.9,3.2h1.1c1.5,0,3.2-0.9,5-2.6
		c0.9-1.1,1.3-2.3,1.3-3.5c0-1.9-0.8-3.2-2.5-3.8c-0.3-0.1-0.6-0.2-1-0.2h-1.2c-1.9,0.4-2.8,0.9-2.8,1.5c-0.9,1.8-1.5,3.3-1.7,4.4v1
		H99.7z"/>
	<path id="XMLID_53_" fill="#FFFFFF" stroke="#000000" stroke-miterlimit="10" d="M117.2,420.2h0.7c2.2,0,4.5,2.2,6.7,6.5l1.7,5.3
		c1,0,1.8,0.6,2.3,1.7c0,0.7-0.5,1.3-1.5,2.1v0.1c0.4,3,0.6,4.9,0.6,5.7c0,1-0.7,1.6-2.1,1.8c-1,0-1.6-0.8-1.8-2.3l-0.6-4.6h-0.1
		c-1.3,0-4.1,0.9-8.4,2.6v0.2l0.5,1.4c-0.3,1.2-0.8,1.8-1.8,1.8v0.1c-1.4,0-2.3-1.5-2.7-4.4l-0.1-1.1c0-6.1,1.2-11.1,3.7-14.9
		C115.3,420.8,116.4,420.2,117.2,420.2z M114.3,434.9L114.3,434.9c2.1-0.7,4.8-1.5,8.1-2.3c-0.8-3.3-1.6-5.4-2.4-6.5
		c-1-1.4-1.7-2.1-2.3-2.1c-1,0-2,2.5-3,7.6C114.5,432.5,114.4,433.6,114.3,434.9z"/>
	<path id="XMLID_56_" fill="#FFFFFF" stroke="#000000" stroke-miterlimit="10" d="M137.4,421.5c4,0,6.3,1.3,6.9,3.8
		c0.1,0.3,0.2,0.6,0.2,1v0.3c0,2.2-1.8,5-5.5,8.4v0.1l0.4,0.1l3.9-0.2c1,0,1.6,0.7,1.8,2.1c0,1.3-1.1,1.9-3.3,1.9l-3.4,0.1h-1.8
		c-0.4,0-0.7,0.1-0.7,0.2c0.8,0.9,1.2,1.6,1.2,2.1c-0.3,1.3-0.9,1.9-1.9,1.9H135c-0.9,0-2-1.1-3.6-3.4c-0.5-0.3-0.9-1-1.1-2.2
		c-1.3-2.3-2.8-6-4.7-11c-0.2,0-0.3-0.3-0.4-1c0-0.7,0.6-1.6,1.7-2.5C132,422.1,135.4,421.5,137.4,421.5z M129.8,426.6
		c1.9,4.9,3.1,7.6,3.6,8.2h0.1c4.5-3.7,6.9-6.3,7.1-8.1v-0.3c0-0.7-1.1-1-3.3-1C132.3,425.8,129.8,426.3,129.8,426.6z"/>
	<path id="XMLID_59_" fill="#FFFFFF" stroke="#000000" stroke-miterlimit="10" d="M145.9,421.2h0.4c0.6,0,1.8,0.8,3.6,2.3
		c5,3.6,9.1,5.8,12.1,6.7c2.6,0.6,3.9,1.3,3.9,2l0.4,1c0,0.9-0.7,1.7-2.1,2.2c-1.9,2.3-3.7,4-5.6,4.9c-3.4,2.1-6.6,3.1-9.8,3.1
		c-2.7,0-4.6-1.1-5.6-3.2l-0.4-1.7c0-0.8,0.6-1.4,1.9-1.7h0.1c0.6,0,1.2,0.3,1.6,0.9h0.1v-0.3c-0.5-3.1-1.5-7.8-2.9-14.1
		C143.6,421.9,144.3,421.2,145.9,421.2z M148.4,427.2v0.2h-0.1l2.4,11.6l0.3,0.1c4.1-1.1,7.3-2.8,9.5-5.3c-3.7-1.4-7-3.1-10-5.3
		l-1.9-1.3C148.6,427.2,148.4,427.2,148.4,427.2z"/>
	<path id="XMLID_62_" fill="#FFFFFF" stroke="#000000" stroke-miterlimit="10" d="M182.8,424.9c0.9,0,2.1,0.3,3.7,0.9
		c0.7-0.6,1.3-0.8,1.7-0.8c1,0,1.9,1.2,2.8,3.5c1.3,1.9,1.9,3,1.9,3.4c-0.3,1.3-1,2-2,2c-0.7,0-1.7-0.8-2.8-2.3
		c-2.3-1.8-3.8-2.6-4.7-2.6h-1.3c-1.9,0-3.5,1.1-5,3.4c-0.4,0.9-0.6,1.5-0.6,1.8v1.1c0,1.5,1.3,2.8,4,4.1l1.7,0.2h0.2
		c2.6,0,5-0.8,7.2-2.3l0.7-0.1c1,0,1.6,0.7,1.9,2c0,1.2-1.8,2.4-5.3,3.7c-1.7,0.4-3.2,0.7-4.6,0.7c-3.4,0-6.2-1.6-8.5-4.9
		c-0.6-0.9-0.9-2-1.1-3.5c0-3.5,1.7-6.4,5.2-8.6C179.6,425.3,181.2,424.9,182.8,424.9z"/>
	<path id="XMLID_64_" fill="#FFFFFF" stroke="#000000" stroke-miterlimit="10" d="M193.9,422.6c0.9,0,1.6,0.7,2,2.1
		c0,3.7-0.3,7.5-1,11.3v0.1c1.3-0.4,3.5-0.8,6.6-1.2c0.2-1.3,0.8-2,1.8-2h0.1c1,0,1.9,1.1,2.6,3.2c0,1.8-2.7,2.8-8.2,3.2
		c-2.6,0.6-4.3,1.4-5.1,2.4c-0.4,0.9-1.2,1.4-2.3,1.4c-0.9,0-1.5-0.6-1.8-1.9v-0.1c0-0.5,0.4-1.2,1.3-2.3c1.4-3.5,2.1-8.5,2.1-14.7
		C192.4,423.1,193,422.6,193.9,422.6z"/>
	<path id="XMLID_66_" fill="#FFFFFF" stroke="#000000" stroke-miterlimit="10" d="M207.6,425.7c0.9,0,1.5,0.6,1.8,1.9
		c-0.6,4.1-1.6,7.6-3,10.3v0.3c0.8,0.8,2.9,1.5,6.5,2.1l1.5,0.1h0.8c0.4,0,0.6-0.9,0.6-2.8v-0.8c0-1.9-0.4-4.6-1.2-8.2
		c0-1,0.7-1.6,2-1.9c1.2,0,2,1.4,2.3,4.1c0.6,2.3,0.8,4.4,0.8,6.6c0,3.3-0.8,5.4-2.3,6.3c-0.5,0.3-1.3,0.5-2.3,0.7
		c-8.3-0.7-12.4-2.7-12.4-6v-0.3c0-0.6,0.7-2.5,2.1-5.7c0.7-4.2,1.4-6.3,2.1-6.3L207.6,425.7z"/>
	<path id="XMLID_68_" fill="#FFFFFF" stroke="#000000" stroke-miterlimit="10" d="M224,419.8c4.4,0.2,7.2,1.3,8.3,3.5
		c0.1,0.3,0.2,0.6,0.2,1v0.7c0,0.6-0.5,1.5-1.5,2.7v0.2h1.7c3.2,0,5.4,1.4,6.4,4.1v1c0,2-1.7,4.3-5.1,6.8c-3.8,2.3-7.6,3.4-11.5,3.4
		H222c-1.8,0-3.1-0.6-3.9-1.8l-0.1-0.6c0-0.7,0.5-1.4,1.5-2v-0.2c0-1-0.8-5.3-2.5-12.9l-0.3-2.2c0-1.1,1.4-2.2,4.1-3.3
		C222.1,420,223.2,419.8,224,419.8z M220.5,424.7c0,0.9,0.4,2.8,1.2,5.6h0.1c3.1-2.3,5.3-4.1,6.5-5.3l0.1-0.5
		c-0.9-0.6-2.3-0.8-4.3-0.8h-0.3C221.6,423.8,220.5,424.1,220.5,424.7z M222.5,434.7l0.8,4.6c3.7,0,7.2-1.4,10.5-4.3
		c0.8-1.1,1.2-1.8,1.2-2.2c0-0.8-0.9-1.1-2.8-1.1h-0.6C227.7,431.7,224.7,432.7,222.5,434.7z"/>
</g>
</svg>
