<?xml version="1.0" encoding="utf-8"?>
<!-- Generator: Adobe Illustrator 19.0.0, SVG Export Plug-In . SVG Version: 6.00 Build 0)  -->
<svg version="1.1" id="Calque_1" xmlns="http://www.w3.org/2000/svg" xmlns:xlink="http://www.w3.org/1999/xlink" x="0px" y="0px"
	 viewBox="0 0 358.9 24.5" enable-background="new 0 0 358.9 24.5" xml:space="preserve">
<g id="XMLID_2_">
	<path id="XMLID_17_" d="M3,4.7l7.7,0.4l7-0.2c1.8,0.2,2.7,0.9,2.7,2.1c-0.3,1.3-0.9,1.9-1.7,1.9l-0.9-0.1l-6,0.2H9.5L4.6,8.6v0.1
		l1,4.8h0.3c1,0,3.3-0.4,6.8-1.2c1.1,0,1.7,0.7,1.9,2.1c0,1.2-1.3,2-3.8,2.2c0,0.1-1.5,0.5-4.6,0.9v0.1l0.7,4.1
		c-0.2,1.2-0.8,1.8-1.8,1.8H5.1c-1.2,0-2-1.2-2.3-3.5C1.8,13.3,0.9,9,0.1,7.2L0,6.9C0,5.7,1,5,3,4.7z"/>
	<path id="XMLID_19_" d="M29.9,1.7c4,0,6.3,1.3,6.9,3.8C37,5.8,37,6.1,37,6.6v0.3c0,2.2-1.8,5-5.5,8.4v0.1l0.4,0.1l3.9-0.2
		c1,0,1.6,0.7,1.8,2.1c0,1.3-1.1,1.9-3.3,1.9l-3.4,0.1h-1.8c-0.4,0-0.7,0.1-0.7,0.2c0.8,0.9,1.2,1.6,1.2,2.1
		c-0.3,1.3-0.9,1.9-1.9,1.9h-0.2c-0.9,0-2-1.1-3.6-3.4c-0.5-0.3-0.9-1-1.1-2.2c-1.3-2.3-2.8-6-4.7-11c-0.2,0-0.3-0.3-0.4-1
		c0-0.7,0.6-1.6,1.7-2.5C24.5,2.3,27.9,1.7,29.9,1.7z M22.3,6.8c1.9,4.9,3.1,7.6,3.6,8.2H26c4.5-3.7,6.9-6.3,7.1-8.1V6.6
		c0-0.7-1.1-1-3.3-1C24.8,6,22.3,6.5,22.3,6.8z"/>
	<path id="XMLID_22_" d="M44.6,3.1c2,0,4,1.2,6.1,3.6c1,1.4,1.5,2.7,1.5,3.8c-0.1,1.1-0.5,2.1-1.3,3.2c-1.3,1.2-3.6,1.8-7.1,1.8
		c-1.1,0-2.5-0.3-4-0.8v0.3c0,2.1,0.9,3.6,2.8,4.5l1.3,0.2h0.5c2.5-0.2,5.4-1.7,8.8-4.7l0.8-0.1c0.9,0,1.5,0.6,1.7,1.9
		c0,1.3-2.1,3.1-6.2,5.3c-1.9,1-3.7,1.5-5.5,1.5c-3.9,0-6.5-2.3-7.9-6.8c-0.2-1-0.3-1.9-0.3-2.7c0-4,1.7-7.2,5.1-9.8
		C42,3.5,43.3,3.1,44.6,3.1z M40.5,10.5c0.7,0.7,1.8,1,3.5,1c2.9,0,4.3-0.3,4.3-0.9v-0.3c0-1.1-1-2.2-3.1-3.3l-0.8-0.1
		C42.9,6.9,41.6,8.1,40.5,10.5z"/>
	<path id="XMLID_25_" d="M67.6,3.9c1.1,0,1.7,0.7,1.9,2.2v5.8l0.2,9.8c0,0.8-0.6,1.4-1.9,1.7h-0.1c-0.7,0-1.6-0.7-2.5-2l-7.5-6.4
		h-0.2c0.3,1.3,0.4,2.8,0.6,4.5c-0.4,1.5-1.1,2.3-2.1,2.3h-0.1c-1,0-1.6-0.7-1.8-2.1l0.1-0.5c0-1.5-0.7-4.6-2.2-9.4L52,9
		c0.3-1.2,1-1.8,2-1.8c0.8,0,2.7,1.5,5.8,4.6l5.7,4.8h0.2V6.1C65.8,4.7,66.5,3.9,67.6,3.9z"/>
	<path id="XMLID_27_" d="M75.4,5.1c0.9,0,2.1,0.3,3.7,0.9c0.7-0.6,1.3-0.8,1.7-0.8c1,0,1.9,1.2,2.8,3.5c1.3,1.9,1.9,3,1.9,3.4
		c-0.3,1.3-1,2-2,2c-0.7,0-1.7-0.8-2.8-2.3C78.4,9.9,76.9,9,76,9h-1.2c-1.9,0-3.5,1.1-5,3.4c-0.4,0.9-0.6,1.5-0.6,1.8v1.1
		c0,1.5,1.3,2.8,4,4.1l1.7,0.2h0.2c2.6,0,5-0.8,7.2-2.3l0.7-0.1c1,0,1.6,0.7,1.9,2c0,1.2-1.8,2.4-5.3,3.7c-1.7,0.4-3.2,0.7-4.6,0.7
		c-3.4,0-6.2-1.6-8.5-4.9c-0.6-0.9-0.9-2-1.1-3.5c0-3.5,1.7-6.4,5.2-8.6C72.2,5.5,73.9,5.1,75.4,5.1z"/>
	<path id="XMLID_29_" d="M96.6,1.4c1.2,0,1.9,0.9,2.1,2.8l1.9,9.5c0.6,4.1,1.2,6.7,1.7,7.8v0.1c0,0.9-0.6,1.5-1.8,1.9h-0.1
		c-1.5,0-2.6-2.2-3.2-6.7H97c-4.3,1.1-6.6,1.8-6.8,2v0.1l0.5,2.3c0,0.9-0.7,1.4-2,1.7c-1.2,0-2-1.1-2.3-3.2h-0.2l-3.4,0.8
		c-1.3-0.2-1.9-0.9-1.9-1.9c0-1.3,1.4-2.2,4.2-2.7v-0.3c-1.5-4.3-2.3-6.8-2.3-7.6l-0.1-0.1V7.8c0.4-1.3,1-1.9,1.9-1.9
		c1.2,0,1.9,1,2.2,2.9c0.8,1.9,1.5,3.9,2.2,6.1h0.1c0.4,0,2.8-0.7,7.2-2l-1.7-9.7C94.6,2.2,95.3,1.6,96.6,1.4z"/>
	<path id="XMLID_31_" d="M119,0.9c1.7,0.2,3.7,1.1,6,2.6c1.4,1,2.1,2,2.1,2.8v0.1c0,0.8-0.6,1.4-1.9,1.7c-0.5,0-1.5-0.7-3-2
		c-1.6-0.9-2.8-1.4-3.7-1.4h-0.3c-1.3,0-2.1,1-2.3,3.1c0.2,2.3,0.5,3.5,0.8,3.8l5.2-1.7h0.2c1.3,0.2,1.9,0.9,1.9,1.9
		c0,1.1-1.2,2-3.6,2.5c-0.2,0.2-0.9,0.5-2.2,0.8l-0.2,0.3l2.9,5.7v0.4c-0.3,1.3-0.9,1.9-1.9,1.9h-0.1c-1.1,0-2.3-1.6-3.7-4.9
		c-0.6-1.3-0.9-2-1-2l-1.6,0.1c-1-0.3-1.5-0.9-1.5-1.7v-0.1c0-0.8,0.5-1.4,1.6-1.9l0.1-0.1v-0.3c-0.6-2.1-0.8-3.8-0.8-5.2
		c0-1.9,0.9-3.7,2.6-5.3C115.9,1.3,117.3,0.9,119,0.9z"/>
	<path id="XMLID_33_" d="M129,8.9c0.9,0,1.5,0.6,1.9,1.8c-0.3,1.3-0.4,2.5-0.4,3.6v0.9c0,1.5,0.2,3.6,0.7,6.4c0,1-0.6,1.6-1.9,1.8
		v0.1c-1.3,0-2.1-1.3-2.3-3.8l-0.5-3.9c-1.3-0.2-1.9-0.8-1.9-1.8v-0.1c0-0.7,0.6-1.4,1.8-2.3c0.7-1.7,1.3-2.6,1.9-2.6L129,8.9z
		 M130.1,1.8c1.3,0.3,1.9,0.9,1.9,1.9c-0.3,2.7-0.7,4.1-1.3,4.1c0,0.1-0.3,0.2-0.9,0.4c-1.3-0.3-1.9-0.9-1.9-1.9h-0.1
		c0.3-2.2,0.6-3.5,1.1-3.8C128.9,2.3,129.3,2,130.1,1.8z"/>
	<path id="XMLID_36_" d="M146.3,3.9c1.1,0,1.7,0.7,1.9,2.2v5.8l0.2,9.8c0,0.8-0.6,1.4-1.9,1.7h-0.1c-0.7,0-1.6-0.7-2.5-2l-7.5-6.4
		h-0.2c0.3,1.3,0.4,2.8,0.6,4.5c-0.4,1.5-1.1,2.3-2.1,2.3h-0.1c-1,0-1.6-0.7-1.8-2.1l0.1-0.5c0-1.5-0.7-4.6-2.2-9.4L130.7,9
		c0.3-1.2,1-1.8,2-1.8c0.8,0,2.7,1.5,5.8,4.6l5.7,4.8h0.2V6.1C144.5,4.7,145.1,3.9,146.3,3.9z"/>
	<path id="XMLID_38_" d="M158.1,3.4c2.3,0,3.8,0.8,4.4,2.3v0.4c0,1-0.6,1.6-1.9,1.8c-0.2,0-0.7-0.2-1.5-0.6l-0.9-0.1
		c-3.3,0-6,1.5-8.1,4.6c-0.4,1-0.7,1.9-0.7,2.5c0,1.5,0.9,2.3,2.8,2.3h0.8c1.3,0,3.9-0.8,7.8-2.4V14l-1.7,0.1
		c-0.9,0-1.5-0.6-1.7-1.8v-0.1c0-1.4,1.7-2.2,5-2.2l2.6-0.1V9.8l0.1,0.1h0.8c1.3,0.3,2,0.9,2,1.9l-1.4,8.3c0,2.2-0.7,3.3-2.1,3.3
		c-1.3-0.2-1.9-0.9-1.9-1.9h-0.1l0.1-0.1v-0.6l0.5-3.6h-0.2c-4.6,2.1-8.1,3.2-10.4,3.2c-3.5-0.2-5.8-1.7-6.7-4.4l-0.3-1.7v-0.3
		c0-2.8,1.5-5.5,4.6-8C152.8,4.3,155.4,3.4,158.1,3.4z"/>
	<path id="XMLID_40_" d="M172.7,3.1c2,0,4,1.2,6.1,3.6c1,1.4,1.5,2.7,1.5,3.8c-0.1,1.1-0.5,2.1-1.3,3.2c-1.3,1.2-3.6,1.8-7.1,1.8
		c-1.1,0-2.5-0.3-4-0.8v0.3c0,2.1,0.9,3.6,2.8,4.5l1.3,0.2h0.5c2.5-0.2,5.4-1.7,8.8-4.7l0.8-0.1c0.9,0,1.5,0.6,1.7,1.9
		c0,1.3-2.1,3.1-6.2,5.3c-1.9,1-3.7,1.5-5.5,1.5c-3.9,0-6.5-2.3-7.9-6.8c-0.2-1-0.3-1.9-0.3-2.7c0-4,1.7-7.2,5.1-9.8
		C170.1,3.5,171.3,3.1,172.7,3.1z M168.5,10.5c0.7,0.7,1.8,1,3.5,1c2.9,0,4.3-0.3,4.3-0.9v-0.3c0-1.1-1-2.2-3.1-3.3l-0.8-0.1
		C170.9,6.9,169.6,8.1,168.5,10.5z"/>
	<path id="XMLID_43_" d="M191.5,1.7c4,0,6.3,1.3,6.9,3.8c0.1,0.3,0.2,0.6,0.2,1v0.3c0,2.2-1.8,5-5.5,8.4v0.1l0.4,0.1l3.9-0.2
		c1,0,1.6,0.7,1.8,2.1c0,1.3-1.1,1.9-3.3,1.9l-3.4,0.1h-1.8c-0.4,0-0.7,0.1-0.7,0.2c0.8,0.9,1.2,1.6,1.2,2.1
		c-0.3,1.3-0.9,1.9-1.9,1.9h-0.2c-0.9,0-2-1.1-3.6-3.4c-0.5-0.3-0.9-1-1.1-2.2c-1.3-2.3-2.8-6-4.7-11c-0.2,0-0.3-0.3-0.4-1
		c0-0.7,0.6-1.6,1.7-2.5C186,2.3,189.5,1.7,191.5,1.7z M183.9,6.8c1.9,4.9,3.1,7.6,3.6,8.2h0.1c4.5-3.7,6.9-6.3,7.1-8.1V6.6
		c0-0.7-1.1-1-3.3-1C186.4,6,183.9,6.5,183.9,6.8z"/>
	<path id="XMLID_46_" d="M204.3,0c4.4,0.2,7.2,1.3,8.3,3.5c0.1,0.3,0.2,0.6,0.2,1v0.7c0,0.6-0.5,1.5-1.5,2.7v0.2h1.7
		c3.2,0,5.4,1.4,6.4,4.1v1c0,2-1.7,4.3-5.1,6.8c-3.8,2.3-7.6,3.4-11.5,3.4h-0.5c-1.8,0-3.1-0.6-3.9-1.8l-0.1-0.6
		c0-0.7,0.5-1.4,1.5-2v-0.2c0-1-0.8-5.3-2.5-12.9l-0.3-2.2c0-1.1,1.4-2.2,4.1-3.3C202.4,0.2,203.5,0,204.3,0z M200.8,4.9
		c0,0.9,0.4,2.8,1.2,5.6h0.1c3.1-2.3,5.3-4.1,6.5-5.3l0.1-0.5c-0.9-0.6-2.3-0.8-4.3-0.8h-0.3C201.9,4,200.8,4.3,200.8,4.9z
		 M202.9,14.9l0.8,4.6c3.7,0,7.2-1.4,10.5-4.3c0.8-1.1,1.2-1.8,1.2-2.2c0-0.8-0.9-1.1-2.8-1.1h-0.6C208.1,11.9,205,12.9,202.9,14.9z
		"/>
	<path id="XMLID_50_" d="M224.6,3.6h1c2.2,0,4.2,1.3,6,3.8c0.7,1.1,1,2.5,1,4.4c0,2.4-1.3,4.8-3.8,7c-2.5,1.8-4.8,2.6-7,2.6
		c-3.3,0-5.3-2.2-6.2-6.5v-0.9l-0.1-0.1l0.1-0.1v-0.6l0.3-1.5l-0.1-1.3C217.6,5.9,220.5,3.6,224.6,3.6z M219.6,14.4
		c0.3,2.1,0.9,3.2,1.9,3.2h1.1c1.5,0,3.2-0.9,5-2.6c0.9-1.1,1.3-2.3,1.3-3.5c0-1.9-0.8-3.2-2.5-3.8c-0.3-0.1-0.6-0.2-1-0.2h-1.2
		c-1.9,0.4-2.8,0.9-2.8,1.5c-0.9,1.8-1.5,3.3-1.7,4.4V14.4z"/>
	<path id="XMLID_53_" d="M237.1,0.4h0.7c2.2,0,4.5,2.2,6.7,6.5l1.7,5.3c1,0,1.8,0.6,2.3,1.7c0,0.7-0.5,1.3-1.5,2.1v0.1
		c0.4,3,0.6,4.9,0.6,5.7c0,1-0.7,1.6-2.1,1.8c-1,0-1.6-0.8-1.8-2.3l-0.6-4.6H243c-1.3,0-4.1,0.9-8.4,2.6v0.2l0.5,1.4
		c-0.3,1.2-0.8,1.8-1.8,1.8v0.1c-1.4,0-2.3-1.5-2.7-4.4l-0.1-1.1c0-6.1,1.2-11.1,3.7-14.9C235.2,1,236.3,0.4,237.1,0.4z M234.2,15.1
		L234.2,15.1c2.1-0.7,4.8-1.5,8.1-2.3c-0.8-3.3-1.6-5.4-2.4-6.5c-1-1.4-1.7-2.1-2.3-2.1c-1,0-2,2.5-3,7.6
		C234.4,12.7,234.3,13.8,234.2,15.1z"/>
	<path id="XMLID_56_" d="M257.3,1.7c4,0,6.3,1.3,6.9,3.8c0.1,0.3,0.2,0.6,0.2,1v0.3c0,2.2-1.8,5-5.5,8.4v0.1l0.4,0.1l3.9-0.2
		c1,0,1.6,0.7,1.8,2.1c0,1.3-1.1,1.9-3.3,1.9l-3.4,0.1h-1.8c-0.4,0-0.7,0.1-0.7,0.2c0.8,0.9,1.2,1.6,1.2,2.1
		c-0.3,1.3-0.9,1.9-1.9,1.9h-0.2c-0.9,0-2-1.1-3.6-3.4c-0.5-0.3-0.9-1-1.1-2.2c-1.3-2.3-2.8-6-4.7-11c-0.2,0-0.3-0.3-0.4-1
		c0-0.7,0.6-1.6,1.7-2.5C251.9,2.3,255.3,1.7,257.3,1.7z M249.7,6.8c1.9,4.9,3.1,7.6,3.6,8.2h0.1c4.5-3.7,6.9-6.3,7.1-8.1V6.6
		c0-0.7-1.1-1-3.3-1C252.2,6,249.7,6.5,249.7,6.8z"/>
	<path id="XMLID_59_" d="M265.8,1.4h0.4c0.6,0,1.8,0.8,3.6,2.3c5,3.6,9.1,5.8,12.1,6.7c2.6,0.6,3.9,1.3,3.9,2l0.4,1
		c0,0.9-0.7,1.7-2.1,2.2c-1.9,2.3-3.7,4-5.6,4.9c-3.4,2.1-6.6,3.1-9.8,3.1c-2.7,0-4.6-1.1-5.6-3.2l-0.4-1.7c0-0.8,0.6-1.4,1.9-1.7
		h0.1c0.6,0,1.2,0.3,1.6,0.9h0.1v-0.3c-0.5-3.1-1.5-7.8-2.9-14.1C263.5,2.1,264.2,1.4,265.8,1.4z M268.3,7.4v0.2h-0.1l2.4,11.6
		l0.3,0.1c4.1-1.1,7.3-2.8,9.5-5.3c-3.7-1.4-7-3.1-10-5.3l-1.9-1.3H268.3z"/>
	<path id="XMLID_62_" d="M302.7,5.1c0.9,0,2.1,0.3,3.7,0.9c0.7-0.6,1.3-0.8,1.7-0.8c1,0,1.9,1.2,2.8,3.5c1.3,1.9,1.9,3,1.9,3.4
		c-0.3,1.3-1,2-2,2c-0.7,0-1.7-0.8-2.8-2.3c-2.3-1.8-3.8-2.6-4.7-2.6H302c-1.9,0-3.5,1.1-5,3.4c-0.4,0.9-0.6,1.5-0.6,1.8v1.1
		c0,1.5,1.3,2.8,4,4.1l1.7,0.2h0.2c2.6,0,5-0.8,7.2-2.3l0.7-0.1c1,0,1.6,0.7,1.9,2c0,1.2-1.8,2.4-5.3,3.7c-1.7,0.4-3.2,0.7-4.6,0.7
		c-3.4,0-6.2-1.6-8.5-4.9c-0.6-0.9-0.9-2-1.1-3.5c0-3.5,1.7-6.4,5.2-8.6C299.5,5.5,301.1,5.1,302.7,5.1z"/>
	<path id="XMLID_64_" d="M313.8,2.8c0.9,0,1.6,0.7,2,2.1c0,3.7-0.3,7.5-1,11.3v0.1c1.3-0.4,3.5-0.8,6.6-1.2c0.2-1.3,0.8-2,1.8-2h0.1
		c1,0,1.9,1.1,2.6,3.2c0,1.8-2.7,2.8-8.2,3.2c-2.6,0.6-4.3,1.4-5.1,2.4c-0.4,0.9-1.2,1.4-2.3,1.4c-0.9,0-1.5-0.6-1.8-1.9v-0.1
		c0-0.5,0.4-1.2,1.3-2.3c1.4-3.5,2.1-8.5,2.1-14.7C312.3,3.3,312.9,2.8,313.8,2.8z"/>
	<path id="XMLID_66_" d="M327.5,5.9c0.9,0,1.5,0.6,1.8,1.9c-0.6,4.1-1.6,7.6-3,10.3v0.3c0.8,0.8,2.9,1.5,6.5,2.1l1.5,0.1h0.8
		c0.4,0,0.6-0.9,0.6-2.8v-0.8c0-1.9-0.4-4.6-1.2-8.2c0-1,0.7-1.6,2-1.9c1.2,0,2,1.4,2.3,4.1c0.6,2.3,0.8,4.4,0.8,6.6
		c0,3.3-0.8,5.4-2.3,6.3c-0.5,0.3-1.3,0.5-2.3,0.7c-8.3-0.7-12.4-2.7-12.4-6v-0.3c0-0.6,0.7-2.5,2.1-5.7c0.7-4.2,1.4-6.3,2.1-6.3
		L327.5,5.9z"/>
	<path id="XMLID_68_" d="M343.9,0c4.4,0.2,7.2,1.3,8.3,3.5c0.1,0.3,0.2,0.6,0.2,1v0.7c0,0.6-0.5,1.5-1.5,2.7v0.2h1.7
		c3.2,0,5.4,1.4,6.4,4.1v1c0,2-1.7,4.3-5.1,6.8c-3.8,2.3-7.6,3.4-11.5,3.4h-0.5c-1.8,0-3.1-0.6-3.9-1.8l-0.1-0.6
		c0-0.7,0.5-1.4,1.5-2v-0.2c0-1-0.8-5.3-2.5-12.9l-0.3-2.2c0-1.1,1.4-2.2,4.1-3.3C342,0.2,343.1,0,343.9,0z M340.4,4.9
		c0,0.9,0.4,2.8,1.2,5.6h0.1c3.1-2.3,5.3-4.1,6.5-5.3l0.1-0.5c-0.9-0.6-2.3-0.8-4.3-0.8h-0.3C341.5,4,340.4,4.3,340.4,4.9z
		 M342.4,14.9l0.8,4.6c3.7,0,7.2-1.4,10.5-4.3c0.8-1.1,1.2-1.8,1.2-2.2c0-0.8-0.9-1.1-2.8-1.1h-0.6
		C347.6,11.9,344.6,12.9,342.4,14.9z"/>
</g>
</svg>
