<?xml version="1.0" encoding="utf-8"?>
<!-- Generator: Adobe Illustrator 19.0.0, SVG Export Plug-In . SVG Version: 6.00 Build 0)  -->
<svg version="1.1" id="Calque_1" xmlns="http://www.w3.org/2000/svg" xmlns:xlink="http://www.w3.org/1999/xlink" x="0px" y="0px"
	 viewBox="0 0 156.9 194.9" enable-background="new 0 0 156.9 194.9" xml:space="preserve">
<path d="M143.8,32.1c1.3,1.9,2.7,3.7,3.8,5.7c1.4,2.5,2.8,4.9,3.8,7.6c1.6,4.2,2.9,8.6,4.2,12.9c0.5,1.8,0.7,3.8,0.9,5.7
	c0.7,6.5,0.8,12.8-1.7,19.1c-1.8,4.7-4.4,8.6-8.3,11.8c-1.9,1.6-4,2.9-6.3,3.8c-2.9,1.1-6,1.9-9,2.8c-0.7,0.2-1,0.4-1,1.2
	c0,3,0,5.9,0,8.9c0.2,9.4,0.4,18.8,0.6,28.2c0,0.4,0,0.9,0,1.4c1.1-0.2,2.1-0.5,3.1-0.6c1.6-0.2,3.1-0.4,4.5,0.7
	c2.2,1.6,3.9,3.7,5.2,6c2.5,4.3,3.7,9,3.3,14c-0.3,3.7-1.4,7-4.3,9.5c-2.1,1.9-4.5,3.3-7.1,4.4c-4.1,1.8-8.4,3.1-12.7,3.9
	c-3,0.6-6.1,1-9.2,1.5c-1.1,0.2-1.2,0.3-0.8,1.4c0,0.1,0.1,0.3,0.2,0.4c1.3,3.5,1,6.6-1.8,9.3c-3.3,3.4-8.6,3.2-12,0.3
	c-2.3-1.9-3.1-4.6-3.2-7.5c0-1.1,0-2.1,0-3.2c-15.1-0.1-30.1,0-45.1,0.7c0,0.5,0,1,0,1.4c0.5,3.9-0.5,7.2-3.7,9.7
	c-1.5,1.2-3,2.2-5,1.9c-1.3-0.2-2.7-0.2-3.9-0.7c-1.1-0.5-2.1-1.5-2.9-2.4c-2.3-2.4-2.4-5.3-1.4-8.3c0.5-1.6,0.4-1.7-1.2-1.8
	c-0.3,0-0.6,0-0.9,0c-2.3-0.1-4.6-0.1-6.9-0.2c-3.4-0.1-6.5-1.2-9.4-2.8c-2.8-1.5-5.3-3.3-7.6-5.5c-2.1-2.1-4.1-4.3-5.6-6.9
	c-1.1-2-1.9-4.1-2.2-6.3c-0.2-1.7,0.4-3.3,1-4.9c1.6-4.2,4.6-7.2,8.5-9.4c1.9-1.1,4-1.8,6.2-1.6c1.6,0.2,3.2,0.7,4.7,1.1
	c2.7,0.8,5.4,1.8,8.2,2.7c2.6,0.8,5.3,1.4,8.1,1.5c1.5,0.1,3.1,0.2,4.6,0.2c1.9,0,3.8,0,5.7,0c0-0.3,0-0.5,0.1-0.8
	c0.3-1.4,0.5-2.9,1-4.2c1.3-3.5,2.7-6.9,4.1-10.3c1.3-3.5,2.7-7,3.9-10.6c1.4-4.1,2.8-8.2,4-12.4c1.2-4.1,2.1-8.3,3.1-12.5
	c0.5-2.4,1-4.8,1.4-7.1c0.1-0.5,0-0.9-0.6-1.1c-2.8-1-5.6-2.2-8-4c-2.5-1.9-4.6-4.3-5.8-7.2c-2.4-5.8-2.5-11.9-1.7-18
	c0.5-4,1.8-7.8,3.6-11.4c1.4-2.8,2.7-5.7,4.2-8.4c1.3-2.3,2.8-4.6,4.3-6.7c1.1-1.6,2.3-3.1,3.6-4.6c1.8-2,3.6-4,5.6-5.8
	c1.7-1.6,3.6-3,5.5-4.4c3.4-2.4,7-4.3,10.8-6c0.4-0.2,0.6-0.4,0.5-0.8C85.8,8.9,88.2,5.1,92,3.1c4.7-2.5,9.8-3.5,15.1-3
	c9.5,0.9,18.3,3.8,26.7,8.2c3,1.6,5.8,3.5,8,6.2c0.5,0.6,0.9,1.2,1.3,1.8c1.9,2.3,2.8,5.1,2.9,8c0.1,2.8-0.8,5.2-2.5,7.3
	C143.6,31.8,143.7,32,143.8,32.1z M95.9,88.1c2.3,7,3.4,14.1,3.6,21.5c0.1,4.3,0.6,8.5,0.8,12.8c0.4,8,0.7,16,1,24
	c0.1,2-0.1,4.1-0.1,6.1c0,1.3,0.2,2.6,0.5,3.8c0.6,2.4,2.5,3.7,4.8,4.3c2.7,0.7,5.3,0.3,7.9-0.7c3.8-1.5,6.6-4,8.7-7.5
	c1.7-2.8,2.4-5.8,2.7-8.9c0.8-7.6,0.2-15.1,0-22.7c-0.2-6.9-0.3-13.8-0.2-20.7c0.1-3.3,0.7-6.6,1.5-9.8c0.8-3,1.8-6.1,3.7-8.6
	c1.4-1.9,3.1-3.7,4.8-5.3c2.3-2.1,4.7-4,7.2-5.9c-0.4,0.5-0.7,1-1.1,1.4c-2.2,2.9-4.5,5.7-6.4,8.8c-1.8,3-2.9,6.1-3.8,9.4
	c-0.5,2.1-0.8,4.2-1.2,6.3c0,0.2,0,0.4,0,0.8c0.2,0,0.3,0,0.4,0c4.3-1,8.4-2.3,12-5c3.6-2.7,5.9-6.2,7.5-10.4
	c2.6-6.6,2.2-13.4,1-20.2c-0.8-4.6-2-9.1-3.9-13.4c-1.2-2.7-2.6-5.4-4-8c-1-1.8-2.3-3.6-3.5-5.3c-2.4-3.1-5.1-5.8-8.2-8.1
	c-2.7-2-5.8-3.4-8.9-4.6c-5.9-2.4-12.1-4.1-18.4-5.1c-3.9-0.6-7.9-1.1-11.9-0.2c-2.8,0.6-5.4,1.9-8,3.2c-3.3,1.6-6.3,3.7-9.2,5.8
	c-0.5,0.4-1,0.8-1.4,1.2c-1.9,1.9-3.9,3.7-5.8,5.7c-1.5,1.6-2.8,3.3-4,5.1c-1.4,2-2.7,4-3.9,6.2c-1.5,2.8-2.8,5.7-4.2,8.6
	c-1.7,3.5-2.8,7.2-3.2,11.1c-0.4,4-0.4,7.9,0.8,11.8c0.5,1.5,1,3,1.9,4.3c1.7,2.5,3.9,4.3,6.7,5.5c1,0.4,2.1,0.8,3.2,1.3
	c0.6-3.8,1.2-7.4,1.7-11.1c0.1,0,0.2,0,0.3,0c0.3,1.3,0.7,2.7,1,4c1.2,5,1.2,10,0.3,15c-0.3,1.6-0.5,3.3-0.9,4.9
	c-1.3,5.1-2.5,10.2-4,15.2c-1.1,3.9-2.4,7.7-3.8,11.5c-1.3,3.6-2.7,7.3-4.1,10.9c-1.1,2.7-2.2,5.4-3.3,8.2c-0.4,1-0.9,2.1-1,3.2
	c-0.2,1.7,0.2,3.3,0.9,4.8c0.6,1.4,1.7,2.4,3.1,3.1c3.7,1.8,7.6,1.5,11.4,0.5c3-0.8,5.7-2.4,8-4.6c1.7-1.6,3.1-3.4,4.1-5.5
	c1.3-2.8,2.5-5.6,3.8-8.5c1.4-3.1,2.8-6.1,4.1-9.1c1.4-3.1,2.7-6.2,4-9.3c1.1-2.6,2.2-5.1,3.1-7.7c0.6-1.8,0.8-3.7,0.9-5.6
	c0.4-4.4,0.6-8.9,0.4-13.3c-0.1-1.7-0.2-3.3-0.3-5c0-0.2,0-0.3,0-0.5c0.1,0,0.1,0,0.2-0.1C95.7,87.7,95.8,87.9,95.9,88.1z
	 M141.2,22.7c-1-3.5-3.2-6.2-6.1-8.2c-2.1-1.4-4.3-2.8-6.6-3.8c-5.3-2.5-10.9-4.3-16.7-5.4c-2.9-0.6-5.8-1-8.8-0.8
	c-3.4,0.3-6.8,1-9.6,3.1c-1.3,1-2.3,2.3-2.3,4.1c0,0.6,0.2,0.8,0.8,0.7c4.8-0.9,9.5-0.4,14.2,0.4c4.8,0.8,9.4,2,14,3.5
	c3.7,1.3,7.4,2.7,10.9,4.7c2.9,1.7,5.6,3.6,8,6c0.4,0.4,0.9,0.8,1.4,1.2C141.6,26.4,141.7,24.5,141.2,22.7z M95.7,121.8
	c-0.1,0-0.2-0.1-0.2-0.1c-0.1,0.2-0.3,0.3-0.4,0.5c-1.1,2.6-2.1,5.2-3.2,7.7c-1.3,2.9-2.6,5.8-3.9,8.8c-1.3,2.9-2.6,5.8-3.9,8.6
	c-0.3,0.6-0.7,1.2-1,1.9c4.5,0,9,0,13.5,0C97,140,96.3,130.9,95.7,121.8z M37.2,181.6c-0.7,0-1.2,0.3-1.5,0.8
	c-1.7,2.4-1.8,5.9-0.1,8.3c1.5,2.1,3.6,3,6.3,3.1c3.9,0.1,6.6-2.5,7.3-5.6c0.6-2.4,0.1-4.5-1.6-6.3c-0.2-0.2-0.5-0.2-0.7-0.2
	c-1.7,0-3.4,0-5.1,0C40.3,181.6,38.8,181.7,37.2,181.6z M111.3,189.7c1.6-2.2,1.7-4.5,0.6-6.8c-0.7-1.4-1.7-2.3-3.5-2.2
	c-2.9,0.3-5.9,0.5-8.8,0.8c-0.7,0.1-1.2,0.5-1.5,1.1c-1.2,2.6-0.8,6.1,1.2,8.1c1.5,1.5,3.3,2.4,5.2,2.2
	C107.5,193.1,109.7,192,111.3,189.7z M106.2,166.6c0.2-0.1,0.3-0.4,0.4-0.6c-0.2-0.1-0.4-0.4-0.6-0.4c-0.9,0.1-1.8,0.3-2.7,0.6
	c-0.1,0-0.3,0.4-0.3,0.5c0,0.1,0.3,0.3,0.5,0.3c0.2,0.1,0.5,0,0.7,0c0,0,0,0.1,0,0.1C104.9,167,105.6,166.9,106.2,166.6z
	 M41.6,165.6c-0.4,0.2-0.8,0.4-1.2,0.6c0.4,0.3,0.7,0.7,1.2,0.7c0.6,0.1,1.2-0.1,1.8-0.3c0.2,0,0.4-0.3,0.4-0.5
	c0-0.2-0.3-0.4-0.4-0.4c-0.4-0.1-0.8-0.1-1.3-0.2c0,0,0,0,0,0C41.9,165.6,41.8,165.6,41.6,165.6z M44.8,158.3
	c0.2-0.1,0.3-0.4,0.3-0.5c0-0.2-0.3-0.4-0.5-0.4c-0.8,0.1-1.6,0.1-2.4,0.3c-0.5,0.1-0.5,0.5,0,0.7c0.3,0.2,0.7,0.2,1.1,0.3
	C43.7,158.6,44.3,158.5,44.8,158.3z"/>
<path fill="#FFFFFF" d="M95.4,87.6c0,0.2,0,0.3,0,0.5c0.1,1.7,0.2,3.3,0.3,5c0.2,4.4,0.1,8.9-0.4,13.3c-0.2,1.9-0.4,3.8-0.9,5.6
	c-0.8,2.6-2,5.2-3.1,7.7c-1.3,3.1-2.6,6.2-4,9.3c-1.4,3.1-2.8,6.1-4.1,9.1c-1.3,2.8-2.5,5.6-3.8,8.5c-1,2.2-2.4,3.9-4.1,5.5
	c-2.3,2.2-4.9,3.7-8,4.6c-3.8,1-7.7,1.3-11.4-0.5c-1.4-0.7-2.5-1.6-3.1-3.1c-0.7-1.5-1.1-3.2-0.9-4.8c0.1-1.1,0.6-2.1,1-3.2
	c1.1-2.7,2.3-5.4,3.3-8.2c1.4-3.6,2.8-7.2,4.1-10.9c1.3-3.8,2.7-7.6,3.8-11.5c1.4-5,2.7-10.1,4-15.2c0.4-1.6,0.6-3.3,0.9-4.9
	c0.9-5,0.9-10-0.3-15c-0.3-1.3-0.7-2.7-1-4c-0.1,0-0.2,0-0.3,0c-0.6,3.7-1.1,7.4-1.7,11.1c-1.2-0.5-2.2-0.9-3.2-1.3
	c-2.8-1.2-5-3-6.7-5.5c-0.9-1.3-1.4-2.8-1.9-4.3c-1.2-3.9-1.1-7.8-0.8-11.8c0.4-3.9,1.5-7.6,3.2-11.1c1.4-2.9,2.7-5.8,4.2-8.6
	c1.1-2.1,2.5-4.2,3.9-6.2c1.2-1.8,2.6-3.5,4-5.1c1.8-2,3.8-3.8,5.8-5.7c0.5-0.4,0.9-0.9,1.4-1.2c2.9-2.1,5.9-4.2,9.2-5.8
	c2.6-1.3,5.1-2.6,8-3.2c4-0.8,8-0.4,11.9,0.2c6.3,1,12.4,2.7,18.4,5.1c3.1,1.3,6.2,2.6,8.9,4.6c3.1,2.3,5.8,5.1,8.2,8.1
	c1.3,1.7,2.5,3.4,3.5,5.3c1.5,2.6,2.8,5.3,4,8c1.9,4.3,3.1,8.8,3.9,13.4c1.2,6.8,1.6,13.5-1,20.2c-1.6,4.2-3.9,7.7-7.5,10.4
	c-3.6,2.7-7.7,4-12,5c-0.1,0-0.3,0-0.4,0c0-0.3,0-0.5,0-0.8c0.4-2.1,0.7-4.2,1.2-6.3c0.8-3.3,1.9-6.5,3.8-9.4
	c1.9-3.1,4.2-5.9,6.4-8.8c0.4-0.5,0.7-0.9,1.1-1.4c-2.5,1.9-4.9,3.8-7.2,5.9c-1.7,1.6-3.4,3.4-4.8,5.3c-1.9,2.5-2.9,5.6-3.7,8.6
	c-0.9,3.2-1.5,6.5-1.5,9.8c-0.2,6.9,0,13.8,0.2,20.7c0.2,7.6,0.7,15.1,0,22.7c-0.3,3.2-1,6.1-2.7,8.9c-2.1,3.5-5,6-8.7,7.5
	c-2.6,1-5.2,1.4-7.9,0.7c-2.3-0.6-4.1-1.9-4.8-4.3c-0.3-1.2-0.5-2.5-0.5-3.8c-0.1-2,0.1-4.1,0.1-6.1c-0.3-8-0.6-16-1-24
	c-0.2-4.3-0.7-8.5-0.8-12.8c-0.2-7.3-1.3-14.5-3.6-21.5c-0.1-0.2-0.2-0.4-0.3-0.6C95.5,87.5,95.5,87.5,95.4,87.6z M99.8,55.5
	c1.2,0.2,2.3-0.5,2.6-1.7c1.5-4.7,2.8-9.5,4.4-14.2c1.3-3.8,2.9-7.5,4.3-11.3c0.3-0.8,0.4-1.7-0.2-2.4c-0.6-0.7-1.3-1-2.1-0.8
	c-0.8,0.2-1.5,0.6-1.8,1.5c-0.9,2.5-2,5-2.9,7.6c-1.4,4.1-2.7,8.3-4.1,12.4c-0.6,1.8-1.2,3.7-1.8,5.5C98,52.5,98,52.9,98,53
	C98,54.5,98.7,55.4,99.8,55.5z M90.1,43.4c1.6-3,3.2-6.2,5-9.1c1.4-2.3,3.2-4.5,4.8-6.7c0.4-0.5,0.7-1.1,0.8-1.8
	c0.2-1-0.3-1.7-1.3-2.1c-1-0.4-2-0.2-2.7,0.6c-0.9,1.1-1.8,2.2-2.6,3.3c-2.3,3.2-4.5,6.5-6.1,10.1c-0.6,1.3-1.4,2.5-2.1,3.8
	c-0.7,1.5-0.2,2.9,1.1,3.3c0.3,0.1,0.6,0.1,0.7,0.1C89,45,89.6,44.3,90.1,43.4z M117.9,50.8c1.2,0.1,2.3-0.6,2.5-1.8
	c0.4-2.1,0.6-4.3,1-6.4c0.6-3.1,1.2-6.1,1.8-9.2c0.2-1,0.6-2,0.7-3c0.2-1.1-0.5-1.7-1.7-2.1c-1-0.3-2,0.1-2.5,1
	c-0.3,0.6-0.6,1.3-0.7,2c-1.5,5.4-2.2,11-3,16.6c0,0.2,0,0.4,0,0.5C116.1,49.7,116.8,50.6,117.9,50.8z"/>
<path fill="#FFFFFF" d="M140.4,28.1c1.2-1.8,1.3-3.6,0.8-5.4c-1-3.5-3.2-6.2-6.1-8.2c-2.1-1.4-4.3-2.8-6.6-3.8
	c-5.3-2.5-10.9-4.3-16.7-5.4c-2.9-0.6-5.8-1-8.8-0.8c-3.4,0.3-6.8,1-9.6,3.1c-1.3,1-2.3,2.3-2.3,4.1c0,0.6,0.2,0.8,0.8,0.7
	c4.8-0.9,9.5-0.4,14.2,0.4c4.8,0.8,9.4,2,14,3.5c3.7,1.3,7.4,2.7,10.9,4.7c2.9,1.7,5.6,3.6,8,6C139.4,27.3,139.9,27.6,140.4,28.1z"
	/>
<path fill="#FFFFFF" d="M46.9,181.6c0.3,0,0.6,0.1,0.7,0.2c1.7,1.8,2.2,4,1.6,6.3c-0.8,3.1-3.5,5.6-7.3,5.6c-2.7-0.1-4.8-1-6.3-3.1
	c-1.7-2.4-1.6-5.9,0.1-8.3c0.4-0.5,0.8-0.8,1.5-0.8c1.5,0.1,3.1,0,4.6,0C43.6,181.6,45.2,181.6,46.9,181.6z M42.2,183.2
	c-2.3,0-4.1,1.6-4.2,3.6c-0.1,2.3,2.5,4.5,4.3,4.5c2.1,0,3.7-2,3.7-4.4C46,184.6,44.5,183.2,42.2,183.2z"/>
<path fill="#FFFFFF" d="M99.3,190.8c-2-2-2.4-5.4-1.2-8.1c0.3-0.7,0.7-1.1,1.5-1.1c2.9-0.3,5.9-0.5,8.8-0.8c1.8-0.2,2.8,0.7,3.5,2.2
	c1.1,2.4,0.9,4.6-0.6,6.8c-1.6,2.3-3.8,3.3-6.7,3.3C102.6,193.2,100.8,192.3,99.3,190.8z M109.4,186.5c0-2.2-1.8-3.9-4.2-3.8
	c-2.3,0-4,1.6-4,3.8c0,2.5,1.4,4,3.9,4C107.5,190.4,109.4,188.8,109.4,186.5z"/>
<path fill="#FFFFFF" d="M104.3,167.3c0.6-0.2,1.3-0.4,1.9-0.6c0.2-0.1,0.3-0.4,0.4-0.6c-0.2-0.1-0.4-0.4-0.6-0.4
	c-0.9,0.1-1.8,0.3-2.7,0.6c-0.1,0-0.3,0.4-0.3,0.5c0,0.1,0.3,0.3,0.5,0.3c0.2,0.1,0.5,0,0.7,0C104.3,167.2,104.3,167.2,104.3,167.3z
	"/>
<path fill="#FFFFFF" d="M42.1,165.6c-0.1,0-0.3,0-0.4,0c-0.4,0.2-0.8,0.4-1.2,0.6c0.4,0.3,0.7,0.7,1.2,0.7c0.6,0.1,1.2-0.1,1.8-0.3
	c0.2,0,0.4-0.3,0.4-0.5c0-0.2-0.3-0.4-0.4-0.4C42.9,165.6,42.5,165.6,42.1,165.6C42.1,165.6,42.1,165.6,42.1,165.6z"/>
<path fill="#FFFFFF" d="M43.3,158.8c0.5-0.1,1-0.2,1.5-0.4c0.2-0.1,0.3-0.4,0.3-0.5c0-0.2-0.3-0.4-0.5-0.4c-0.8,0.1-1.6,0.1-2.4,0.3
	c-0.5,0.1-0.5,0.5,0,0.7C42.4,158.6,42.8,158.6,43.3,158.8z"/>
<path d="M98,53c0,1.5,0.7,2.3,1.8,2.5c1.2,0.2,2.3-0.5,2.6-1.7c1.5-4.7,2.8-9.5,4.4-14.2c1.3-3.8,2.9-7.5,4.3-11.3
	c0.3-0.8,0.4-1.7-0.2-2.4c-0.6-0.7-1.3-1-2.1-0.8c-0.8,0.2-1.5,0.6-1.8,1.5c-0.9,2.5-2,5-2.9,7.6c-1.4,4.1-2.7,8.3-4.1,12.4
	c-0.6,1.8-1.2,3.7-1.8,5.5C98,52.5,98,52.9,98,53z"/>
<path d="M87.7,45c1.3,0,1.9-0.7,2.4-1.6c1.6-3,3.2-6.2,5-9.1c1.4-2.3,3.2-4.5,4.8-6.7c0.4-0.5,0.7-1.1,0.8-1.8
	c0.2-1-0.3-1.7-1.3-2.1c-1-0.4-2-0.2-2.7,0.6c-0.9,1.1-1.8,2.2-2.6,3.3c-2.3,3.2-4.5,6.5-6.1,10.1c-0.6,1.3-1.4,2.5-2.1,3.8
	c-0.7,1.5-0.2,2.9,1.1,3.3C87.3,45,87.6,45,87.7,45z"/>
<path d="M116.1,49.2c0,1.4,0.7,2.3,1.9,2.4c1.2,0.1,2.3-0.6,2.5-1.8c0.4-2.1,0.6-4.3,1-6.4c0.6-3.1,1.2-6.1,1.8-9.2
	c0.2-1,0.6-2,0.7-3c0.2-1.1-0.5-1.7-1.7-2.1c-1-0.3-2,0.1-2.5,1c-0.3,0.6-0.6,1.3-0.7,2c-1.5,5.4-2.2,11-3,16.6
	C116.1,48.9,116.1,49.1,116.1,49.2z"/>
<path d="M45.9,186.9c0-2.3-1.4-3.7-3.8-3.7c-2.3,0-4.1,1.6-4.2,3.6c-0.1,2.3,2.5,4.5,4.3,4.5C44.3,191.3,45.9,189.3,45.9,186.9z"/>
<path d="M105,190.4c2.4-0.1,4.3-1.7,4.3-3.9c0-2.2-1.8-3.9-4.2-3.8c-2.3,0-4,1.6-4,3.8C101.2,189,102.6,190.4,105,190.4z"/>
</svg>
