<?xml version="1.0" standalone="no"?>
<!DOCTYPE svg PUBLIC "-//W3C//DTD SVG 20010904//EN"
 "http://www.w3.org/TR/2001/REC-SVG-20010904/DTD/svg10.dtd">
<svg version="1.0" xmlns="http://www.w3.org/2000/svg"
 width="1100.000000pt" height="200.000000pt" viewBox="0 0 1100.000000 200.000000"
 preserveAspectRatio="xMidYMid meet">

<g transform="translate(0.000000,200.000000) scale(0.100000,-0.100000)"
fill="#000000" stroke="none">
<path d="M1284 1791 c-99 -45 -404 -330 -494 -461 l-45 -65 -3 198 c-3 222 -7
237 -69 258 -43 14 -141 7 -171 -12 -12 -8 -29 -29 -38 -48 -15 -31 -16 -75
-10 -410 8 -474 22 -806 35 -850 14 -46 57 -89 100 -101 93 -26 224 0 251 50
9 17 8 26 -7 47 -50 70 -53 79 -53 140 0 34 10 108 21 163 l22 100 35 -57 c90
-150 350 -451 433 -501 68 -41 247 -41 273 1 9 14 -5 33 -94 119 -152 148
-228 252 -385 528 -49 85 -97 168 -108 183 -25 37 -20 54 52 163 70 106 179
220 348 361 144 122 169 149 151 171 -37 44 -170 56 -244 23z m196 -59 c0 -4
-59 -56 -130 -116 -163 -136 -277 -256 -351 -368 -92 -141 -94 -118 28 -330
204 -356 276 -460 411 -590 l80 -78 -37 -2 c-73 -3 -147 5 -171 17 -64 34
-290 291 -391 445 -86 130 -86 130 -103 124 -22 -9 -59 -159 -64 -262 -5 -96
10 -163 44 -197 38 -38 -117 -72 -200 -43 -79 26 -78 22 -97 441 -22 457 -24
836 -6 860 10 14 12 3 13 -65 3 -122 36 -201 63 -150 6 11 13 55 17 99 5 63 3
87 -9 112 l-15 30 31 6 c18 4 50 0 72 -7 l40 -13 5 -205 c3 -139 9 -211 17
-225 13 -20 13 -20 30 1 10 12 37 48 61 81 23 33 77 95 120 139 85 87 290 262
337 287 31 17 205 25 205 9z m-933 -219 c-2 -21 -4 -4 -4 37 0 41 2 58 4 38 2
-21 2 -55 0 -75z"/>
<path d="M7134 1791 c-99 -45 -404 -330 -494 -461 l-45 -65 -3 198 c-3 222 -7
237 -69 258 -43 14 -141 7 -171 -12 -12 -8 -29 -29 -38 -48 -15 -31 -16 -75
-10 -410 8 -474 22 -806 35 -850 14 -46 57 -89 100 -101 93 -26 224 0 251 50
9 17 8 26 -7 47 -50 70 -53 79 -53 140 0 34 10 108 21 163 l22 100 35 -57 c90
-150 350 -451 433 -501 68 -41 247 -41 273 1 9 14 -5 33 -94 119 -152 148
-228 252 -385 528 -49 85 -97 168 -108 183 -25 37 -20 54 52 163 70 106 179
220 348 361 144 122 169 149 151 171 -37 44 -170 56 -244 23z m196 -59 c0 -4
-58 -56 -129 -115 -166 -139 -276 -254 -350 -366 -95 -144 -96 -121 25 -333
199 -347 280 -462 412 -590 l80 -78 -37 -2 c-73 -3 -147 5 -171 17 -31 16
-152 140 -250 255 -69 81 -210 282 -210 299 0 13 -25 20 -39 11 -22 -13 -61
-197 -61 -285 0 -79 24 -159 52 -176 22 -14 -45 -43 -106 -47 -75 -4 -132 14
-160 51 -18 25 -21 55 -37 400 -22 457 -24 836 -6 860 10 14 12 3 13 -65 3
-122 36 -201 63 -150 6 11 13 55 17 99 5 63 3 87 -9 112 l-15 30 31 6 c18 4
50 0 72 -7 l40 -13 5 -205 c3 -139 9 -211 17 -225 13 -20 13 -20 30 1 10 12
38 49 62 82 24 34 78 96 120 139 85 87 290 262 336 286 31 17 205 25 205 9z
m-933 -219 c-2 -21 -4 -4 -4 37 0 41 2 58 4 38 2 -21 2 -55 0 -75z"/>
<path d="M4879 1780 c-71 -12 -108 -36 -129 -84 -43 -96 -69 -507 -41 -641 35
-165 125 -236 301 -237 150 -2 222 32 312 145 l38 49 0 -149 c0 -166 -18 -299
-54 -397 -45 -126 -72 -144 -152 -103 -71 37 -120 89 -133 142 -6 24 -15 86
-21 136 -11 114 -23 128 -107 136 -71 6 -121 -7 -154 -43 -19 -20 -23 -35 -22
-80 3 -115 54 -248 116 -300 92 -77 254 -128 412 -128 99 -1 116 2 166 25 76
36 135 91 170 161 58 115 61 138 66 568 7 574 -3 644 -93 663 -54 11 -191 -7
-214 -28 -10 -10 -45 -83 -76 -164 -71 -183 -179 -402 -221 -450 -27 -30 -34
-34 -43 -21 -13 19 -13 391 0 485 5 39 22 107 36 151 30 90 27 125 -9 148 -30
18 -92 25 -148 16z m141 -76 c7 -7 3 -30 -14 -76 -36 -94 -49 -207 -50 -428
-1 -167 2 -202 17 -242 24 -61 46 -63 88 -5 44 59 190 362 236 486 48 132 60
141 188 141 50 0 97 -5 105 -10 13 -8 15 -77 15 -517 l0 -508 -23 -57 c-56
-139 -134 -206 -261 -228 -159 -27 -396 42 -485 140 -43 48 -77 137 -83 221
l-5 66 31 12 c34 15 159 17 172 4 4 -4 13 -48 20 -98 21 -162 63 -238 163
-296 84 -48 121 -38 162 44 65 128 91 257 101 508 9 235 -2 263 -67 166 -91
-136 -163 -177 -313 -177 -96 0 -144 13 -192 52 -80 67 -101 162 -92 423 7
191 27 329 50 352 27 27 91 43 159 40 37 -1 72 -7 78 -13z"/>
<path d="M4814 1632 c-6 -4 -20 -23 -30 -42 -26 -49 -32 -308 -7 -317 17 -7
57 33 48 47 -3 5 2 34 10 66 19 73 20 227 2 242 -7 6 -18 8 -23 4z m4 -136
c-3 -46 -11 -92 -17 -102 -10 -15 -11 -2 -8 66 5 81 13 120 24 120 3 0 3 -38
1 -84z"/>
<path d="M4150 1723 c-261 -30 -476 -81 -524 -123 -27 -25 -29 -29 -16 -45 41
-50 200 -62 300 -24 62 24 261 71 269 64 21 -21 -200 -412 -262 -463 -8 -7
-65 -19 -128 -27 -99 -13 -117 -18 -136 -40 -20 -23 -29 -25 -97 -25 l-75 0
-5 33 c-3 17 -13 84 -21 147 -35 270 -109 416 -239 480 -43 21 -61 23 -195 22
-137 0 -151 -1 -197 -25 -144 -73 -248 -291 -289 -609 l-6 -48 -64 0 -64 0 -5
33 c-3 17 -13 84 -21 147 -35 270 -109 416 -239 480 -43 21 -61 23 -195 22
-138 0 -151 -1 -198 -25 -172 -88 -293 -403 -293 -768 0 -309 88 -502 269
-592 64 -31 69 -32 196 -32 122 0 134 2 186 28 122 59 209 193 255 393 43 185
42 183 74 199 16 8 45 15 65 15 l35 0 0 -69 c0 -249 102 -452 269 -534 64 -31
69 -32 196 -32 122 0 134 2 186 28 122 59 209 193 255 393 41 177 44 183 67
196 12 6 60 17 107 22 78 10 85 13 88 34 3 19 8 22 30 18 15 -3 43 -8 63 -12
l37 -6 -88 -181 c-49 -100 -98 -210 -109 -244 -26 -78 -27 -144 -3 -165 43
-38 87 -43 412 -42 308 1 484 13 559 37 47 16 54 48 15 74 -25 16 -60 18 -367
21 l-339 3 7 27 c20 82 148 353 211 448 43 65 59 70 224 78 146 7 196 18 205
47 15 45 -33 64 -187 75 -61 4 -98 11 -98 18 0 6 32 61 71 121 92 142 130 225
137 297 5 57 4 59 -32 93 -52 49 -124 58 -296 38z m225 -64 c60 -17 78 -36 71
-80 -9 -56 -39 -119 -107 -227 -115 -180 -112 -175 -92 -215 21 -41 40 -47
149 -47 122 0 83 -17 -53 -25 -159 -8 -188 -17 -233 -78 -61 -81 -215 -406
-235 -496 -5 -23 -3 -33 9 -37 9 -3 16 -12 16 -19 0 -7 8 -16 18 -20 9 -3 145
-3 302 0 180 5 294 3 310 -3 47 -18 -102 -27 -470 -27 -397 0 -420 3 -420 57
0 49 37 145 136 350 53 109 93 201 90 206 -3 6 -27 13 -53 16 -91 13 -89 19 7
32 84 10 97 15 118 40 78 94 240 378 268 470 16 55 10 74 -26 74 -36 0 -267
-58 -302 -76 -42 -22 -247 -13 -212 9 20 12 206 55 309 72 234 37 330 43 400
24z m-2238 -22 c55 -30 103 -78 130 -130 33 -66 68 -207 83 -337 6 -58 20
-124 30 -147 19 -43 19 -43 72 -44 50 -1 51 -2 16 -8 -43 -9 -83 -33 -98 -61
-6 -10 -19 -63 -30 -117 -49 -236 -124 -369 -244 -428 -99 -49 -275 -45 -380
7 -93 47 -174 163 -211 303 -36 136 -29 418 15 589 24 93 75 224 100 256 l20
25 -12 -34 c-8 -25 -8 -39 0 -52 10 -15 8 -18 -11 -21 -28 -4 -30 -46 -3 -62
14 -9 20 -7 30 8 6 10 33 48 60 85 53 72 90 147 82 167 -8 21 12 23 169 21
121 -2 156 -6 182 -20z m1080 0 c55 -30 103 -78 130 -130 33 -66 68 -207 83
-337 6 -58 20 -124 30 -147 19 -43 19 -43 72 -44 50 -1 51 -2 16 -8 -43 -9
-83 -33 -98 -61 -6 -10 -19 -63 -30 -117 -36 -175 -78 -274 -149 -355 -60 -68
-128 -98 -238 -105 -147 -9 -238 21 -325 108 -88 88 -135 220 -145 409 -3 63
-10 121 -16 128 -6 8 -6 17 2 26 6 7 16 53 22 102 19 152 82 355 129 414 l20
25 -12 -34 c-8 -25 -8 -39 0 -52 10 -15 8 -18 -11 -21 -27 -4 -34 -34 -13 -57
9 -10 13 -21 9 -24 -3 -4 -2 -7 3 -7 5 0 18 15 29 33 10 17 39 59 63 92 49 66
85 142 78 161 -8 21 12 23 169 21 121 -2 156 -6 182 -20z m-1482 -54 c-9 -16
-32 -46 -52 -68 l-34 -40 16 35 c15 30 72 100 83 100 2 0 -4 -12 -13 -27z
m1080 0 c-9 -16 -32 -46 -52 -68 l-34 -40 16 35 c15 30 72 100 83 100 2 0 -4
-12 -13 -27z"/>
<path d="M4367 1629 c-9 -6 -17 -17 -17 -25 0 -9 -19 -56 -42 -106 -39 -83
-41 -91 -25 -103 9 -7 17 -18 17 -25 0 -28 42 26 80 103 44 87 51 140 22 156
-11 6 -24 6 -35 0z m-6 -114 c-41 -88 -46 -82 -7 9 17 40 33 69 34 65 2 -5
-10 -38 -27 -74z"/>
<path d="M1908 1611 c-13 -11 -42 -57 -64 -103 -32 -68 -39 -94 -39 -143 0
-118 104 -268 234 -339 l53 -28 20 22 c20 21 20 23 4 165 -39 341 -116 498
-208 426z m71 -35 c12 -13 30 -46 41 -73 23 -62 57 -238 68 -355 l8 -86 -47
23 c-115 59 -213 186 -214 280 0 54 47 170 87 213 27 27 29 27 57 -2z"/>
<path d="M1709 1063 c-15 -38 -2 -260 21 -375 22 -106 73 -219 125 -277 63
-70 78 -60 159 109 85 178 137 408 96 431 -8 4 -58 19 -110 33 -52 15 -131 44
-175 66 -44 22 -86 40 -93 40 -7 0 -17 -12 -23 -27z m222 -92 c46 -15 101 -31
121 -35 21 -4 39 -10 42 -14 8 -13 -21 -154 -48 -235 -31 -91 -97 -227 -121
-247 -14 -11 -21 -8 -56 26 -48 47 -73 96 -99 199 -21 81 -43 335 -33 373 5
21 6 20 58 -9 29 -16 90 -42 136 -58z"/>
<path d="M2988 1611 c-13 -11 -42 -57 -64 -103 -32 -68 -39 -94 -39 -143 0
-118 104 -268 234 -339 l53 -28 20 22 c20 21 20 23 4 165 -39 341 -116 498
-208 426z m71 -35 c12 -13 30 -46 41 -73 23 -62 57 -238 68 -355 l8 -86 -47
23 c-115 59 -213 186 -214 280 0 54 47 170 87 213 27 27 29 27 57 -2z"/>
<path d="M2789 1063 c-15 -38 -2 -260 21 -375 22 -106 73 -219 125 -277 63
-70 78 -60 159 109 85 178 137 408 96 431 -8 4 -58 19 -110 33 -52 15 -131 44
-175 66 -44 22 -86 40 -93 40 -7 0 -17 -12 -23 -27z m222 -92 c46 -15 101 -31
121 -35 21 -4 39 -10 42 -14 8 -13 -21 -154 -48 -235 -31 -91 -97 -227 -121
-247 -14 -11 -21 -8 -56 26 -48 47 -73 96 -99 199 -21 81 -43 335 -33 373 5
21 6 20 58 -9 29 -16 90 -42 136 -58z"/>
<path d="M10000 1723 c-261 -30 -476 -81 -524 -123 -27 -25 -29 -29 -16 -45
41 -50 200 -62 300 -24 62 24 261 71 269 64 21 -21 -200 -412 -262 -463 -8 -7
-65 -19 -128 -27 -99 -13 -117 -18 -136 -40 -20 -23 -29 -25 -97 -25 l-75 0
-5 33 c-3 17 -13 84 -21 147 -35 270 -109 416 -239 480 -43 21 -61 23 -195 22
-137 0 -151 -1 -197 -25 -144 -73 -248 -291 -289 -609 l-6 -48 -64 0 -64 0 -5
33 c-3 17 -13 84 -21 147 -35 270 -109 416 -239 480 -43 21 -61 23 -195 22
-138 0 -151 -1 -198 -25 -172 -88 -293 -403 -293 -768 0 -309 88 -502 269
-592 64 -31 69 -32 196 -32 122 0 134 2 186 28 122 59 209 193 255 393 43 185
42 183 74 199 16 8 45 15 65 15 l35 0 0 -69 c0 -249 102 -452 269 -534 64 -31
69 -32 196 -32 122 0 134 2 186 28 122 59 209 193 255 393 41 177 44 183 67
196 12 6 60 17 107 22 78 10 85 13 88 34 3 19 8 22 30 18 15 -3 43 -8 63 -12
l37 -6 -88 -181 c-49 -100 -98 -210 -109 -244 -26 -78 -27 -144 -3 -165 43
-38 87 -43 412 -42 308 1 484 13 559 37 47 16 54 48 15 74 -25 16 -60 18 -367
21 l-339 3 7 27 c20 82 148 353 211 448 43 65 59 70 224 78 146 7 196 18 205
47 15 45 -33 64 -187 75 -61 4 -98 11 -98 18 0 6 32 61 71 121 92 142 130 225
137 297 5 57 4 59 -32 93 -52 49 -124 58 -296 38z m225 -64 c24 -6 52 -20 61
-30 15 -17 16 -25 5 -73 -11 -50 -77 -173 -148 -277 -60 -88 -65 -104 -46
-143 21 -40 41 -46 149 -46 122 0 83 -17 -53 -25 -158 -8 -188 -17 -233 -77
-60 -80 -215 -408 -235 -497 -5 -23 -3 -33 9 -37 9 -3 16 -12 16 -19 0 -7 8
-16 17 -19 9 -4 146 -4 303 0 180 4 294 3 310 -4 47 -18 -101 -27 -470 -27
-397 0 -420 3 -420 57 0 49 37 145 136 350 53 109 93 201 90 206 -3 6 -27 13
-53 16 -91 13 -89 19 7 32 84 10 97 15 118 40 80 96 246 390 270 477 14 50 6
67 -28 67 -36 0 -267 -58 -302 -76 -42 -22 -247 -13 -212 9 20 12 206 55 309
72 235 37 325 43 400 24z m-2238 -22 c55 -30 103 -78 130 -130 33 -66 68 -207
83 -337 6 -58 20 -124 30 -147 19 -43 19 -43 72 -44 50 -1 51 -2 16 -8 -43 -9
-83 -33 -98 -61 -6 -10 -19 -63 -30 -117 -49 -236 -124 -369 -244 -428 -99
-49 -275 -45 -380 7 -93 47 -174 163 -211 303 -36 136 -29 418 15 589 24 93
75 224 100 256 l20 25 -12 -34 c-8 -25 -8 -39 0 -52 10 -15 8 -18 -11 -21 -28
-4 -30 -46 -3 -62 14 -9 20 -7 30 8 6 10 33 48 60 85 53 72 90 147 82 167 -8
20 18 23 174 21 117 -2 151 -6 177 -20z m1080 0 c55 -30 103 -78 130 -130 33
-66 68 -207 83 -337 6 -58 20 -124 30 -147 19 -43 19 -43 72 -44 50 -1 51 -2
16 -8 -43 -9 -83 -33 -98 -61 -6 -10 -19 -63 -30 -117 -36 -175 -78 -274 -149
-355 -60 -68 -128 -98 -238 -105 -147 -9 -238 21 -325 108 -87 87 -135 220
-144 404 -3 61 -11 120 -17 133 -8 18 -8 25 1 31 7 4 17 48 23 97 19 152 82
355 129 414 l20 25 -12 -34 c-8 -25 -8 -39 0 -52 10 -15 8 -18 -11 -21 -28 -4
-30 -46 -3 -62 14 -9 20 -7 30 8 6 10 33 48 60 85 53 72 90 147 82 167 -8 21
12 23 169 21 121 -2 156 -6 182 -20z m-1482 -54 c-9 -16 -32 -46 -52 -68 l-34
-40 16 35 c15 30 72 100 83 100 2 0 -4 -12 -13 -27z m1080 0 c-9 -16 -32 -46
-52 -68 l-34 -40 16 35 c15 30 72 100 83 100 2 0 -4 -12 -13 -27z"/>
<path d="M10217 1629 c-9 -6 -17 -17 -17 -25 0 -9 -19 -56 -42 -106 -39 -83
-41 -91 -25 -103 9 -7 17 -18 17 -25 0 -28 42 26 80 103 44 87 51 140 22 156
-11 6 -24 6 -35 0z m-6 -114 c-41 -88 -46 -82 -7 9 17 40 33 69 34 65 2 -5
-10 -38 -27 -74z"/>
<path d="M7758 1611 c-13 -11 -42 -57 -64 -103 -32 -68 -39 -94 -39 -143 0
-118 104 -268 234 -339 l53 -28 20 22 c20 21 20 23 4 165 -39 341 -116 498
-208 426z m71 -35 c12 -13 30 -46 41 -73 23 -62 57 -238 68 -355 l8 -86 -47
23 c-115 59 -213 186 -214 280 0 54 47 170 87 213 27 27 29 27 57 -2z"/>
<path d="M7559 1063 c-15 -38 -2 -260 21 -375 22 -106 73 -219 125 -277 63
-70 78 -60 159 109 85 178 137 408 96 431 -8 4 -58 19 -110 33 -52 15 -131 44
-175 66 -44 22 -86 40 -93 40 -7 0 -17 -12 -23 -27z m222 -92 c46 -15 101 -31
121 -35 21 -4 39 -10 42 -14 8 -13 -21 -154 -48 -235 -31 -91 -97 -227 -121
-247 -14 -11 -21 -8 -56 26 -48 47 -73 96 -99 199 -21 81 -43 335 -33 373 5
21 6 20 58 -9 29 -16 90 -42 136 -58z"/>
<path d="M8838 1611 c-13 -11 -42 -57 -64 -103 -32 -68 -39 -94 -39 -143 0
-118 104 -268 234 -339 l53 -28 20 22 c20 21 20 23 4 165 -39 341 -116 498
-208 426z m71 -35 c12 -13 30 -46 41 -73 23 -62 57 -238 68 -355 l8 -86 -47
23 c-115 59 -213 186 -214 280 0 54 47 170 87 213 27 27 29 27 57 -2z"/>
<path d="M8639 1063 c-15 -38 -2 -260 21 -375 22 -106 73 -219 125 -277 63
-70 78 -60 159 109 85 178 137 408 96 431 -8 4 -58 19 -110 33 -52 15 -131 44
-175 66 -44 22 -86 40 -93 40 -7 0 -17 -12 -23 -27z m222 -92 c46 -15 101 -31
121 -35 21 -4 39 -10 42 -14 8 -13 -21 -154 -48 -235 -31 -91 -97 -227 -121
-247 -14 -11 -21 -8 -56 26 -48 47 -73 96 -99 199 -21 81 -43 335 -33 373 5
21 6 20 58 -9 29 -16 90 -42 136 -58z"/>
</g>
</svg>
