<?xml version="1.0" encoding="utf-8"?>
<!-- Generator: Adobe Illustrator 19.0.0, SVG Export Plug-In . SVG Version: 6.00 Build 0)  -->
<svg version="1.1" id="Calque_1" xmlns="http://www.w3.org/2000/svg" xmlns:xlink="http://www.w3.org/1999/xlink" x="0px" y="0px"
	 viewBox="0 0 694 90" enable-background="new 0 0 694 90" xml:space="preserve">
<g>
	<path d="M574,90c-3.7,0-7.3,0-11,0c-14.3-2.6-24.1-10.5-28.8-24.4c-0.1-0.2-0.5-0.3-1-0.6c-0.9,1.4-1.8,2.7-2.7,4.1
		c-5.1,7.7-11.4,13.9-20.2,17.1c-4,1.5-8.2,2.5-12.3,3.8c-3.7,0-7.3,0-11,0c-12.1-2.4-21.9-8-27.2-20.6c-5,7.4-9.4,14-13.8,20.6
		c-0.3,0-0.7,0-1,0c-5.9-5.4-11.9-10.9-18.8-17.3c0,3.2-0.2,5,0,6.8c0.4,3.8-0.6,5.7-5,5.9c-6.1,0.2-12.3,1-18.3,2.1
		c-3.3,0.6-3.8-0.9-3.8-3.4c-0.4-24.5-0.9-49-1.1-73.4c0-1.3,1.9-3.4,3.2-3.7c7.4-1.2,14.8-2,22.2-3c3.6-0.5,4.8,0.8,4.5,4.4
		c-0.3,3.7-0.1,7.4-0.1,12.6c5.3-7.8,9.7-14.3,14.2-20.9c0.7,0,1.3,0,2,0c6.4,7.6,12.7,15.2,19.2,23c-9.3,8.7-18.3,17-27.6,25.7
		c7.8,6.5,15,12.5,22.7,18.9c-0.9-5.3-2-9.8-2.3-14.3c-1.3-24.5,19.7-48.5,44.6-51.4c17.8-2,30.3,5.8,36,22.8
		c0.3,0.9,0.7,1.7,1.2,3.1c1.2-1.5,2.1-2.4,2.8-3.5c6.2-8.8,14.5-15.1,24.4-19.2c11.5-4.8,23.2-5.6,34,1.2c5.2,3.3,9,8.7,13.4,13.1
		c0.6-2.7,1.7-6.1,2.1-9.5c0.4-3.8,2.1-5,5.8-5.1c12.1-0.2,24.3-0.6,36.4-1c4-0.1,7.9-0.6,11.9-0.7c7-0.1,14,0,21.9,0
		c-11.3,18.9-22,37-33.3,56c2.8-0.4,4.4-0.6,6.1-0.8c10.2-1.1,20.4-2.2,30.7-3.3c0,1.3,0,2.7,0,4c-1.3,6.8-2.9,13.6-3.7,20.5
		c-0.5,4.3-2.4,5.4-6.4,5.6c-14.6,0.7-29.1,1.9-43.7,2.8c-8.1,0.5-16.2,0.8-25.2,1.3c4.2-10.3,8.1-19.8,11.9-29.3
		c3.9-9.7,7.9-19.3,12.1-29.6c-6.1,0.3-11.3,0.7-16.6,0.8c-7.2,0.2-7.3,0.2-7.2,7.2c0.4,26.4-14.5,45.2-40.4,51
		C574.5,89.5,574.3,89.8,574,90z M557.1,52.3c-0.1,11.4,7.3,16.5,17.2,11.9c8.1-3.8,14.3-16.8,12.2-25.3c-1.9-7.6-7.8-10.7-15.3-8.1
		C562.9,33.6,557.2,42.3,557.1,52.3z M481.1,52.3c0,11.7,8.2,16.9,18.2,11.3c7.3-4,12.9-15.8,11.4-23.9c-1.5-8.3-8.1-11.9-16-8.8
		C486.6,34.1,481.2,42.7,481.1,52.3z"/>
	<path d="M176,90c-3.7,0-7.3,0-11,0c-4.8-1.8-9.8-3.1-14.2-5.4c-8-4.1-11.8-11.7-15-20.4c-1.5,2.2-2.6,3.8-3.7,5.4
		c-5.8,9-13.8,15.1-24,18.1c-2.7,0.8-5.3,1.5-8,2.2c-3.7,0-7.3,0-11,0c-11.9-2.4-21.7-8-27.2-20.5c-5,7.4-9.4,13.9-13.8,20.5
		c-0.3,0-0.7,0-1,0c-5.9-5.4-11.8-10.9-18.8-17.3c0,3.4-0.2,5.3,0,7.2c0.4,3.8-0.9,5.3-4.9,5.4c-5.8,0.2-11.6,0.8-17.2,2
		c-4.5,0.9-5-0.9-5.1-4.6C0.8,69.5,0.4,56.3,0,43C0,31,0,19,0,7c8.2-1,16.5-1.9,24.7-2.9c3.2-0.4,5.6-0.4,5.2,4
		c-0.3,3.6-0.1,7.2-0.1,10.8c0.3,0.2,0.6,0.4,0.9,0.6C35.2,13,39.6,6.5,44,0c0.7,0,1.3,0,2,0c5.2,6.1,10.1,12.4,15.5,18.2
		c3.1,3.3,3.5,5.4-0.4,8.7c-8,6.8-15.4,14.2-23.5,21.8c7.6,6.4,14.9,12.5,22.8,19.1c-0.9-5.4-2.1-9.7-2.4-14.1
		c-1.5-23.1,16.2-45,40.8-51.1c14.9-3.6,34.6,2.2,39.6,21.2c0.3,1.2,1,2.3,1.6,3.8c2.5-3.1,4.5-5.9,6.9-8.5
		c9.8-10.6,21.9-17.2,36.3-17.5c13.2-0.3,23.8,5.3,30.1,18.4c0.9-3.8,2-6.8,2.2-9.9c0.3-4.2,2.5-5.1,6.2-5.2
		c9-0.1,17.9-0.5,26.9-0.8c7.3-0.3,14.6-0.8,21.9-0.9c6.7-0.2,13.5,0,21,0c-11.2,18.8-22,36.9-33.4,56c12.9-1.5,24.7-2.9,37.2-4.4
		c-1.5,8.6-3.2,16.1-3.9,23.6c-0.5,5.5-2.9,6.6-7.9,6.8c-14.1,0.6-28.2,1.9-42.3,2.8c-8.2,0.5-16.4,0.8-25.4,1.3
		c8.2-20.1,16-39.2,24.1-59c-4.9,0.3-8.8,0.7-12.7,0.9c-10,0.5-10,0.5-10.1,10.3c-0.2,20.7-13.3,39.7-31.7,45.9
		C182.4,88.4,179.2,89.1,176,90z M112.8,42.9c0-10.8-7.9-15.9-17.4-11.5c-8.9,4.1-14.6,16.8-11.8,26.2c2.1,6.9,7.3,9.7,14.3,7.4
		C106.2,62.3,112.8,52.5,112.8,42.9z M159.1,52.5c0,11.3,7.5,16.3,17.4,11.5c7.9-3.8,14-16.5,12.1-24.9c-1.8-7.8-8-11.1-15.6-8.3
		C164.8,33.9,159.1,42.6,159.1,52.5z"/>
	<path d="M372.4,19.7c-7.3,9.5-13.8,19-21.4,27.5c-7.2,7.9-10.5,16.5-9.5,27.1c0.4,4.4,0.1,8.9,0.1,14.1c-9.3-1.2-17.6-2.2-25.9-3.6
		c-0.8-0.1-1.8-2.5-1.8-3.9c-0.2-7,0.2-14-0.2-21c-0.1-2.8-1-5.9-2.6-8.2c-6.4-9.5-13.1-18.8-20-28c-2.4-3.2-1.9-4.8,1.2-7.1
		c6.1-4.3,11.8-9.1,18.2-14.1c5.9,9.1,11.5,17.8,17.7,27.3c4.4-6.3,8.5-12,12.4-17.8c6.5-9.6,6.5-9.6,16.2-3.1
		C361.9,12.4,366.9,15.9,372.4,19.7z"/>
</g>
<rect x="178.4" y="-38.5" fill="none" width="35" height="181"/>
</svg>
