<?xml version="1.0" encoding="utf-8"?>
<!-- Generator: Adobe Illustrator 19.0.0, SVG Export Plug-In . SVG Version: 6.00 Build 0)  -->
<svg version="1.1" id="Calque_1" xmlns="http://www.w3.org/2000/svg" xmlns:xlink="http://www.w3.org/1999/xlink" x="0px" y="0px"
	 viewBox="0 0 205.6 32.2" enable-background="new 0 0 205.6 32.2" xml:space="preserve">
<g>
	<path d="M13.4,4.9h0.1c1.2,0,1.9,0.8,2.2,2.3c-0.6,3.1-1.4,5.6-2.3,7.4v0.2c4.5-3.3,7-4.9,7.5-4.9h0.2c1.2,0,2,0.8,2.3,2.5
		c0,0.3-0.3,1-0.8,2.1C22.2,16.7,22,18.8,22,21v1.6c0,2.1,0.5,4.5,1.4,7.1v0.1c0,1.3-0.8,2.1-2.5,2.3c-2.1,0-3.4-3.4-3.9-10.1
		l0.1-3.6h0.1l-0.2-0.4c-2.2,1.7-4.5,3.2-6.9,4.7v0.2c1.8,2.1,2.7,3.5,2.7,4.2v0.1c-0.3,1.6-1.1,2.3-2.3,2.3h-0.1
		c-1.2,0-2.6-1.4-4.2-4.2c-3.7-5-5.8-9.6-6.2-13.9C0.4,9.9,1.2,9,2.5,9h0.1c1.7,0,2.6,1.4,2.6,4.1c0.7,2.7,1.2,4,1.5,4
		c2.6-4.7,3.9-7.7,3.9-9C11.1,6,12.1,4.9,13.4,4.9z"/>
	<path d="M31.7,7.4H33c2.8,0,5.3,1.6,7.5,4.8c0.9,1.3,1.3,3.2,1.3,5.5c0,3-1.6,5.9-4.7,8.8c-3.1,2.2-6,3.3-8.8,3.3
		c-4.1,0-6.7-2.7-7.7-8.1v-1.2l-0.1-0.1l0.1-0.1v-0.7l0.4-1.9l-0.1-1.6C22.9,10.3,26.5,7.4,31.7,7.4z M25.3,20.9
		c0.4,2.7,1.1,4,2.3,4h1.4c1.9,0,4-1.1,6.2-3.3c1.1-1.4,1.6-2.8,1.6-4.3c0-2.3-1.1-3.9-3.2-4.8c-0.3-0.2-0.7-0.2-1.3-0.2H31
		c-2.3,0.5-3.5,1.1-3.5,1.9c-1.1,2.2-1.8,4.1-2.1,5.5V20.9z"/>
	<path d="M49.7,7.4h1.3c2.8,0,5.3,1.6,7.5,4.8c0.9,1.3,1.3,3.2,1.3,5.5c0,3-1.6,5.9-4.7,8.8c-3.1,2.2-6,3.3-8.8,3.3
		c-4.1,0-6.7-2.7-7.7-8.1v-1.2l-0.1-0.1l0.1-0.1v-0.7l0.4-1.9l-0.1-1.6C40.8,10.3,44.5,7.4,49.7,7.4z M43.3,20.9
		c0.4,2.7,1.1,4,2.3,4h1.4c1.9,0,4-1.1,6.2-3.3c1.1-1.4,1.6-2.8,1.6-4.3c0-2.3-1.1-3.9-3.2-4.8c-0.3-0.2-0.7-0.2-1.3-0.2H49
		c-2.3,0.5-3.5,1.1-3.5,1.9c-1.1,2.2-1.8,4.1-2.1,5.5V20.9z"/>
	<path d="M75.9,6.6C77.6,7,78.4,7.8,78.4,9c0,0.6-1,2.1-3,4.5c-1.5,3-4.8,7.2-9.7,12.8v0.1l0.1,0.1v0.1l1.4-0.1h7l5.2,0.2v-0.1
		c-1.3-3.6-1.9-5.7-1.9-6.1v-0.2c0-1.3,0.8-2,2.3-2.2c1.4,0,2.4,1.5,3,4.6c2,4.3,2.9,6.6,2.9,6.8c0,1.3-1,2.1-2.9,2.6
		c-3-0.5-6.7-0.7-11.1-0.7c-6.3,0-10.4,0.3-12.3,0.9c-1.3,0-2.1-0.9-2.3-2.6c0-0.7,0.8-1.8,2.3-3.3l8.9-10.8l1.1-1.5v-0.1h-0.1
		c-0.7,0-3.1,1.2-7.1,3.5l-1.4,0.5c-1.6-0.4-2.5-1.2-2.5-2.5c0-1.2,1.1-2.2,3.3-3c2-1.4,5.4-2.9,10-4.6L75.9,6.6z"/>
	<path d="M101.5,0c1.5,0,2.4,1.2,2.7,3.6c0.2,2.4,1.1,6.8,2.7,13l0.6,4.2c0,6.3-2.7,10-8.2,11.1L97,32.2h-0.8c-3.6,0-7-1.2-10.2-3.6
		c-3-3.1-4.6-5.4-4.6-6.8c0-1.1,0.8-1.8,2.3-2.1c1.1,0,2.2,1.1,3.4,3.4c2.4,2.9,5.5,4.3,9.5,4.3c2.5,0,4.2-0.7,5-2.1
		c0.6-1.3,0.9-2.7,0.9-4c-0.3-3.5-0.7-5.4-1.2-5.6c-2.1,3.5-5,5.3-8.7,5.3c-2.5,0-5-1.1-7.4-3.2c-2.4-3-3.6-5.8-3.6-8.6
		c0-1.8,0.7-2.7,2.2-2.7V6.4c1.4,0,2.2,1.1,2.5,3.3c0.2,1.8,1.2,3.6,3,5.4c1.2,0.6,2,0.9,2.6,0.9H94c1.9,0,3.7-2.3,5.4-7l0.2-2
		L99,2.9V2.6C99.2,0.9,100,0,101.5,0z"/>
	<path d="M133.2,4.9h0.1c1.2,0,1.9,0.8,2.2,2.3c-0.6,3.1-1.4,5.6-2.3,7.4v0.2c4.5-3.3,7-4.9,7.5-4.9h0.2c1.2,0,2,0.8,2.3,2.5
		c0,0.3-0.3,1-0.8,2.1c-0.4,2.1-0.6,4.3-0.6,6.4v1.6c0,2.1,0.5,4.5,1.4,7.1v0.1c0,1.3-0.8,2.1-2.5,2.3c-2.1,0-3.4-3.4-3.9-10.1
		l0.1-3.6h0.1l-0.2-0.4c-2.2,1.7-4.5,3.2-6.9,4.7v0.2c1.8,2.1,2.7,3.5,2.7,4.2v0.1c-0.3,1.6-1.1,2.3-2.3,2.3h-0.1
		c-1.2,0-2.6-1.4-4.2-4.2c-3.7-5-5.8-9.6-6.2-13.9c0.4-1.7,1.2-2.6,2.5-2.6h0.1c1.7,0,2.6,1.4,2.6,4.1c0.7,2.7,1.2,4,1.5,4
		c2.6-4.7,3.9-7.7,3.9-9C131,6,131.9,4.9,133.2,4.9z"/>
	<path d="M151.5,7.4h1.3c2.8,0,5.3,1.6,7.5,4.8c0.9,1.3,1.3,3.2,1.3,5.5c0,3-1.6,5.9-4.7,8.8c-3.1,2.2-6,3.3-8.8,3.3
		c-4.1,0-6.7-2.7-7.7-8.1v-1.2l-0.1-0.1l0.1-0.1v-0.7l0.4-1.9l-0.1-1.6C142.7,10.3,146.3,7.4,151.5,7.4z M145.2,20.9
		c0.4,2.7,1.1,4,2.3,4h1.4c1.9,0,4-1.1,6.2-3.3c1.1-1.4,1.6-2.8,1.6-4.3c0-2.3-1.1-3.9-3.2-4.8c-0.3-0.2-0.7-0.2-1.3-0.2h-1.5
		c-2.3,0.5-3.5,1.1-3.5,1.9c-1.1,2.2-1.8,4.1-2.1,5.5V20.9z"/>
	<path d="M169.5,7.4h1.3c2.8,0,5.3,1.6,7.5,4.8c0.9,1.3,1.3,3.2,1.3,5.5c0,3-1.6,5.9-4.7,8.8c-3.1,2.2-6,3.3-8.8,3.3
		c-4.1,0-6.7-2.7-7.7-8.1v-1.2l-0.1-0.1l0.1-0.1v-0.7l0.4-1.9l-0.1-1.6C160.7,10.3,164.3,7.4,169.5,7.4z M163.2,20.9
		c0.4,2.7,1.1,4,2.3,4h1.4c1.9,0,4-1.1,6.2-3.3c1.1-1.4,1.6-2.8,1.6-4.3c0-2.3-1.1-3.9-3.2-4.8c-0.3-0.2-0.7-0.2-1.3-0.2h-1.5
		c-2.3,0.5-3.5,1.1-3.5,1.9c-1.1,2.2-1.8,4.1-2.1,5.5V20.9z"/>
	<path d="M195.8,6.6c1.6,0.4,2.5,1.3,2.5,2.5c0,0.6-1,2.1-3,4.5c-1.5,3-4.8,7.2-9.7,12.8v0.1l0.1,0.1v0.1l1.4-0.1h7l5.2,0.2v-0.1
		c-1.3-3.6-1.9-5.7-1.9-6.1v-0.2c0-1.3,0.8-2,2.3-2.2c1.4,0,2.4,1.5,3,4.6c2,4.3,2.9,6.6,2.9,6.8c0,1.3-1,2.1-2.9,2.6
		c-3-0.5-6.7-0.7-11.1-0.7c-6.3,0-10.4,0.3-12.3,0.9c-1.3,0-2.1-0.9-2.3-2.6c0-0.7,0.8-1.8,2.3-3.3l8.9-10.8l1.1-1.5v-0.1h-0.1
		c-0.7,0-3.1,1.2-7.1,3.5l-1.4,0.5c-1.6-0.4-2.5-1.2-2.5-2.5c0-1.2,1.1-2.2,3.3-3c2-1.4,5.4-2.9,10-4.6L195.8,6.6z"/>
</g>
</svg>
