<?xml version="1.0" standalone="no"?>
<!DOCTYPE svg PUBLIC "-//W3C//DTD SVG 20010904//EN"
 "http://www.w3.org/TR/2001/REC-SVG-20010904/DTD/svg10.dtd">
<svg version="1.0" xmlns="http://www.w3.org/2000/svg"
 width="214.000000pt" height="31.000000pt" viewBox="0 0 214.000000 31.000000"
 preserveAspectRatio="xMidYMid meet">

<g transform="translate(0.000000,31.000000) scale(0.100000,-0.100000)"
fill="#000000" stroke="none">
<path d="M680 237 c-91 -34 -171 -66 -177 -70 -8 -5 -13 -32 -13 -72 l0 -65
-242 -2 c-156 -2 -242 -7 -240 -13 4 -16 2114 -14 2120 3 3 9 -49 12 -237 12
l-241 0 -1 23 c-1 45 -8 109 -12 114 -3 2 -43 18 -88 34 -46 16 -93 33 -104
38 -11 5 -53 21 -93 35 -70 25 -81 26 -290 25 l-217 0 -165 -62z m578 -19 l3
-58 -196 0 -195 0 0 54 c0 34 5 56 13 59 6 3 93 5 192 4 l180 -2 3 -57z m-425
-68 c-18 -14 -295 -111 -307 -107 -8 3 -11 21 -9 53 2 27 6 50 8 52 2 2 73 30
157 61 l153 57 3 -55 c2 -29 -1 -57 -5 -61z m514 99 c15 -6 37 -15 48 -20 11
-5 40 -15 65 -24 119 -41 136 -48 148 -57 18 -15 16 -108 -2 -108 -11 0 -216
72 -298 105 -14 6 -18 19 -18 61 0 59 6 63 57 43z"/>
</g>
</svg>
