<?xml version="1.0" encoding="utf-8"?>
<!-- Generator: Adobe Illustrator 19.0.0, SVG Export Plug-In . SVG Version: 6.00 Build 0)  -->
<svg version="1.1" id="Calque_1" xmlns="http://www.w3.org/2000/svg" xmlns:xlink="http://www.w3.org/1999/xlink" x="0px" y="0px"
	 viewBox="0 0 679.5 215.3" enable-background="new 0 0 679.5 215.3" xml:space="preserve">
<path d="M621.7,213.9c-15.6,0-31.1,0-46.7,0c-21.6,0-43.3-0.4-64.9,0.2c-15.1,0.4-30.2,0.2-45.4,0.4c-15.2,0.2-30.4,0.1-45.6,0.1
	c-15.2,0-30.3,0-45.5,0c-15.2,0-30.4,0-45.6,0c-15.2,0-30.3,0-45.5,0c-23.6,0-47.3,0-70.9,0.1c-13.8,0-27.5-0.4-41.3,0.1
	c-15.3,0.6-30.6,0.2-45.8,0.4c-15.3,0.2-30.6,0.1-45.8,0.1c-25.1,0-50.2,0-75.2,0c-0.8,0-1.5-0.1-2.3-0.1c-0.9,0-1.3-0.5-1.1-1.3
	c0.1-0.9,0.4-1.8,0.5-2.6c0-0.1,0.1-0.2,0.1-0.2c0.3-1.5,0.5-3.1,0.8-4.5c16.6-0.3,33-0.7,49.6-1c0-2.2,0-4.3,0-6.4
	c0.1-8.7,0.2-17.4,0.3-26c0.1-11.1,0.3-22.2,0.5-33.3c0-0.7,0-1.7,0.4-2c0.7-0.6,1.8-0.9,2.7-1.2c1.3-0.5,2.5-0.9,3.8-1.3
	c0.8-0.3,1.6-0.6,2.4-0.8c1.9-0.6,3.9-1.1,5.8-1.7c1.1-0.3,2.2-0.8,3.3-1.2c1.2-0.4,2.4-0.7,3.5-1.1c1.2-0.4,2.4-0.9,3.5-1.3
	c0.8-0.3,1.6-0.5,2.3-0.7c1.1-0.3,2.2-0.6,3.2-1c1.2-0.4,2.4-0.9,3.6-1.3c0.8-0.3,1.6-0.5,2.5-0.7c1.1-0.3,2.3-0.6,3.4-1
	c1.1-0.4,2.2-0.8,3.3-1.2c0.8-0.3,1.6-0.6,2.4-0.8c2-0.6,3.9-1.1,5.9-1.7c1.2-0.4,2.3-0.9,3.5-1.3c1.1-0.4,2.3-0.6,3.4-1
	c1.2-0.4,2.3-0.9,3.5-1.3c0.8-0.3,1.6-0.5,2.4-0.8c1.9-0.6,3.9-1.1,5.8-1.7c1.1-0.3,2.2-0.8,3.3-1.2c1.2-0.4,2.4-0.7,3.5-1.1
	c1.2-0.4,2.3-0.8,3.5-1.2c0.8-0.3,1.6-0.6,2.4-0.8c1.9-0.6,3.8-1.1,5.7-1.7c1.2-0.4,2.3-0.9,3.5-1.3c1.1-0.4,2.3-0.6,3.4-1
	c1.1-0.4,2.3-0.9,3.4-1.3c0.8-0.3,1.6-0.5,2.4-0.8c1.2-0.3,2.3-0.6,3.5-1c1.2-0.4,2.3-0.8,3.5-1.3c0.8-0.3,1.5-0.5,2.3-0.7
	c1.2-0.3,2.4-0.6,3.5-1c1.1-0.4,2.2-0.8,3.4-1.2c0.8-0.3,1.5-0.6,2.3-0.8c1.9-0.6,3.9-1.1,5.8-1.7c1.1-0.3,2.2-0.8,3.3-1.2
	c1.2-0.4,2.4-0.7,3.7-1.1c1.2-0.4,2.3-0.9,3.5-1.3c0.8-0.3,1.6-0.5,2.3-0.7c1.9-0.6,3.8-1.1,5.7-1.7c1.1-0.4,2.2-0.8,3.4-1.2
	c1.1-0.4,2.3-0.7,3.4-1c1.1-0.4,2.3-0.8,3.4-1.2c0.8-0.3,1.7-0.6,2.6-0.8c1.2-0.3,2.3-0.6,3.5-1c1.2-0.4,2.4-0.9,3.6-1.3
	c0.8-0.3,1.5-0.5,2.3-0.7c1.1-0.3,2.3-0.6,3.5-0.9c1.2-0.4,2.3-0.9,3.5-1.2c0.8-0.3,1.7-0.5,2.6-0.8c1.1-0.3,2.2-0.7,3.3-1
	c5.7-1.5,11.5-0.5,17.2-0.9c18-1.3,36-0.6,53.9-0.7c19.8-0.1,39.5,0,59.3,0.1c1.3,0,2.3-0.6,3.3-1.2c0.6-0.4,1.2-0.7,1.9-1
	c1.6-0.6,3.2-1,4.8-1.6c1.7-0.6,3.4-1.4,5.1-2c0.8-0.3,1.6-0.6,2.4-0.9c1.3-0.5,2.5-1,3.8-1.4c1.7-0.6,3.4-1,5-1.6
	c1.7-0.6,3.4-1.4,5.1-2.1c0.6-0.3,1.3-0.5,2-0.7c1.1-0.3,2.1-0.6,3.2-1c1-0.4,2-0.9,3-1.3c0.7-0.3,1.4-0.5,2.1-0.8
	c1.8-0.6,3.6-1.1,5.4-1.8c1.6-0.6,3.1-1.4,4.7-2c0.7-0.3,1.5-0.5,2.3-0.8c1.7-0.5,3.4-1,5.1-1.6c1.6-0.6,3.2-1.3,4.8-2
	c0.8-0.3,1.6-0.6,2.4-0.9c1.7-0.6,3.4-1,5.1-1.6c1.7-0.6,3.3-1.4,5-2c0.6-0.3,1.3-0.5,2-0.7c1.7-0.6,3.5-1.1,5.2-1.7
	c1.7-0.6,3.4-1.4,5.1-2.1c0.7-0.3,1.5-0.5,2.2-0.8c1.7-0.6,3.5-1.1,5.2-1.7c1.6-0.6,3.1-1.4,4.7-2c0.7-0.3,1.4-0.5,2.1-0.7
	c1.7-0.5,3.5-1,5.2-1.6c1.7-0.6,3.4-1.4,5-2c0.6-0.3,1.3-0.5,1.9-0.7c1.1-0.3,2.1-0.6,3.2-1c0.9-0.3,1.8-0.8,2.7-1.2
	c0.8-0.3,1.7-0.6,2.5-0.9c1.7-0.6,3.5-1.1,5.2-1.7c1.7-0.6,3.4-1.4,5.1-2.1c0.6-0.2,1.2-0.5,1.8-0.7c1.7-0.5,3.5-1,5.1-1.6
	c1.7-0.6,3.3-1.4,5-2.1c0.8-0.3,1.5-0.6,2.3-0.8c1-0.3,2-0.5,3-0.9c1-0.4,1.9-0.9,2.9-1.3c0.7-0.3,1.4-0.5,2.1-0.7
	c1.7-0.6,3.3-1.1,5-1.7c1-0.3,1.9-0.8,2.9-1.1c1.1-0.4,2.2-0.8,3.4-1.2c1-0.4,2-0.8,3-1.2c0.7-0.3,1.4-0.6,2-0.8
	c1.7-0.6,3.5-1.1,5.2-1.7c1.7-0.6,3.4-1.5,5.1-2.1c1-0.4,2-0.5,3-0.9c1-0.3,1.9-0.8,2.8-1.1c0.9-0.3,1.7-0.7,2.6-1
	c1.7-0.6,3.5-1.1,5.2-1.7c1.6-0.6,3.1-1.4,4.7-2c1.7-0.6,3.4-1,5.1-1.7c1.7-0.6,3.3-1.4,5-2.1c0.6-0.2,1.2-0.2,2-0.3
	c0,25.6,0,51.1,0,76.6c35.1,0,70.1,0,105,0c0,45.8,0,91.5,0,137.3C660.2,213.9,640.9,213.9,621.7,213.9z M248.2,136.8
	c0-16,0-32,0-48c0-0.5,0-1,0-1.7c-2.5,0.3-4.8-0.3-7.2,0.6c-0.9,0.3-2,0.1-3,0.2c-1,0-2-0.1-2.9,0.1c-1.5,0.3-2.9,0.9-4.3,1.3
	c-0.8,0.3-1.6,0.5-2.4,0.8c-1.9,0.6-3.9,1.1-5.8,1.7c-2,0.7-4,1.4-6,2.1c-1.1,0.3-2.2,0.5-3.2,0.8c-1.2,0.3-2.3,0.8-3.4,1.2
	c-0.9,0.3-1.8,0.7-2.7,0.9c-1.1,0.3-2.2,0.6-3.3,0.9c-1.3,0.4-2.5,0.9-3.8,1.3c-1.1,0.4-2.2,0.6-3.3,0.9c-1.2,0.4-2.4,0.9-3.6,1.3
	c-0.8,0.3-1.6,0.5-2.4,0.7c-1.2,0.3-2.3,0.6-3.5,1c-1.3,0.4-2.5,0.9-3.7,1.3c-0.9,0.3-1.8,0.6-2.8,0.8c-1.1,0.3-2.3,0.5-3.5,0.9
	c-1.1,0.4-2.2,0.9-3.3,1.3c-0.8,0.3-1.6,0.5-2.4,0.7c-1.2,0.3-2.3,0.6-3.5,1c-1.2,0.4-2.3,0.9-3.5,1.3c-0.8,0.3-1.7,0.6-2.6,0.8
	c-1.2,0.3-2.3,0.6-3.5,0.9c-1.2,0.4-2.3,0.9-3.5,1.3c-0.8,0.3-1.5,0.5-2.3,0.7c-2,0.6-4,1.1-6,1.7c-1.1,0.3-2.2,0.8-3.3,1.2
	c-1.2,0.4-2.5,0.7-3.7,1.1c-1.1,0.4-2.3,0.8-3.4,1.2c-0.8,0.3-1.7,0.6-2.5,0.8c-1.9,0.6-3.9,1.1-5.8,1.7c-1.2,0.4-2.4,0.9-3.6,1.3
	c-1.1,0.4-2.3,0.6-3.4,1c-1.2,0.4-2.4,0.9-3.6,1.3c-0.8,0.3-1.6,0.5-2.4,0.8c-2,0.6-4.1,1.1-6.1,1.7c-1.2,0.4-2.3,0.9-3.5,1.3
	c-1.1,0.4-2.3,0.6-3.4,0.9c-1.1,0.4-2.2,0.8-3.4,1.2c-0.8,0.3-1.7,0.6-2.6,0.8c-2,0.6-4,1.1-6,1.7c-1.2,0.4-2.3,0.9-3.5,1.3
	c-1.2,0.4-2.4,0.6-3.5,1c-1.1,0.4-2.2,0.8-3.3,1.2c-0.9,0.3-1.9,0.6-2.8,0.9c-0.8,0.3-1.6,0.5-2.4,0.8c-1.7,0.5-3.4,1.1-5.1,1.6
	c-1.6,0.4-3.2,0.5-4.9,0.8c-1.3,0.2-2.5,0.5-3.8,0.7c0,21.5,0,43,0,64.7c6.5-0.3,12.9-0.6,19.6-0.9c0.2-2,0.4-3.9,0.7-5.8
	c0.2-1.8,0.4-3.7,0.7-5.5c0.2-1.2,0.7-2.3,1-3.7c0.3,0,0.7,0,1.1,0c8.8,0,17.7,0.3,26.5-0.2c6.2-0.4,12.3-0.2,18.5-0.6
	c0.5,0,1.2-0.6,1.4-1.1c1-1.7,2-3.5,2.9-5.3c0.9-1.7,1.6-3.5,2.4-5.2c0.6-1.2,1.4-2.4,2-3.5c0.1-0.2,0.1-0.5,0.3-0.8
	c0.4-0.8,0.7-1.4,1.8-1.4c6.9,0,13.9,0.3,20.8-0.2c6.5-0.5,12.9-0.3,19.3-0.5c1.2,0,1.2-1.1,1.5-1.8c0.6-1.4,1-3,1.4-4.5
	c0.3-1.1,0.5-2.3,0.9-3.4c0.3-1,0.6-2,1-3.1c0.7,0,1.4,0,2.1,0c15.5,0,31,0,46.6,0c1.6,0,1.9-0.4,2.2-1.9c0.2-1,0.8-1.8,1.1-2.8
	c0.3-0.7,0.6-1.4,0.9-2.1c0.6-1.6,1.1-3.2,1.7-4.8c0.4-0.9,0.8-1.8,1.2-2.7c0.3-0.8,0.7-1.6,1-2.4c0.1-0.2,0.3-0.4,0.5-0.4
	c1.8-0.3,3.6-0.6,5.2-0.8C248.5,139.8,248.2,138.3,248.2,136.8z M457.3,106.9c8,0.8,16,0.2,24,0.5c1.2,0,1.3-1,1.6-1.8
	c0.5-1.4,1-2.9,1.4-4.3c0.3-0.8,0.5-1.6,0.8-2.5c0.3-1.2,0.6-2.3,1-3.5c0.3-1,0.8-2,1.2-3.1c0-0.1,0.1-0.1,0.1-0.2
	c0.3-1.1,0.6-2.2,0.9-3.4c1.6,0,3.1,0,4.6,0c12.8,0,25.5,0,38.3,0c0.8,0,1.4-0.1,1.7-0.9c0.4-1.2,0.8-2.4,1.2-3.7
	c0.4-1.3,0.9-2.5,1.3-3.8c0-0.1,0.1-0.1,0.1-0.2c0.3-1.1,0.6-2.2,0.9-3.4c0.5,0,1,0,1.5,0c7,0,14,0,21-0.1c2,0,3.9-0.3,6-0.5
	c0-0.7,0-1.2,0-1.6c0-3.3-0.1-6.6,0-9.8c0.1-2.3,0.5-4.6,0.7-6.9c0.1-1.4,0.1-2.7-0.1-4.1c-1.4-11.4-0.2-22.8-0.5-34.2
	c0-0.6,0.2-1.1,0.4-1.7c0.3-0.8,0-2.1-0.6-2.6c-0.1-0.1-0.3-0.1-0.4-0.1c-0.9,0.4-1.8,0.9-2.8,1.2c-0.8,0.3-1.5,0.6-2.3,0.8
	c-2.5,0.8-5,1.5-7.4,2.4c-1.7,0.6-3.4,1.4-5.1,2.1c-0.9,0.4-1.9,0.5-2.9,0.8c-1,0.4-2,0.8-3.1,1.2c-0.9,0.3-1.7,0.7-2.6,1
	c-1,0.3-2.1,0.6-3.1,0.9c-0.9,0.3-1.7,0.7-2.6,1c-1.2,0.4-2.4,0.8-3.6,1.3c-1.1,0.4-2.1,0.9-3.1,1.3c-0.7,0.3-1.5,0.6-2.3,0.8
	c-1.7,0.6-3.5,1.1-5.2,1.7c-1.1,0.4-2,0.9-3.1,1.3c-1,0.4-2.1,0.6-3.1,1c-1.1,0.4-2.2,0.8-3.3,1.2c-0.7,0.3-1.3,0.6-2,0.8
	c-1.1,0.4-2.2,0.6-3.3,1c-1.1,0.4-2.2,1-3.3,1.4c-0.8,0.3-1.7,0.5-2.5,0.8c-1.2,0.4-2.4,1-3.6,1.4c-1,0.3-2.1,0.5-3.1,0.9
	c-1,0.3-1.9,0.8-2.9,1.1c-0.8,0.3-1.6,0.6-2.4,0.9c-1.1,0.4-2.2,0.6-3.3,1c-1,0.4-2,0.8-3,1.3c-0.1,0-0.2,0.1-0.3,0.1
	c-1.3,0.5-2.7,0.9-4,1.4c-0.7,0.2-1.4,0.5-2.2,0.7c-1.8,0.6-3.6,1.1-5.4,1.7c-1.8,0.6-3.4,1.4-5.2,2.1c-1,0.4-2.1,0.5-3.2,0.9
	c-1,0.3-1.9,0.8-2.9,1.2c-0.2,0.1-0.4,0.2-0.6,0.2c-1.1,0.4-2.3,0.8-3.4,1.2c-1.1,0.4-2.3,0.7-3.4,1.2c-1,0.4-2.1,0.8-3.1,1.3
	c-0.2,0.1-0.4,0.1-0.6,0.2c-1.3,0.5-2.6,0.9-3.9,1.4c-0.6,0.2-1.3,0.5-1.9,0.7c-1.8,0.6-3.7,1.1-5.5,1.7c-1.8,0.6-3.5,1.4-5.3,2.1
	c-0.9,0.3-1.9,0.5-2.9,0.9c-1.1,0.4-2.1,0.8-3.2,1.2c-0.1,0.1-0.3,0.1-0.4,0.2c-2.1,0.8-4.3,1.6-6.4,2.3c-1,0.3-2,0.5-3,0.9
	c-1,0.4-2,0.9-3,1.3c-0.9,0.3-1.8,0.5-2.7,0.9c-1.9,0.7-3.9,1.4-5.8,2.1c-0.9,0.3-1.9,0.6-2.8,1c-1.2,0.5-2.5,0.9-3.7,1.4
	c-0.7,0.3-1.4,0.5-2.2,0.7c-1,0.3-2.1,0.6-3.1,0.9c-0.8,0.2-1.6,0.5-2.3,0.8c-1.8,0.7-3.5,1.4-5.3,2.1c-0.9,0.4-2,0.5-2.9,0.9
	c-1.1,0.4-2.3,0.9-3.4,1.3c-0.9,0.3-1.8,0.7-2.8,0.9c-0.8,0.1-1.1,0.5-1.1,1.3c0,0.7,0,1.4,0,2c0,17.9,0,35.8-0.1,53.8
	c0,0.2,0,0.4,0.1,0.7c3.8,0.2,7.5,0.1,11.2-0.9c0-0.3,0.1-0.8,0.1-1.3c0-4,0-7.9,0.1-11.9c0-2.8-0.2-2.4,2.4-2.4
	c9.6-0.1,19.3,0.3,28.9-0.3c7-0.4,14-0.1,21.1-0.6c1.8-5.6,3.5-11.3,5.3-17.1C446.1,106.7,451.8,106.3,457.3,106.9z M361.4,133.7
	c0.1-15.6,0.1-31.3,0.1-46.9c0-0.3,0-0.6,0-1.3c-34.5,0.4-68.9,0.7-103.6,1.1c0.3,18.1,0.6,36.3,1,54.6c33.9,0,67.9,0,101.8,0
	C360.9,138.6,361.4,136.1,361.4,133.7z"/>
</svg>
